<?xml version="1.0" encoding="UTF-8"?><svg id="_レイヤー_2" xmlns="http://www.w3.org/2000/svg" viewBox="0 0 32 32"><defs><style>.cls-1{fill:#0068ac;}.cls-1,.cls-2{stroke-width:0px;}.cls-2{fill:#fff;}</style></defs><g id="_レイヤー_1-2"><rect class="cls-2" x="0" y="0" width="32" height="32" rx="16" ry="16"/><path class="cls-1" d="M17.59,26.72s-.24-.86-1.36-.85c-1.12.01-3.57,0-3.57,0,0,0-2.45.01-3.57,0-1.12-.01-1.36.85-1.36.85,0,0-.03.86,0,1.08.03.21.2.2.2.2h9.46s.17.02.2-.2c.03-.21,0-1.08,0-1.08Z"/><path class="cls-1" d="M24.55,9.24l-1.44-.97c-1.91-1.27-4-2.68-4.12-2.79-.12-.11-.29-.17-.49-.17-.12,0-.24.02-.31.04-.04.01-.09,0-.11,0,0,0,0,0,0,0-.09-.07-.73-.54-1.3-1.02-.26-.21-.55-.32-.87-.32s-.55.11-.62.14c-.08.03-.23.15-.97.79-.42.36-.65.72-.67,1.07-.02.33.14.53.16.55l.47.57c-1.35,1.26-5.52,5.15-6.22,5.75-.92.79-.88,1.79-.71,2.26l3.3,10.34s.04.05.07.05h1.29s.07-.03.07-.07c0-.01,0-.03-.01-.04l-3.41-10.67s-.14-.5.32-.89c.74-.63,5.13-4.73,6.15-5.68l.2.25s-.07.06-.12.11c-.24.26-.1.58-.1.59l.42.99h0c.29.7,1.72,4.16,1.91,4.49.14.25.34.29.45.29.18,0,.32-.09.36-.12l.08-.06c1.8-1.36,6-4.54,6.22-4.73.14-.13.17-.27.17-.35,0-.2-.16-.34-.19-.37Z"/></g></svg>