<?xml version="1.0" encoding="UTF-8"?><svg id="_レイヤー_2" xmlns="http://www.w3.org/2000/svg" viewBox="0 0 196.79 118.4"><defs><style>.cls-1{fill:#51a7dd;}.cls-1,.cls-2,.cls-3,.cls-4,.cls-5,.cls-6,.cls-7,.cls-8,.cls-9{stroke-width:0px;}.cls-2{fill:#f7f4ec;}.cls-3{fill:#f18e38;}.cls-4{fill:#ffdbb0;}.cls-5,.cls-6{fill:#0054a7;}.cls-6{fill-rule:evenodd;}.cls-7{fill:#edbc32;}.cls-8{fill:#fff;}.cls-9{fill:#fedc5e;}</style></defs><g id="_レイヤー_1-2"><path class="cls-5" d="M127.33,92.6c.02.26-.19.59-.45.73h0c-.27.14-.5.05-.53-.2l-2.08-21.67c-.07-.77.25-1.62.72-1.87h0c.47-.26.9.19.95.97l1.39,22.04Z"/><path class="cls-5" d="M126.17,67.44c0,.19-.24.44-.51.56h0c-.27.12-.5.07-.5-.12l-.07-15.87c0-.56.39-1.2.88-1.42h0c.49-.21.86.09.84.66l-.64,16.18Z"/><path class="cls-3" d="M128.52,48.98c.16-1.95.23-3.5.25-4.78.03-1.67-1.09-1.45-4.49-1.6-2.93-.13-19.68-2.16-19.83-.82-.23,2.03-.62,3.56-.75,5-.11,1.16-.55,4.41.38,4.48,3.51.26,8.33.79,12.73,1.26,5.67.6,10.46,1.54,11.21.67.33-.38.44-3.47.5-4.22Z"/><path class="cls-3" d="M96.57,65.01c-2.95,2.44-4.83,3.93-7.04,6.07-.96.93-5.03,2.73,5.58,4.14,15.37,2.05,17.34,3.17,20.16,1.87,2.96-1.37,5.77-3.07,9.64-6.17,3.39-2.72,2.5-3.79,1.14-4.22-2.59-.84-8.74-.89-14.66-1.98-5.91-1.09-11.74-2.25-14.83.3Z"/><path class="cls-8" d="M94.26,100.51c0-3.69,5.51-3.45,4.83-.29-.55,2.57-.82,4.94.47,7.36.81,2.92-7.21,5.54-9.46,4.95-.85-.49,3.51-4.24,4.63-6.27,1-1.82-.47-4.05-.47-5.76Z"/><path class="cls-5" d="M99.22,106.84c-1.05,1.38-2.18,2.08-3.55,3.07-.82.59.13-.9-.92-1.01-1.06-.11-1.13-.37-1.65-.5-.44-.11-1.1,1.06-1.47,1.45-.85.93-4.02,2.41-3.85,3.57.19,1.3,1.9,1.37,3.38,1.26.9-.06,2.54-.43,5.63-2.39.97-.62.27.5,2.38-.62.62-.33.35-1.1.54-2.03.22-1.14-.13-3.27-.49-2.8Z"/><path class="cls-8" d="M105.81,106.01c.66-1.96-.7-3.43-.99-4.72-.8-3.69,4.15-4.77,4.96-.32.47,2.59-.68,3.33,1.01,5.49,1.31,2.73-6.12,6.73-8.43,6.55-.92-.33,2.71-4.79,3.45-6.99Z"/><path class="cls-5" d="M110.33,105.78c-.79,1.54-1.77,2.43-2.95,3.64-.71.73-.03-.91-1.08-.83-1.06.08-1.18-.17-1.71-.2-.45-.03-.9,1.23-1.19,1.69-.67,1.06-3.53,3.08-3.16,4.19.42,1.24,2.11,1.01,3.55.65.87-.22,2.42-.87,5.12-3.35.85-.78.35.44,2.23-1.03.55-.43.15-1.14.17-2.09.02-1.16-.71-3.2-.98-2.67Z"/><path class="cls-1" d="M92.01,68.3c-5.02,4.12-2.48,8.08-2.11,17.95.38,9.87,1.73,17.98,1.64,19.45-.1,1.47.19,1.03,1.84,1.08,1.64.05,7,1.16,6.83-.53s-1.04-15.35-1.04-17.2,1.26,2.5,1.6,4.52c.33,1.96,1.79,12.19,1.87,13.21.08,1.01,1.35,1.02,3.15.73,1.81-.29,5.5-.87,6.08-1.11s-.07-3.09-.44-5.36c-.38-2.27-1.85-10-1.96-12.17s-1.29-7.34,0-9.42c1.29-2.08,4.78-3.66,7.78-6.47s3.07-7.72-.45-8.33c-3.53-.61-10.09-2.32-13.86-1.85-3.77.47-9.26,4.14-10.93,5.52Z"/><path class="cls-1" d="M99.02,88.03s.02,0,.03,0c.09-.02.16-.11.14-.2-.19-.97-.63-4.67-.83-6.59-.01-.1-.09-.16-.19-.16-.1.01-.17.1-.16.19.18,1.73.63,5.55.83,6.62.02.08.09.14.17.14Z"/><path class="cls-4" d="M107.1,23.95c-.13.02-1.86.42-2.03.42-.02.31-.33,2.69-.42,3.08-.44,1.98-2.48,4.07-1.93,4.38,2.2,1.48,6.35,2,7.41.21.48-.92-1.97-4.54-2.23-5.24-.19-.51-.78-2.65-.81-2.85Z"/><path class="cls-8" d="M101.92,29.85c.08-.48,2.31-1.89,2.7-1.49.3.31,1.17.71,1.77.36.67-.39,1.17-.71,1.41-.87.45-.29,2.9.25,3.41.42.15.04,1.96,2,2.17,2.72.6,3.9-.08,5.68,1.07,9.5-.01.33.19,1.3.33,1.9.23.97,2.08,9.08,2.36,10.81.39,2.38-.33,10.99-1.36,11.1-1.03.11-8.2,1.7-9.34,1.75-1.13.05-4.55.58-4.62.09-.06-.38-1.69-17.23-1.45-21.25.34-5.42,1.08-9.9,1.54-15.02Z"/><path class="cls-9" d="M106.62,29.11c-.4-.19-.39-.32-.91-.18-.52.15-1.04.49-.79,1.04.24.53.24.91.78.93.44.01.96-.46,1.27-.65.3-.2.2-.84-.34-1.14Z"/><path class="cls-8" d="M109.32,28.18c-.15-.34-.71-.92-.89-1.01-.18-.09-.35-.1-.7.2s-.8.61-1.08.85c-.31.26-.9.54-.68.75.36.34.98.94,1.22,1.17.15.14.93-.43,1.44-.84s1.07-.57.69-1.12Z"/><path class="cls-8" d="M103.99,28.02c.14-.16.52-.39.69-.24.17.15.8.61,1,.8.19.18.31.22.19.38-.32.43-.98,1.06-1.16.92-.29-.23-.67-.49-.88-.71-.21-.21-.38-.35-.41-.55-.03-.17.33-.35.57-.61Z"/><path class="cls-9" d="M106.29,30.53c.14,1.2-.34,11.57-.36,12.37s-2.27,3.19-2.78,3.49c-.51.3-.87-1.98-.99-3.1-.15-1.31,2.9-11.79,3.17-12.47.27-.68.88-.74.96-.29Z"/><path class="cls-4" d="M109.6,24.22c-1.27,2-2.24,3.08-3.52,3.21-.79.15-1.94-.19-3.14-.85-1.96-1.09-2.8-3.73-2.81-4.21-.04-1.35-.83-1.25-.25-4.04.17-.85.22-2.65,3.66-3.22,3.03-.5,10.01,2.71,6.07,9.11Z"/><path class="cls-5" d="M101.67,19.73c-.98.55-1.55.98-2.33.46-.64-.43-.4-1.72-.54-3.03-.11-.96.14-2.19,1.01-2.53,1.8-.7.13-1.24,3.99-2.17,2.81-.68,8.85,2.92,7.68,6.11-.77,2.11.3,4.1-2.08,6.14-.45.38-.41-1.86-.15-2.11,1.23-1.3.96-1.78.67-2.26-.29-.48-1.19-.76-1.41-.29-1.13,2.33-.81-.28-1.99.03-2.48.65-2.65-1.59-4.84-.35Z"/><path class="cls-5" d="M116.21,44.28c.75,0,6.58-4.26,4.18-7.89-1.47-2.22-2.67-3.34-4.46-5.13-2.39-2.39-5.66-3.87-6.59-3.64-.4.1-3.88,15.89-5.67,15.75-1.21-.1.36-14.93-.47-14.83-2.51.3-5.1,4.32-6.02,6.57-.43,1.04-2.21,4.26-3.61,5.8-2.14,2.36-4.62,4.32-5.9,7.95-.78,2.21-.19,3.09.49,3.79,2.06,2.13,5.71.71,8.06-.03,2.54-.8,1.28,5.38,1.2,8.54-.14,5.45-6.96,6.37-5.99,7.02,3.72,2.47,9.21-1.06,11.4.91,1.26,1.13,20.15,2.13,19.38.06-.39-1.05-1.94-5.3-2.25-7.85-.42-3.44-2.57-6.09-3-8.98-.57-3.82-1.32-8.03-.77-8.03Z"/><path class="cls-1" d="M105.34,44.14s-.03,0-.04-.01c-.09-.04-.13-.15-.09-.23.06-.12.15-.35.28-.65.63-1.51,2.12-5.03,3.65-6.9,1.37-1.67,1.08-2.07.6-2.72-.12-.17-.26-.36-.39-.58-.58-1.06.51-1.91,1.39-2.58.15-.12.3-.23.44-.35.19-.16.28-.32.28-.49,0-.43-.59-.9-.94-1.18l-.09-.07c-.08-.06-.09-.17-.03-.25.06-.08.17-.09.25-.03l.09.07c.43.34,1.07.86,1.07,1.46,0,.28-.14.54-.41.76-.14.11-.29.23-.45.35-1.02.78-1.71,1.39-1.3,2.13.11.2.24.38.36.54.58.79.86,1.36-.61,3.15-1.5,1.83-2.97,5.32-3.6,6.81-.13.31-.23.54-.28.66-.04.07-.12.11-.19.1Z"/><path class="cls-1" d="M102.18,42.47c-.1.02-.19-.05-.2-.15-.02-.15-.06-.39-.1-.69-.21-1.43-.64-4.41-1.05-5.57-.46-1.29.16-1.54.82-1.81.16-.07.34-.14.51-.23.19-.1.29-.21.33-.34.09-.32-.23-.81-.59-1.38-.07-.12-.15-.23-.22-.36-.72-1.18-.37-1.76.48-2.37.08-.06.19-.04.25.04.06.08.04.19-.04.25-.74.53-.97.93-.38,1.9.07.12.15.24.22.35.42.67.75,1.19.63,1.66-.06.23-.23.41-.51.56-.19.1-.37.17-.55.24-.66.27-.97.39-.62,1.36.43,1.19.86,4.2,1.07,5.64.04.3.08.54.1.69.02.1-.05.19-.15.2Z"/><path class="cls-5" d="M103.62,56.98s-.01,0-.02,0c-.22.02-.47-.15-.59-.42-.12-.26-.08-.54.11-.73h0c.13-.13.3-.19.48-.15.23.05.42.25.52.52.06.16.03.34-.07.49-.1.16-.26.26-.44.28ZM103.3,56.01c-.16.17-.11.35-.06.45.08.18.24.29.34.28.12,0,.21-.07.27-.17.06-.09.07-.19.04-.27-.07-.19-.2-.33-.34-.36-.09-.02-.18,0-.25.08h0Z"/><path class="cls-5" d="M103.85,62.78s-.01,0-.02,0c-.22.02-.47-.15-.59-.42-.12-.26-.08-.54.11-.73h0c.13-.13.3-.19.48-.15.23.05.43.25.52.52.06.16.03.34-.07.49-.1.16-.26.26-.44.28ZM103.53,61.8c-.16.17-.11.35-.06.45.08.18.24.29.34.28.12,0,.21-.07.27-.17.06-.09.07-.19.04-.27-.07-.19-.2-.33-.34-.36-.09-.02-.18,0-.25.08h0Z"/><path class="cls-5" d="M116.43,62.09c.08-.01.14-.08.14-.17,0-.09-.08-.17-.17-.17-.73,0-3.73-.05-5.05-.17-.41-.04-.68-.13-.78-.25-.09-.11-.06-.27-.03-.46.02-.11.03-.22.03-.32,0-.09-.08-.17-.17-.17-.09,0-.17.08-.17.17,0,.09-.01.18-.03.27-.03.23-.07.49.1.72.16.21.49.33,1.01.38,1.33.13,4.34.17,5.08.17,0,0,.02,0,.03,0Z"/><path class="cls-5" d="M116.42,60.65c.08-.01.14-.08.14-.16.01-.17,0-.31-.09-.4-.1-.11-.25-.12-.46-.13h-.15c-.58-.04-3.22-.13-4.48-.17l-.68-.02c-.09,0-.17.07-.17.16,0,.09.07.17.16.17l.68.02c1.26.04,3.89.13,4.47.16h.15c.1.01.2.02.23.03,0,0,0,.03,0,.15,0,.09.06.17.16.18.01,0,.03,0,.04,0Z"/><path class="cls-5" d="M110.21,69.74c-2.13.01-5.67-.28-7.04-.5-1.18-.19-1.2-1.02-1.2-1.46,0-.07,0-.17-.01-.22-.16.03-.61.56-.88.89-.6.72-1.04.61-2.1.34-.22-.06-.47-.12-.77-.19-.09-.02-.14-.11-.12-.19.02-.09.11-.14.19-.12.3.07.55.13.77.19,1.05.27,1.3.33,1.77-.23.68-.82.95-1.09,1.26-.99.2.07.2.29.21.52,0,.45.01,1,.93,1.15,1.42.22,5.18.53,7.26.49.11,0,.16.07.17.16,0,.09-.07.16-.16.17-.09,0-.18,0-.27,0Z"/><path class="cls-5" d="M65.17,111.04c.01.52.41.94.89.94h0c.48,0,.87-.42.88-.95l.33-43.91c.01-1.56-.67-2.85-1.52-2.84h0c-.85,0-1.52,1.31-1.49,2.86l.91,43.9Z"/><path class="cls-5" d="M87.49,100.97c.01.52.41.94.89.94h0c.48,0,.87-.42.88-.95l.33-43.91c.01-1.56-.67-2.85-1.52-2.84h0c-.85,0-1.52,1.31-1.49,2.86l.91,43.9Z"/><path class="cls-5" d="M109.51,117.47c.01.52.41.94.89.94h0c.48,0,.87-.42.88-.95l.33-43.91c.01-1.56-.67-2.85-1.52-2.84h0c-.85,0-1.52,1.31-1.49,2.86l.91,43.9Z"/><path class="cls-5" d="M133.07,105.29c.01.52.41.94.89.94h0c.48,0,.87-.42.88-.95l.33-43.91c.01-1.56-.67-2.85-1.52-2.84h0c-.85,0-1.52,1.31-1.49,2.86l.91,43.9Z"/><path class="cls-5" d="M135.16,57.73l-41.66,1.33c-2.78-.35-7.07.49-9.52,1.86l-20.11,4.91c-.58.39-.81,2.73-.83,5.46-.02,3.39.42,3.58,1.76,3.73l41.11,5.23c2.57.33,6.6-.44,8.97-1.72l20.57-11.07c2.53-1.36,2.36-9.38-.3-9.72Z"/><path class="cls-7" d="M135.99,57.19l-42.49-3.65c-2.78-.34-7.07.46-9.52,1.76l-19.62,9.09c-2.29,1.22-2.23,3.98.47,4.31l41.12,5.02c2.58.31,6.6-.41,8.97-1.62l20.56-10.52c2.53-1.29,3.17-4.06.52-4.38Z"/><path class="cls-3" d="M135.55,57.12l-41.76-5.08c-2.78-.34-7.07.46-9.52,1.76l-19.91,10.59c-2.29,1.22-1.94,2.48.76,2.81l41.12,5.02c2.58.31,6.6-.41,8.97-1.62l20.56-10.52c2.53-1.29,2.45-2.62-.21-2.95Z"/><path class="cls-8" d="M108.73,69.94c.44.08,1.11-.09,1.5-.39l13.2-10.09c.38-.29.34-.6-.1-.68l-10.95-2.03c-.44-.08-1.11.09-1.5.39l-13.2,10.09c-.38.29-.34.6.1.68l10.95,2.03Z"/><path class="cls-1" d="M101.3,67.89c.4.13,1.04.05,1.43-.18l13.37-7.76c.39-.23.38-.51-.01-.64l-9.87-3.17c-.4-.13-1.04-.05-1.43.18l-13.37,7.76c-.39.23-.38.51.01.64l9.87,3.17Z"/><path class="cls-1" d="M108.06,56.43c-1.69-1.13-5.52-1.76-7.18-1.95-1.45-.3-4.7-1.29-5.11-1.47-1.36-.57-2.02-.74-4.38.76-.41.26-1.97.92-3.6,1.83-2.37,1.31-5.51,3.1-5.5,3.53.02.47,2.84-.69,7.15,1.71,1.14.63,5.2-1.04,9.69,2,.42.29,1.4-.66,1.91-1.03,2.23-1.63,5.46-3.7,5.46-3.7,1.31-.97,2.02-1.37,1.57-1.67Z"/><path class="cls-8" d="M108.18,55.36c0-.07-.01-.13-.07-.18-1.51-1.41-6.26-2.22-8.42-1.35-.37.07-.66.04-1.03-.09-2.28-1.13-5.9-1.83-7.22-1.22-.45.21-1.96.92-3.6,1.83-2.15,1.19-4.92,2.76-5.41,3.37,0,0,0,0-.01,0-.29.2.04,1.03.07,1.17.05.2.92-.03,1.65.03.81.07,2.12.24,3.38.69,1.49.53,1.7.92,2.11,1.03.4.11,1.8-.1,2.99-.07,1.19.03,3.17.24,4.93,1.09,1.47.72,1.54.92,1.85.82.31-.09,1.65-1.22,2.71-1.9,1.06-.68,5-3.58,5.45-3.81.42-.21.6-.26.63-.88.01-.21.01-.4,0-.54Z"/><path class="cls-1" d="M89.86,59.84s-.06-.01-.08-.04c-.04-.05-.04-.12,0-.17,2.03-1.93,5.04-3.52,5.17-3.59.28-.15.68-.38,1.11-.63,1.01-.59,2.28-1.32,2.86-1.46.06-.02.13.02.14.09.02.06-.02.13-.09.14-.55.13-1.79.85-2.79,1.43-.45.26-.84.48-1.12.63-.13.07-3.11,1.64-5.12,3.55-.02.02-.05.03-.09.03Z"/><path class="cls-1" d="M89.08,59.45s-.05,0-.06-.02c-.61-.45-2.36-1.11-2.96-1.28-.57-.16-2.4-.31-2.88-.26-.06,0-.12-.04-.13-.1,0-.06.04-.12.1-.13.5-.05,2.36.1,2.96.27.59.16,2.38.83,3.04,1.31.05.04.06.11.02.16-.02.03-.06.05-.1.05Z"/><path class="cls-1" d="M98.86,61.5s-.04,0-.06-.02c-1.32-.86-3.05-1.29-3.97-1.47-.93-.18-3.01-.16-3.88-.05-.06,0-.12-.04-.13-.1,0-.06.04-.12.1-.13.88-.11,3-.14,3.95.05,1.14.23,2.77.67,4.05,1.5.05.04.07.11.03.16-.02.04-.06.05-.1.05Z"/><path class="cls-1" d="M99.73,61.42s-.07-.02-.09-.05c-.04-.05-.02-.13.03-.16.52-.36,1.18-.86,1.82-1.34.83-.63,1.7-1.29,2.33-1.68.54-.34,1.28-.85,1.99-1.35.75-.53,1.47-1.03,1.91-1.29.06-.03.13-.01.16.04.03.06.01.13-.04.16-.43.25-1.14.75-1.89,1.28-.71.5-1.45,1.02-2,1.36-.63.39-1.48,1.04-2.31,1.67-.64.48-1.3.99-1.83,1.35-.02.01-.05.02-.07.02Z"/><rect class="cls-1" x="101.79" y="55.85" width=".1" height=".28" transform="translate(187.02 135.06) rotate(-165.94)"/><path class="cls-1" d="M101.71,55.52c-.06.24,0,.47.12.5.13.03.28-.14.34-.38.06-.24,0-.47-.12-.5-.13-.03-.28.14-.34.38Z"/><path class="cls-1" d="M101.71,55.13c-.09.34,0,.65.17.7.18.05.41-.18.5-.52l2.09-7.22c.1-.33-.04-.66-.3-.73s-.54.15-.63.48l-1.84,7.29Z"/><path class="cls-9" d="M103.62,49.6c-.02.06,0,.12.03.13.03,0,.08-.03.09-.1l.39-1.36c.02-.06,0-.12-.06-.14-.05-.01-.1.03-.12.09l-.35,1.37Z"/><path class="cls-4" d="M106.94,55.36c.59.09,1.78-.2,2.44-.3.4-.7.69-2.46.38-2.65-.42-.25-2.22-.38-2.34-.61-.53-.98-1.61-1.3-2.52-1.55-1.44-.39-1.26.2-1.69.36-.48.18-.93.13-1.24.44-.26.26-.36.49-.11.84.11.16.42.17.38.81-.01.21-.12.74.26,1.19.27.31.22.44.24.76.02.5.08.55.51.73.43.17,1.66.02,2.72-.03.37-.02.7-.02.99,0Z"/><path class="cls-4" d="M92.9,50.29c.54-.11,2.94-.54,3.82-.15.88.39,1.42.97,2.29,2.08.33.42-.23.56-.17.76.19.57.06,1.42-.41,1.26-1.09-.36-2.76-1.08-3.1-1.07-.59.02-2.35-.23-2.72-.59-.33-.31-.88-.19-1.74-.15-2.18-.2-1.29-2.21.58-2.25.79.11,1.31.14,1.44.12Z"/><path class="cls-8" d="M91.35,48.86c.82.16,1.86-.26,1.6,1.02-.26,1.28-.56,3.76-1.31,3.47-.75-.29-1.76.08-1.74-.73.02-.81.7-3.91,1.44-3.76Z"/><path class="cls-5" d="M91.22,48.48c1.04.15,1.31-.4,1.06,1.15-.25,1.55-.46,4.41-1.44,4.17-.93-.23-2.66-.43-3.09-2.34-.33-1.44.77-3.44,1.13-3.32,1.04.37,1.57.22,2.35.34Z"/><path class="cls-8" d="M107.11,50.85c.83-.1,1.81-.7,1.97.59.16,1.3.65,3.74-.15,3.71-.8-.04-1.41.62-1.64-.15-.23-.77-.93-4.05-.18-4.15Z"/><path class="cls-5" d="M107.59,53.12c-.45-2.13-.67-2.66,1.49-3.2,2.16-.53,6.22-1.12,7.49-1.41.79-.18,1.57-.55.91-2.34-.35-.95-.84-2.04-1.27-1.9-1.11.36-1.26-5.4-1.05-6.73.32-2.06,1.4-3.72,3.96-2.49,1.19.57,3.82,5.4,4.79,7.41,1.01,2.1,1.62,7.35.91,8.82-.43.88-4.03,2.96-7.83,3.55-3.84.6-6.62,1.08-7.93.94-1.31-.13-1.12-.97-1.48-2.67Z"/><path class="cls-5" d="M155.06,69.55c.31.21.5.38.72.49,1.71.92,3.45,1.78,5.12,2.77,2.12,1.26,4.19,2.61,6.26,3.96,2.73,1.79,5.23,3.93,8.1,5.52,1.56.87,3.04,1.87,4.58,2.78.72.42,1.49.76,2.22,1.16.16.09.24.32.35.49-.22.06-.45.18-.67.15-.21-.02-.41-.19-.61-.3-3.88-2.25-7.76-4.5-11.39-7.16-4.02-2.95-8.17-5.71-12.71-7.81-.51-.24-.97-.6-1.47-.87-.42-.23-.86-.42-1.27-.61-1.3,1.16-1.58,2.66-1.99,4.08.14.13.21.23.31.28,2,1.17,4.02,2.3,6,3.5,3.67,2.24,7.33,4.49,10.97,6.78,1.67,1.05,3.27,2.21,4.91,3.31.69.46,1.42.88,2.12,1.34.77.49,1.51,1.01,2.29,1.49.41.26.87.44,1.3.67.2.11.4.23.59.35-.02.08-.04.16-.06.24-.23.04-.5.17-.68.09-.53-.21-1.05-.45-1.52-.76-2.65-1.72-5.26-3.48-7.92-5.18-2.85-1.83-5.73-3.6-8.59-5.4-2.58-1.61-5.15-3.23-7.75-4.82-.58-.36-1.24-.59-1.83-.92-.91-.51-1.05-1.04-.61-1.98.43-.93.85-1.86,1.29-2.79.45-.96,1.26-1.44,2.24-1.76.93-.31,1.85-.69,2.75-1.08,1.47-.63,2.91-1.31,4.38-1.93,1.44-.61,2.88-1.19,4.34-1.73.96-.35,1.96-.62,2.94-.89,1.13-.31,1.89.2,1.94,1.36-.16-.09-.32-.13-.39-.23-.38-.53-.88-.55-1.43-.36-1.83.63-3.68,1.22-5.47,1.94-2.29.92-4.53,1.96-6.8,2.92-.79.33-1.61.57-2.56.91Z"/><path class="cls-5" d="M186.8,89.63c2.34-.51,4.65-1.11,6.68-2.45.24-.16.25-.13.76.39-.83.47-1.63.92-2.55,1.45.27.29.44.53.65.7.36.28.79.48,1.1.8.24.25.59.78.49.92-.45.67-.15,1.46-.43,2.12-.35.82-.33,1.64-.05,2.45.1.3.34.55.59.94-2.03.99-4.34,1.29-6.49,2.08-2.14.79-4.34,1.4-6.52,2.09-2.2.7-4.4,1.4-6.78,1.92.09-.19.14-.47.28-.55.41-.2.86-.31,1.29-.45,4.49-1.44,8.98-2.88,13.48-4.3.94-.3,1.91-.51,2.86-.78.25-.07.49-.18.84-.3-.8-1.32-.46-2.66-.09-3.99-5.73,1.63-11.06,4.14-16.72,5.7-.02,0-.07-.12-.15-.27,5.57-2.57,11.46-4.3,17.43-6.54-1-.86-1.77-1.53-2.65-2.28-1.17.34-2.46.66-3.7,1.1-1.18.42-2.26,1.17-3.53,1.3-.04-.07-.08-.15-.11-.22.19-.14.35-.31.56-.42.93-.49,1.87-.95,2.81-1.43h-.03Z"/><path class="cls-5" d="M172.11,102.03c-.66.44-.98.14-1.27-.06-.56-.39-1.07-.84-1.6-1.27-1.1-.88-2.2-1.75-3.3-2.63-1.75-1.39-3.5-2.8-5.27-4.18-1.29-1-2.65-1.92-3.93-2.94-.89-.71-1.67-1.55-2.53-2.3-.49-.42-.99-.85-1.57-1.13-1.79-.88-2.92-2.54-4.48-3.68-.25-.18-.35-.42.08-.65,1.3,1.05,2.56,2.2,3.95,3.16,1.38.95,2.74,1.89,3.97,3.05,1.24,1.17,2.62,2.2,3.97,3.25,1.35,1.05,2.75,2.04,4.09,3.09,1.32,1.03,2.59,2.12,3.9,3.16,1.3,1.03,2.49,2.18,3.99,3.12Z"/><path class="cls-5" d="M173.59,97.19c-.65-.52-1.29-1.03-1.93-1.54-2.64-2.11-5.29-4.21-7.93-6.33-2.87-2.31-5.73-4.65-8.59-6.98-1.12-.91-2.27-1.79-3.39-2.7-.24-.19-.64-.33-.43-.88.2.08.4.13.55.24,4.32,3.42,8.57,6.92,12.97,10.23,2.89,2.18,5.66,4.48,8.41,6.82.31.26.74.48.33,1.13Z"/><path class="cls-5" d="M196.13,80.91c-.99-.77-1.79-1.46-2.65-2.05-2.2-1.49-4.45-2.92-6.64-4.41-3.2-2.18-6.37-4.41-9.56-6.61-1.31-.91-2.64-1.79-3.95-2.7-.28-.2-.73-.29-.66-.9.23.06.45.06.61.16,1.46.95,2.92,1.91,4.37,2.9,2.29,1.56,4.56,3.16,6.85,4.71,3.62,2.45,7.25,4.88,10.86,7.33.37.25.7.59.96.95.23.31.07.57-.18.62Z"/><path class="cls-5" d="M195.51,82.55c-.13.09-.22.19-.32.22-2.69.72-5.08,2.19-7.67,3.15-.99.37-2.03.58-3.06.83-.19.05-.42-.07-.64-.12,0-.09,0-.18-.01-.27.34-.11.67-.25,1.02-.33,2.31-.53,4.39-1.66,6.56-2.55,1.12-.46,2.26-.86,3.4-1.28.3-.11.6-.19.73.36Z"/><path class="cls-5" d="M170.14,65.88c.83-.11,1.07.73,1.78.94,0-.57-.02-1.08-.02-1.68.9.25.45,1.04.88,1.58.68.24,1.51.53,2.53.88-1,.59-1.76-.24-2.75.03.67.66,1.23,1.22,1.99,1.97-.46-.07-.7-.03-.83-.13-1.36-1.01-2.52-2.24-3.57-3.59Z"/><path class="cls-5" d="M184.07,88.35c1.15-.59,2.17-1.31,3.3-1.67,1.78-.56,3.45-1.35,5.19-1.97.17-.06.4.07.61.11,0,.08,0,.16,0,.24-.22.12-.43.26-.66.36-2.73,1.08-5.47,2.16-8.21,3.23-.02,0-.09-.11-.25-.3Z"/><path class="cls-5" d="M167.94,67.74c.48-1.02.64-1.11,1.46-.78,1.08.43,1.63,1.44,2.34,2.26.1.11.06.52-.06.61-.21.16-.58.33-.78.25-.49-.19-.95-.48-1.36-.81-.55-.45-1.04-.99-1.61-1.53ZM170.71,69.48c.08-.09.15-.18.23-.27-.68-.59-.98-1.67-2.26-1.5.68.59,1.36,1.18,2.04,1.77Z"/><path class="cls-5" d="M168.07,71.7c-.67-.6-1.38-1.23-2.08-1.87-.24-.22-.38-.55-.12-.8.18-.18.56-.37.74-.29,1.15.5,2.31,1,3.04,2.12.19.3.41.59.15.93-.27.34-.65.36-1.04.2-.21-.09-.42-.17-.69-.28ZM169.01,71.34c-.77-1.34-1.5-1.84-2.45-1.78.73.78,1.47,1.45,2.45,1.78Z"/><path class="cls-5" d="M186.53,97.81c-3.36,1.15-6.71,2.35-10.41,2.68.12-.21.18-.46.32-.51.35-.14.73-.24,1.1-.26,2.23-.1,4.28-.9,6.38-1.55.84-.26,1.7-.43,2.55-.64l.07.28Z"/><path class="cls-5" d="M166.93,74.32c.53-.77-.17-1.16-.52-1.63-.48-.64-.99-.17-1.48.13-.45-.57-.23-1.38-.97-1.77-.65-.35-1.18-.41-1.71.18-.27-.81.07-1.31.76-1.1.67.2,1.31.59,1.85,1.04.36.3.65.55,1.13.66.85.2,1.7,1.32,1.74,2.19,0,.2-.13.41-.19.61-.2-.11-.41-.23-.61-.34v.03Z"/><path class="cls-5" d="M190.23,94.97c-2.97,1.36-6.09,2.34-9.38,3.29.11-.27.14-.51.27-.6.25-.16.55-.25.84-.34.94-.29,1.89-.54,2.83-.85,1.8-.59,3.58-1.2,5.37-1.8.02.1.05.2.07.3Z"/><path class="cls-5" d="M186.83,89.62c-.13-.3-.15-.59.15-.79.34-.23.69-.48,1.06-.65,1.51-.69,3.03-1.37,4.56-2.02.18-.08.42-.03.67-.04-.04.23-.04.35-.08.37-1.08.53-2.14,1.14-3.27,1.54-1.12.4-2.19.84-3.12,1.6,0,0,.02,0,.02,0Z"/><path class="cls-5" d="M175.04,98.57c-.42.65-.86,1.28-1.26,1.94-.44.73-.17,1.46.19,2.38-.4-.1-.74-.1-.8-.23-.2-.43-.44-.92-.4-1.37.07-.98.65-1.77,1.26-2.5.19-.22.55-.29.84-.43.06.07.12.14.18.21Z"/><path class="cls-5" d="M195.36,86.91c-.51-.98-.51-1.63-.08-2.32.26-.41.4-.9.61-1.34.16-.33.28-.71.85-.71.02.22.1.44.04.62-.19.53-.4,1.06-.66,1.57-.24.48-.5.92-.37,1.5.03.15-.19.36-.38.69Z"/><path class="cls-5" d="M166.92,74.29c-.06.21-.12.42-.22.79-1.69-1.19-3.48-2.03-5.07-3.37.55-.32.81.06,1.09.22,1.24.72,2.46,1.48,3.7,2.21.15.09.34.12.52.18,0,0,0-.04,0-.04Z"/><path class="cls-5" d="M147.06,82.58c-.13-.33-.29-.53-.24-.63.72-1.41,1.39-2.85,2.68-3.85.07.04.14.09.21.13-.44.69-.9,1.38-1.33,2.08-.42.69-.82,1.4-1.33,2.26Z"/><path class="cls-5" d="M182.28,87.87c-.18,1.05-1.16,1.91-.54,3.2-.37-.09-.59-.1-.61-.16-.13-.46-.31-.93-.29-1.39.06-.97.67-1.64,1.44-1.64Z"/><path class="cls-5" d="M153.37,75.77c-.17.96-.83,1.31-2.68,1.63.05-.22.04-.51.14-.56.78-.36,1.58-.67,2.54-1.07Z"/><path class="cls-5" d="M14.81,51.58c.34-.21.5-.39.69-.42,2.48-.44,4.96-.87,7.44-1.26.63-.1,1.29-.04,1.93-.1.93-.08,1.86-.19,2.79-.29.93-.11,1.86-.22,2.79-.34,1.68-.21,3.37-.44,5.05-.65.35-.04.7-.05,1.05-.09,1.01-.13,2.02-.27,3.03-.42,1.19-.17,2.37-.41,3.56-.49,1.87-.13,3.02-1.28,3.98-2.69.36-.53.59-1.14.88-1.72,1.12-2.25,2.15-4.55,2.96-6.93.39-1.15.75-2.32,1.14-3.53.45.42.25.86.13,1.25-.41,1.25-.79,2.51-1.3,3.72-.88,2.1-1.85,4.17-2.76,6.26-.4.92-.85,1.78-1.57,2.51-1.05,1.06-2.25,1.69-3.77,1.82-1.31.1-2.6.41-3.9.62-.46.07-.93.12-1.39.17-2.3.25-4.6.48-6.89.75-1.37.16-2.72.41-4.09.56-.99.11-1.99.06-2.98.18-1.77.22-3.53.51-5.29.77-.98.14-1.97.29-2.95.43-.1.01-.2-.04-.53-.11Z"/><path class="cls-5" d="M47.55,29.5c-.23-1.41-.45-2.64-.63-3.87-.35-2.29-.7-4.57-1.01-6.86-.16-1.16-.22-2.33-.34-3.49-.08-.78-.19-1.56-.29-2.34-.51-.27-1-.24-1.49-.12-.88.23-1.74.53-2.62.71-1.81.37-3.62.67-5.44,1.02-.69.13-1.37.29-2.06.44-2.23.46-4.46.95-6.7,1.38-1.26.24-2.54.39-3.81.6-.49.08-.96.23-1.44.32-.32.06-.66.07-.99.1-.02-.06-.04-.13-.06-.19.29-.12.58-.24.87-.35.3-.12.59-.27.9-.32,1.61-.28,3.24-.49,4.85-.79,2.04-.39,4.06-.85,6.1-1.26,2.32-.46,4.65-.89,6.97-1.36.86-.18,1.69-.48,2.54-.66.65-.13,1.33-.17,1.99-.23.52-.04.74.31.8.74.12.84.18,1.69.29,2.52.24,1.8.49,3.59.73,5.39.21,1.57.39,3.14.62,4.7.12.81.32,1.61.48,2.41.07.34.12.69.13,1.04,0,.11-.17.22-.38.48Z"/><path class="cls-5" d="M44.12,45.82c-.24.12-.47.26-.72.37-1.67.73-3.45.85-5.22,1.02-2.04.19-4.08.37-6.12.58-1.34.14-2.66.36-4,.49-1.54.15-3.09.22-4.63.37-.81.08-1.61.27-2.42.38-1.86.24-3.71.46-5.57.69-.28.03-.58.09-.74-.38.25-.05.46-.11.67-.14,2.05-.29,4.11-.59,6.17-.86,1.16-.15,2.32-.26,3.49-.38,2-.21,4.01-.41,6.01-.61,1.51-.15,3.03-.29,4.54-.44.9-.09,1.79-.27,2.7-.32,1.82-.1,3.59-.4,5.31-1.02.14-.05.31,0,.47,0,.03.08.05.17.08.25Z"/><path class="cls-5" d="M18.24,15.24c1.59-.43,3.04-1.22,4.73-1.41,3.37-.37,6.71-.9,10-1.76,2.06-.54,4.19-.82,6.29-1.2,1.99-.35,3.97-.69,5.97-1.01.43-.07.88-.04,1.31,0,.15.01.28.19.43.31-.12.11-.16.18-.21.18-2.45.17-4.87.58-7.28,1.06-1.89.38-3.8.67-5.69,1.06-1.37.29-2.72.68-4.08,1.02-.23.06-.46.11-.69.14-2.29.32-4.58.6-6.86.95-.69.1-1.35.37-2.02.57-.45.13-.89.29-1.34.39-.17.04-.37-.04-.56-.06,0-.08,0-.16,0-.25Z"/><path class="cls-5" d="M47.19,30.56c-.22.1-.42.26-.65.3-1.01.18-2.02.31-3.03.48-.92.15-1.84.34-2.76.5-1.12.19-2.3.22-3.37.57-2.24.72-4.57.63-6.84,1.03-.46.08-.93.16-1.37.3-1.8.57-3.68.68-5.53.94-.11.01-.22-.03-.47-.08.19-.16.29-.31.41-.33.75-.14,1.5-.23,2.25-.38,1.15-.23,2.28-.52,3.43-.73,1.35-.24,2.71-.44,4.07-.63.72-.1,1.46-.11,2.17-.24,2.01-.36,4.02-.77,6.03-1.13,1.7-.3,3.4-.57,5.1-.84.16-.03.33,0,.49-.01.03.08.05.16.08.25Z"/><path class="cls-5" d="M51,31.05c-.08-.16-.21-.32-.24-.49-1.13-6.5-2.96-12.89-3.26-19.57.08.13.2.25.22.39.15.83.28,1.67.41,2.5.32,1.99.62,3.98.98,5.97.53,2.9,1.11,5.8,1.66,8.7.13.66.24,1.32.35,1.98.03.15,0,.32,0,.47l-.14.03Z"/><path class="cls-5" d="M19.7,33.78c-.42-.86-3.29-15.99-3.15-16.88.4.83.65,1.59.79,2.38.64,3.5,1.25,7.01,1.88,10.52.19,1.06.46,2.11.66,3.17.05.26,0,.54,0,.81-.06,0-.13,0-.19,0Z"/><path class="cls-5" d="M22.05,33.02c-.17.22-.39.13-.5-.18-.15-.41-.27-.84-.35-1.26-.22-1.09-.42-2.18-.61-3.27-.3-1.78-.57-3.58-.88-5.36-.16-.92-.38-1.83-.55-2.75-.1-.54-.14-1.1-.18-1.65,0-.14.09-.29.28-.42.04.24.06.49.12.72.74,2.57.89,5.24,1.35,7.85.11.63.27,1.26.4,1.88.15.71.29,1.43.43,2.14.15.73.31,1.46.48,2.28Z"/><path class="cls-5" d="M35.89,44.92c-.2.14-.34.29-.52.35-2.4.71-4.86.91-7.36.84-.81-.02-1.62.14-2.43.25-.39.05-.77.27-1.3-.14.74-.2,1.36-.46,2-.52,1.1-.1,2.21-.02,3.31-.12,1.77-.16,3.57-.12,5.27-.78.27-.1.61-.27,1.02.13Z"/><path class="cls-5" d="M13.15,49.7c-.39-.63-.12-1.1.06-1.54.36-.86.76-1.71,1.16-2.56.94-1.98,1.86-3.97,2.86-5.92.6-1.16,1.36-2.24,2.07-3.41.29.34.11.64-.06.92-.53.88-1.13,1.72-1.59,2.63-.97,1.9-1.9,3.82-2.79,5.76-.6,1.31-1.12,2.67-1.72,4.12Z"/><path class="cls-5" d="M25.77,41.66c.48-.05.97-.06,1.45-.14,1.94-.35,3.88-.4,5.85-.27.54.04,1.09-.11,1.63-.2.66-.11,1.31-.26,1.98-.34.25-.03.52.1.77.16,0,.08,0,.16,0,.24-.2.06-.42.18-.61.15-.81-.12-1.56.18-2.33.32-.54.1-1.1.21-1.64.17-1.99-.15-3.96-.05-5.93.31-.38.07-.85.26-1.18-.15,0-.09,0-.17.01-.26Z"/><path class="cls-5" d="M45.5,44.47c0-.17-.06-.42.03-.5.61-.57.79-1.35,1.1-2.07.29-.67.55-1.36.95-1.97,1.19-1.84,1.81-3.92,2.61-5.93.13-.32.25-.63.52-.93,0,.14.04.29,0,.42-.54,1.58-1.06,3.16-1.67,4.71-.29.73-.79,1.37-1.13,2.07-.36.73-.65,1.5-.96,2.26-.3.73-.63,1.43-1.2,1.98l-.25-.05Z"/><path class="cls-5" d="M52.1,45.49c-.6.04-.75-.36-.82-.7-.22-1.15-.35-2.32.08-3.45.58-1.53,1.5-2.82,2.71-3.91.36-.33.78-.57,1.32-.52-1.71.65-2.38,2.24-3.2,3.63-.91,1.53-.8,3.22-.09,4.96Z"/><path class="cls-5" d="M62.09,40.43c-.18-.31-.29-.47-.37-.63-.3-.65-.73-1.19-1.38-1.53-1.16-.6-2.29-1.3-3.66-1.32-.1,0-.19-.1-.39-.21.2-.12.33-.25.46-.25.37-.01.79-.07,1.12.07,1.04.45,2.1.9,3.04,1.5.73.47,1.26,1.19,1.17,2.37Z"/><path class="cls-5" d="M61.12,40.36c-1.65,1.11-2.76,2.67-3.67,4.38-.14.26-.17.63-.64.69.43-1.38,1.18-2.5,2.06-3.53.51-.6,1.07-1.15,1.64-1.69.23-.22.53-.31.62.16Z"/><path class="cls-5" d="M52,42.13c1.12-.98,2.41-.99,3.73-.65,1.49.39,1.66.53,1.82,1.31-1.79-1.11-3.62-1.36-5.55-.67Z"/><path class="cls-5" d="M62.1,40.66c.11.49-.14.69-.31.89-.68.8-1.38,1.58-2.06,2.38-.41.49-.79,1.01-1.21,1.49-.23.26-.52.47-.86.24,1.47-1.65,2.92-3.28,4.45-5Z"/><path class="cls-5" d="M56.78,45.91c-.91,1.22-3.7,1.23-4.66.04.59.15,1.06.33,1.55.37.54.05,1.1.02,1.65-.05.49-.07.97-.24,1.46-.36Z"/><path class="cls-5" d="M35.16,17.58c-.75,1.71-1.5,3.41-2.26,5.12.23-1.94,1.18-3.57,2.26-5.12Z"/><path class="cls-5" d="M38.01,40.86c.31,1.06-.31,2.55-1.51,3.76.29-1.33,1.41-2.33,1.51-3.76Z"/><path class="cls-5" d="M35.08,26.27c.94-1.72,1.88-3.43,2.82-5.15-.65,1.89-1.61,3.6-2.82,5.15Z"/><path class="cls-5" d="M54.02,46.21c-.73-.9-.54-2.91.28-3.55-.45,1.1-.34,2.24-.28,3.55Z"/><path class="cls-5" d="M24.51,42.45c-.32.98-.64,1.96-.99,3.03-.12-.14-.3-.28-.28-.35.32-.95.48-1.98,1.27-2.68Z"/><path class="cls-5" d="M13.04,50.03c.26.7.47,1.28.7,1.89-.35.17-.53-.02-.64-.25-.21-.48-.44-.98-.06-1.64Z"/><path class="cls-5" d="M33.38,29.27c.34-.86.85-1.64,1.45-2.37-.08.17-.16.34-.24.51-.33.66-.65,1.32-.98,1.98-.07-.04-.15-.08-.22-.12Z"/><path class="cls-5" d="M38.84,20.22c-.17.19-.35.37-.52.56-.04-.03-.08-.06-.12-.08.14-.2.29-.41.43-.61.07.05.14.09.21.14Z"/><path class="cls-5" d="M152.08,15.49c2.33.66,4.43,2.53,5.42,5.52.49,1.48.4,3.02-.2,4.5-.75,1.85-1.72,3.58-3.26,4.89-2.57,2.19-3.56,5.02-3.57,8.29,0,.25,0,.49-.03.74-.33,2.61-1.9,3.47-4.3,2.37-2.95-1.36-2.75-1.38-2.14-4.51.2-1.02.45-2.02.68-3.03.37-1.57-.18-2.9-1.07-4.16-.57-.81-1.13-1.62-1.58-2.5-1.41-2.75-1.11-5.45.47-8.03,1.26-2.06,3.1-3.43,5.37-4.23,1.04-.37,1.97-.35,4.21.16ZM150.36,34.04c.69-1.76,2.01-3.26,3.51-4.65,1.14-1.05,1.89-2.38,2.52-3.79,1.09-2.4.77-4.55-.86-6.62-2.41-3.07-5.89-3.82-9.29-1.94-3.84,2.13-6.06,7.36-2.56,11.9,1.14,1.48,1.81,3.01,1.89,4.54,1.47,1.19,2.98.99,4.78.56ZM145.28,35.64c.72.3,1.3.6,1.91.77.55.16,1.14.18,1.71.26,0,.1.01.21.02.31-.16.08-.33.26-.47.24-1.1-.19-2.2-.43-3.4-.67-.26,1.02-.51,2.05-.76,3.04.7.77,1.32,1.31,2.43.69.57-.32,1.38-.21,2.25-.32-.54,1.21-1.75.41-2.34,1.05,1.68.88,2.53.58,2.84-1.18.29-1.58.33-3.2.49-4.88-.83.03-1.58.15-2.3.05-.75-.11-1.46-.43-2.24-.68-.05.45-.09.83-.15,1.32Z"/><path class="cls-5" d="M169.99,8.71c.54.62.4.89-.12,1.15-1.42.7-2.82,1.43-4.22,2.17-.78.41-1.55.85-2.33,1.28-.33.18-.64.54-1.11-.04,2.32-2.04,5.3-2.89,7.78-4.56Z"/><path class="cls-5" d="M155.13,9.03c-.06-.66-.15-.95-.09-1.21.49-2.51,1.01-5.01,1.53-7.51.02-.09.23-.13.56-.3-.22,2.93-.82,5.64-1.28,8.36-.03.17-.3.3-.71.67Z"/><path class="cls-5" d="M160.65,8.83c.1-1.39,2.1-4.43,3.46-5.3-.85,2.1-2.15,3.51-3.46,5.3Z"/><path class="cls-5" d="M152.83,24.72c-.3.43-.52.88-.87,1.18-.2.17-.71.21-.92.07-.18-.12-.26-.61-.18-.88.12-.41.42-.77.65-1.14q-.94-.31-1.1.51c-.03.14.02.36-.06.43-.24.2-.55.48-.8.45-.21-.03-.44-.42-.54-.7-.13-.38.5-.9-.28-1.32-.21.7-.4,1.32-.56,1.86-1.16.32-1.35-.47-1.58-1.19-.55.55-.51,1.06-.16,1.54.38.52.81.99,1.23,1.48.89,1.04,1.07,2.98.36,4.16-.08.14-.28.21-.7.52.21-.85.41-1.38.47-1.93.13-1.15-.2-2.14-1.12-2.91-.26-.22-.49-.49-.73-.73-.63-.64-.76-1.38-.36-2.17.4-.78.94-1.41,1.93-1.35.72.04,1.49-.21,2.12.38.09.09.3.15.42.11,1.35-.48,2.23.5,3.22,1.04,1.19.65,1.29,1.53.41,2.54-.26.3-.53.6-.86.82-1.09.71-2.07,1.49-2.5,2.79-.05.15-.37.22-.57.32-.06-.25-.25-.57-.16-.74.49-.9.95-1.81,1.96-2.34.63-.33,1.17-.89,1.67-1.43.53-.58.36-1.06-.39-1.34Z"/><path class="cls-5" d="M145.01,38.31c.67.08,1.34.2,2.01.21.61.01,1.22-.09,1.92-.15-.59.95-2.65.96-3.93-.06Z"/><path class="cls-2" d="M22.01,76.7c1.57-.47,16.53-2.99,20.1-2.89.8-.12.63,3.06.8,4.08.17,1.01.95,11.44,1.11,12.87.16,1.36,1.11,8.72,1.15,9.7.04.99-5.22.93-7.48,1.36-2.29.44-10.5.97-11.71,1.04-1.2.07-1.62.64-1.88-.6s-1.75-11.22-1.94-12.05c-.18-.84-1.79-10.6-1.99-11.69-.26-1.44.22-1.59,1.83-1.82Z"/><path class="cls-5" d="M24.56,102.9c.92-.12,1.84-.26,2.76-.36,1.24-.14,2.48-.26,3.72-.37.54-.05,1.08-.06,1.62-.04,2.11.07,4.17-.3,6.23-.69.93-.18,1.87-.27,2.8-.41,1.03-.16,2.06-.32,3.17-.5-.01-.44.02-.77-.03-1.08-.72-3.99-.95-8.04-1.3-12.07-.15-1.71-.4-3.42-.48-5.14-.1-2.13-.28-4.24-.65-6.34-.07-.4-.07-.81-.08-1.21-.01-.54-.29-.7-.88-.58.07,1.04.14,2.07.22,3.09.1,1.28.22,2.55.34,3.83.29,3.09.78,6.16.84,9.27.02,1.14.31,2.27.47,3.4.25,1.7.49,3.41.73,5.11.04.3.22.68-.33.88-.08-.17-.21-.32-.23-.49-.38-2.88-.78-5.75-1.1-8.64-.18-1.61-.21-3.23-.36-4.84-.33-3.53-.69-7.05-1.04-10.58-.02-.23-.09-.46-.16-.83-3.33.1-6.63.53-9.91,1-3.28.47-6.53,1.14-9.95,1.75.3-.49.68-.51,1-.58,1.48-.33,2.96-.7,4.46-.94,2.63-.43,5.27-.79,7.91-1.14,2.11-.27,4.22-.48,6.34-.69.69-.07,1.41-.23,1.99.1,1.22,8.99,1.32,18.02,2.87,26.9-.92.54-1.91.61-2.86.76-1.96.31-3.94.56-5.91.83-.94.12-1.88.33-2.81.29-1.7-.06-3.36.14-5.04.33-1.1.13-2.21.24-3.31.34-.34.03-.69,0-1.03-.01,0-.11,0-.23-.01-.34Z"/><path class="cls-5" d="M20.32,77.37c1.31,8.38,2.67,16.75,4.1,25.25-.64-.19-.6-.56-.65-.87-.26-1.57-.49-3.13-.75-4.7-.65-3.93-1.31-7.85-1.96-11.78-.41-2.46-.82-4.92-1.21-7.39-.03-.17.07-.37.1-.55.12.01.24.02.37.04Z"/><path class="cls-5" d="M35.82,83.41c-.19-1.02-.39-2.06-.6-3.21-1.37.05-2.68.05-3.98.17-1.29.12-2.56.38-3.9.43.13-.11.25-.27.4-.3,1.16-.23,2.31-.51,3.48-.64,1.1-.12,2.22-.09,3.34-.12,1.11-.02,1.11,0,1.31,1.05.12.63.31,1.24.43,1.87.08.41.07.83.11,1.36-1.65.27-3.21.13-4.73.33-1.5.19-2.99.46-4.59.72-.31-1.2-.55-2.39-.73-3.6.11-.02.22-.05.33-.07.25,1.02.5,2.03.76,3.1.15,0,.32.02.48-.02,2.48-.54,5.01-.69,7.54-.87.09,0,.17-.09.36-.2Z"/><path class="cls-2" d="M.4,90.55c.95-.55,14.65-8.88,16.19-9.58.7-.4,1.08.38,1.62,1.26.53.88,6.65,11.59,7.38,12.75.73,1.16,4.32,6.68,4.72,7.58s-2.94,2.73-4.94,3.86c-2,1.14-9.13,5.25-10.22,5.76-1.09.51-1.21.99-1.9-.07-.7-1.05-5.81-9.59-6.29-10.3-.48-.71-5.71-9-6.33-9.93-.62-.93-.55-1.14-.22-1.34Z"/><path class="cls-5" d="M14.46,112.19c.28-.2.53-.48.83-.59,1.91-.7,3.64-1.78,5.43-2.71.81-.42,1.59-.9,2.37-1.36,2-1.19,4-2.38,6-3.57.17-.1.33-.23.49-.35.58-.45.58-.47.24-1.19-.4-.09-.77-.17-1.14-.25.09-.3.19-.59.34-1.08-.17-.15-.47-.41-.8-.71-.11-.36-.22-.81-.39-1.23-.15-.37-.42-.56-.88-.5-.21.03-.51-.14-.65-.31-.06-.07.14-.39.23-.59.04-.09.11-.16.2-.29-.19-.34-.38-.69-.57-1.05-.4.07-.75.12-1.09.18-.4-.64.19-.88.39-1.21-.13-.95-.91-.45-1.52-.67.19-.37.35-.67.52-1q-.37-1.11-1.55-1.33c.03-.24.06-.48.11-.72.05-.21.13-.4.23-.72-.44.05-.73.11-1.02.1-.21-.01-.52-.09-.59-.24-.08-.16.02-.46.13-.64.11-.19.34-.31.49-.45-.01-1.25-1.16-.45-1.68-1.01.22-.33.45-.68.71-1.07-.08-.15-.19-.35-.31-.59-.38.12-.72.22-1.08.33-.42-.45-.24-.8.05-1.18.34-.45.25-.59-.29-.68-.39-.06-.78-.15-1.37-.27.35-.44.58-.73.84-1.06-.12-.17-.26-.36-.32-.45-.5-.08-.9-.14-1.3-.2.11-.36.23-.72.39-1.22-.07-.12-.21-.38-.37-.65-.21.18-.38.33-.56.48-.05-.02-.09-.04-.14-.06.08-.29.16-.57.28-.98-2.98,1.35-5.67,3.06-8.42,4.64-2.77,1.59-5.43,3.37-8.25,5.13.22.42.43.87.69,1.29.59.94,1.21,1.86,1.81,2.79,1.35,2.1,2.72,4.18,4.02,6.31,1.75,2.88,3.42,5.81,5.15,8.71.43.72.94,1.4,1.41,2.1.16.24.45.46.12.78-.46.09-.55-.29-.71-.57-1.21-2.07-2.36-4.18-3.62-6.21-1.85-2.98-3.78-5.92-5.67-8.87-.27-.43-.52-.87-.79-1.3-.7-1.11-1.41-2.22-2.11-3.33-.2-.31-.38-.64-.53-.98-.39-.88-.33-1.06.48-1.56,1.12-.68,2.27-1.33,3.39-2.01,1.84-1.12,3.66-2.28,5.51-3.38,1.83-1.08,3.68-2.12,5.53-3.17.73-.41,1.47-.81,2.16-1.18.41.24.7.48,1.04.59.57.19,1.09.38,1.14,1.1,0,.1.13.24.23.27.72.22.89.78.89,1.42,0,.42.17.68.51.91.21.14.46.42.46.63-.01.67.4.95.89,1.22.11.06.24.16.28.28.36.98.71,1.97,1.13,3.14.36.22.93.51,1.13,1.21.05.18.35.29.54.43.58.45.9,1.04.76,1.76-.07.38.05.6.2.91.22.46.21,1.04.45,1.49.24.46.74.78.98,1.24.18.34.33.62.7.78.56.24.92.64.93,1.32,0,.23.18.5.36.66.58.55.93,1.13.61,1.98-.08.22.09.56.19.82.28.7.21.94-.43,1.33-2.89,1.74-5.74,3.56-8.7,5.19-1.8.98-3.51,2.17-5.5,2.78-.5.15-.95.46-1.43.7-.07-.09-.13-.18-.2-.26ZM24.94,91.7c-.15.23-.45.5-.41.68.11.4.38.77.62,1.12.07.1.35.18.45.12.15-.08.3-.29.31-.45.06-.67-.24-1.15-.98-1.46ZM27.85,98.1c.24.41.43.78.67,1.12.07.09.32.15.42.1.11-.06.19-.26.19-.41,0-.56-.39-.82-1.29-.81ZM19.03,82.9c.27.52.49,1.04,1.12,1.26.1-1.27-.09-1.49-1.12-1.26ZM29.01,99.85c.25.8.57,1.28,1.12,1.66.12-.98.02-1.15-1.12-1.66ZM21.34,86.46c.33.63.4,1.2,1.11,1.29q.02-.82-1.11-1.29ZM23,89.7c.29-.93.27-.97-.59-1.18.22.45.4.81.59,1.18ZM23.64,90.27q.12.8,1.01.71c-.43-.3-.72-.51-1.01-.71ZM18.57,82.34c.45-.17.58-.41.41-.68-.16-.25-.44-.38-.83-.19.14.3.27.56.41.88ZM25.68,94.45c.16.28.33.57.49.85q.09-.64-.49-.85ZM20.91,85.82c.07-.03.15-.07.22-.1.02-.43-.06-.79-.8-.91.25.43.41.72.58,1.01ZM27.31,97.33c.08-.04.17-.09.25-.13l-.58-.91c-.06.03-.11.07-.17.1l.5.94ZM22.88,90.48c-.47-.39-.67-.29-.8.05-.01.04.05.11.1.21.18-.07.37-.14.7-.27ZM19.61,85.15c.03-.06.06-.11.1-.17-.08-.09-.15-.24-.24-.25-.12-.01-.25.08-.6.21.41.11.58.16.75.2ZM21.48,88.21c-.09.08-.15.15-.21.21.09.06.18.13.28.16.02,0,.13-.13.12-.2,0-.06-.11-.11-.19-.17Z"/><path class="cls-5" d="M16.19,90.54c-1-.47-1.22-1.43-1.87-2.17-2.36,1.07-4.63,2.31-6.75,3.88-.25-.55.12-.7.33-.83,1.37-.87,2.75-1.71,4.14-2.54.61-.36,1.24-.68,1.86-1.02.33-.18.64-.24.88.12.45.67.9,1.34,1.33,2.02.06.1.04.25.07.55Z"/><path class="cls-5" d="M9.94,94.79c.18-.8,2.52-2.5,5.21-3.7.16-.07.37-.01.6.18-1.95,1.18-3.89,2.36-5.81,3.53Z"/><path class="cls-5" d="M6.98,92.44c.64.84,1.28,1.68,1.98,2.6-.79-.03-1.96-1.48-2.16-2.49l.18-.12Z"/><path class="cls-6" d="M55.86,93.72c1.21.84-.57,2.43-.02,3.35-2.26,3.64-4.95,7.07-7.51,10.55-.84,1.14-1.67,2.58-2.53,3.39-1.06,1-2.74,1.22-3.43,2.61-.37.06-.24.07-.59-.05-.36.27-.33,1-.91,1.01-.44-.7.81-1.64,1.24-2.18.28-.84.39-1.88.8-2.57.13-.44-.1-.58-.05-.96,2.59-1.78,4.18-4.71,6.18-7.18-.23-.21-.76-.17-.8-.54.38-.3,1.04-.26,1.47-.49.96-.92.32-2.45.76-3.65.47-1.29,2.19-1.85,3.71-1.51.65-.49.72-1.67,1.69-1.78ZM54.62,95.9c.24.09.32.32.7.29.16-.59.53-.94.49-1.76-.66.18-.84.92-1.19,1.46ZM51.03,98.97c.44-1.13,1.71-1.98,1.79-3.09-1.08.39-2.24,1.36-1.79,3.09ZM48.13,104.02c.33.46.61.96,1.35,1.06,2.12-2.41,3.75-5.39,5.76-7.93-.55-.34-.9-.86-1.59-1.08-1.74,2.76-3.58,5.42-5.52,7.95ZM43.78,109.19c.5.42.91.92,1.58,1.2,1.27-1.55,2.49-3.15,3.71-4.74-.62-.25-.87-.81-1.47-1.07-1.15,1.69-2.53,3.1-3.82,4.61ZM42.72,112.1c.74-.26,1.26-.77,1.89-1.17-.12-.6-.62-.87-1.11-1.16-.43.77-.43,1.37-.78,2.33Z"/></g></svg>