<?xml version="1.0" encoding="UTF-8"?><svg id="_レイヤー_2" xmlns="http://www.w3.org/2000/svg" viewBox="0 0 86.74 86.74"><defs><style>.cls-1{fill:#013b5c;}.cls-1,.cls-2,.cls-3{stroke-width:0px;}.cls-2{fill:#fff;}.cls-3{fill:#016daa;}</style></defs><g id="_レイヤー_1-2"><rect class="cls-2" width="86.74" height="86.74" rx="10" ry="10"/><path class="cls-1" d="M61.09,41l7.78-7.78c.54-.54.54-1.41,0-1.95l-1.56-1.56c-.54-.54-1.41-.54-1.95,0l-7.78,7.78-7.05-7.05,7.78-7.78c.54-.54.54-1.41,0-1.95l-1.56-1.56c-.54-.54-1.41-.54-1.95,0l-7.78,7.78-4.06-4.06-3.31,3.31,22.2,22.2,3.31-3.31-4.06-4.06Z"/><path class="cls-3" d="M34.03,31.79c-3.99,3.99-5.04,9.79-3.18,14.75l-2.14,2.14c-1.03,1.03-1.03,2.69,0,3.72l6.91,6.91c1.03,1.03,2.69,1.03,3.72,0l2.14-2.14c4.96,1.87,10.76.81,14.75-3.18l4.11-4.11-22.2-22.2-4.11,4.11Z"/><rect class="cls-3" x="25.36" y="56.23" width="5.97" height="6.89" transform="translate(50.5 -2.57) rotate(45)"/></g></svg>