<?xml version="1.0" encoding="UTF-8"?><svg id="_レイヤー_2" xmlns="http://www.w3.org/2000/svg" viewBox="0 0 86.74 86.74"><defs><style>.cls-1{fill:#013b5c;}.cls-1,.cls-2,.cls-3{stroke-width:0px;}.cls-2{fill:#fff;}.cls-3{fill:#016daa;}</style></defs><g id="_レイヤー_1-2"><rect class="cls-2" width="86.74" height="86.74" rx="10" ry="10"/><rect class="cls-3" x="24.4" y="31.71" width="27.93" height="20.31" rx="1.96" ry="1.96"/><path class="cls-1" d="M27.85,37.12v3.1l5.06-5.06h-3.1c-1.08,0-1.96.88-1.96,1.96Z"/><rect class="cls-1" x="23.82" y="59.56" width="4.85" height="2.04"/><rect class="cls-1" x="58.06" y="59.56" width="4.85" height="2.04"/><path class="cls-1" d="M65.3,25.33H21.44c-1.68,0-3.04,1.36-3.04,3.04v27.13c0,1.68,1.36,3.04,3.04,3.04h43.87c1.68,0,3.04-1.36,3.04-3.04v-27.13c0-1.68-1.36-3.04-3.04-3.04ZM52.32,50.07c0,1.08-.88,1.96-1.96,1.96h-24.02c-1.08,0-1.96-.88-1.96-1.96v-16.4c0-1.08.88-1.96,1.96-1.96h24.02c1.08,0,1.96.88,1.96,1.96v16.4ZM57.69,51.82c-.8,0-1.45-.65-1.45-1.45s.65-1.45,1.45-1.45,1.45.65,1.45,1.45-.65,1.45-1.45,1.45ZM57.69,46.07c-.8,0-1.45-.65-1.45-1.45s.65-1.45,1.45-1.45,1.45.65,1.45,1.45-.65,1.45-1.45,1.45ZM63.51,51.82c-.8,0-1.45-.65-1.45-1.45s.65-1.45,1.45-1.45,1.45.65,1.45,1.45c0,.8-.65,1.45-1.45,1.45ZM63.51,46.07c-.8,0-1.45-.65-1.45-1.45s.65-1.45,1.45-1.45,1.45.65,1.45,1.45c0,.8-.65,1.45-1.45,1.45ZM64.97,36.57h-8.69v-4.6h8.69v4.6Z"/></g></svg>