<?xml version="1.0" encoding="UTF-8"?><svg id="_レイヤー_2" xmlns="http://www.w3.org/2000/svg" viewBox="0 0 86.74 86.74"><defs><style>.cls-1{fill:#013b5c;}.cls-1,.cls-2,.cls-3{stroke-width:0px;}.cls-2{fill:#fff;}.cls-3{fill:#016daa;}</style></defs><g id="_レイヤー_1-2"><rect class="cls-2" width="86.74" height="86.74" rx="10" ry="10"/><path class="cls-3" d="M57.68,32.81c0-.22-.14-.43-.35-.51,0,0-3.63-4.74-11.97-4.74h-1.84c-8.34,0-11.97,4.74-11.97,4.74-.21.08-.35.28-.35.51v1.14h26.47v-1.14h0Z"/><path class="cls-3" d="M44.29,23.17c-1.77,0-3.21,1.44-3.21,3.21h6.42c0-1.77-1.44-3.21-3.21-3.21Z"/><path class="cls-1" d="M70.55,40.51c-.32-.83-.76-1.57-1.3-2.18-.8-.93-1.81-1.59-2.88-2.01-1.07-.42-2.2-.59-3.32-.59-.96,0-1.92.13-2.84.37-.72.19-1.42.44-2.08.76l-.46-1.68h-26.47l-1.51,5.56-8.02-6.33-6.07,1.44,11.61,14.03-1.85,6.81c-.45,1.64-.1,3.4.93,4.75,1.03,1.35,2.63,2.14,4.33,2.14h27.61c1.7,0,3.3-.79,4.33-2.14,1.03-1.35,1.38-3.1.93-4.75l-.69-2.54c2.35-.92,4.34-2.35,5.8-4.09.78-.93,1.4-1.95,1.83-3.04.43-1.09.67-2.24.67-3.42,0-1.03-.19-2.08-.58-3.08ZM66.9,46.45c-.76,1.42-2.09,2.78-3.84,3.76-.37.21-.75.39-1.15.57l-2.84-10.49c.33-.19.69-.37,1.07-.52.93-.36,1.96-.57,2.92-.57.5,0,.98.05,1.43.16.67.16,1.24.43,1.71.81.24.19.45.41.63.67s.35.56.49.92c.23.61.34,1.21.34,1.83,0,.94-.25,1.9-.76,2.85Z"/></g></svg>