<?xml version="1.0" encoding="UTF-8"?><svg id="_レイヤー_2" xmlns="http://www.w3.org/2000/svg" viewBox="0 0 86.74 86.74"><defs><style>.cls-1{fill:#013b5c;}.cls-1,.cls-2{stroke-width:0px;}.cls-2{fill:#fff;}</style></defs><g id="_レイヤー_1-2"><rect class="cls-2" width="86.74" height="86.74" rx="10" ry="10"/><path class="cls-2" d="M56.57,61.87c0,.95-.38,1.79-1,2.42-.63.62-1.47,1-2.42,1h-18.02c-.95,0-1.79-.38-2.42-1-.62-.63-1-1.47-1-2.42v-17.3h24.87v17.3h0Z"/><path class="cls-2" d="M56.57,41.66h-24.87v-17.3c0-.95.38-1.79,1-2.42.63-.62,1.47-1,2.42-1h18.02c.95,0,1.79.38,2.42,1,.62.63,1,1.47,1,2.42v17.3h0Z"/><path class="cls-1" d="M58.21,19.3c-1.29-1.29-3.09-2.1-5.06-2.09h-18.02c-1.97,0-3.77.8-5.06,2.09-1.29,1.29-2.1,3.09-2.1,5.06v37.5c0,1.97.8,3.77,2.1,5.06,1.29,1.29,3.09,2.1,5.06,2.1h18.02c1.97,0,3.77-.8,5.06-2.1,1.29-1.29,2.1-3.09,2.1-5.06V24.36c0-1.97-.8-3.77-2.1-5.06ZM56.57,61.87c0,.95-.38,1.79-1,2.42-.63.62-1.47,1-2.42,1h-18.02c-.95,0-1.79-.38-2.42-1-.62-.63-1-1.47-1-2.42v-17.3h24.87v17.3h0ZM56.57,41.66h-24.87v-17.3c0-.95.38-1.79,1-2.42.63-.62,1.47-1,2.42-1h18.02c.95,0,1.79.38,2.42,1,.62.63,1,1.47,1,2.42v17.3h0Z"/><rect class="cls-1" x="35.74" y="28.47" width="1.66" height="5.8"/><rect class="cls-1" x="35.74" y="51.96" width="1.66" height="5.8"/></g></svg>