<?xml version="1.0" encoding="UTF-8"?><svg id="_レイヤー_2" xmlns="http://www.w3.org/2000/svg" viewBox="0 0 86.74 86.74"><defs><style>.cls-1{fill:#013b5c;}.cls-1,.cls-2,.cls-3{stroke-width:0px;}.cls-2{fill:#fff;}.cls-3{fill:#016daa;}</style></defs><g id="_レイヤー_1-2"><rect class="cls-2" width="86.74" height="86.74" rx="10" ry="10"/><path class="cls-3" d="M63.03,38.44c-.24,0-.48.03-.71.07l-14.02-14.93c.08-.31.12-.62.12-.95,0-2.14-1.74-3.88-3.88-3.88s-3.88,1.74-3.88,3.88c0,.31.04.61.11.9l-2.29,2.38-3.8-3.87-15.38,9.65,5.05,5.14c-.56,1.51-.25,3.27.95,4.5,1.21,1.23,2.96,1.56,4.48,1.03l5.05,5.14,9.91-15.21-3.34-3.39,2.37-2.46c.25.05.5.08.76.08.24,0,.48-.02.71-.07l14.03,14.93c-.08.31-.12.62-.12.95,0,.94.34,1.81.9,2.48l-4.74,15.67h-20.98c-2.4,0-4.35,1.94-4.35,4.35s1.95,4.35,4.35,4.35h21.43c2.4,0,4.35-1.95,4.35-4.35,0-1.01-.36-1.93-.94-2.67l4.86-16.09c1.66-.44,2.88-1.95,2.88-3.74,0-2.14-1.74-3.88-3.88-3.88ZM44.54,24.48c-1.03,0-1.86-.83-1.86-1.86s.83-1.85,1.86-1.85,1.85.83,1.85,1.85c0,1.03-.83,1.86-1.85,1.86ZM63.03,44.17c-1.02,0-1.85-.83-1.85-1.86s.83-1.86,1.85-1.86,1.86.83,1.86,1.86-.83,1.86-1.86,1.86Z"/><path class="cls-1" d="M26.34,46.79c-.44,0-.79.36-.79.79v4.38c0,.44.36.8.79.8s.79-.36.79-.8v-4.38c0-.44-.36-.79-.79-.79Z"/><path class="cls-1" d="M19.98,40.43c0-.44-.36-.8-.79-.8h-4.38c-.44,0-.79.36-.79.8s.36.79.8.79h4.38c.44,0,.79-.35.79-.79Z"/><path class="cls-1" d="M20.72,44.93l-3.09,3.09c-.31.31-.31.81,0,1.13.31.31.81.31,1.13,0l3.09-3.1c.31-.31.31-.81,0-1.12-.31-.31-.81-.31-1.12,0Z"/></g></svg>