<?xml version="1.0" encoding="UTF-8"?><svg id="_レイヤー_2" xmlns="http://www.w3.org/2000/svg" viewBox="0 0 299.34 226.29"><defs><style>.cls-1{stroke:#013b5c;stroke-width:.5px;}.cls-1,.cls-2,.cls-3,.cls-4,.cls-5,.cls-6,.cls-7{stroke-miterlimit:10;}.cls-1,.cls-3,.cls-4,.cls-7{fill:none;}.cls-2{fill:#e3d6b3;}.cls-2,.cls-3,.cls-4,.cls-5,.cls-6,.cls-7{stroke:#000;}.cls-2,.cls-5,.cls-6,.cls-7{stroke-width:.25px;}.cls-3{stroke-dasharray:0 0 2.06 2.06;}.cls-5,.cls-8{fill:#fff;}.cls-9{fill:#ffeca3;}.cls-9,.cls-10,.cls-11,.cls-8,.cls-12,.cls-13,.cls-14{stroke-width:0px;}.cls-6{fill:#7d7d7d;}.cls-10{fill:#d3ebd3;}.cls-11{fill:#013b5c;}.cls-12{fill:#ffcfd8;}.cls-13{fill:#5e5e5e;}.cls-14{fill:#d3f2ef;}</style></defs><g id="_コンテンツ"><polygon class="cls-8" points="15.28 67.45 15.28 69.33 15.28 206.91 280.97 206.91 280.97 69.19 287.29 69.19 287.29 2.65 15.28 2.65 15.28 67.45"/><rect class="cls-10" x="21.45" y="171.98" width="28.77" height="37.34" transform="translate(-154.82 226.48) rotate(-90)"/><rect class="cls-10" x="20.39" y="142.39" width="28.77" height="35.22" transform="translate(-125.23 194.77) rotate(-90)"/><rect class="cls-10" x="108.53" y="132.71" width="33.22" height="37.34"/><rect class="cls-10" x="20.39" y="111.75" width="28.77" height="35.22" transform="translate(-94.58 164.13) rotate(-90)"/><rect class="cls-10" x="20.39" y="81.1" width="28.77" height="35.22" transform="translate(-63.94 133.48) rotate(-90)"/><rect class="cls-10" x="109.65" y="98.73" width="29.11" height="35.1" transform="translate(7.92 240.48) rotate(-90)"/><rect class="cls-10" x="109.65" y="67.75" width="29.11" height="35.1" transform="translate(38.9 209.5) rotate(-90)"/><rect class="cls-14" x="146.63" y="113.78" width="29.11" height="35.1" transform="translate(29.85 292.51) rotate(-90)"/><rect class="cls-14" x="192.94" y="135.26" width="120.71" height="18.84" transform="translate(108.61 397.97) rotate(-90)"/><rect class="cls-14" x="146.63" y="82.8" width="29.11" height="35.1" transform="translate(60.83 261.53) rotate(-90)"/><rect class="cls-10" x="20.39" y="50.45" width="28.77" height="35.22" transform="translate(-33.29 102.83) rotate(-90)"/><rect class="cls-10" x="20.39" y="19.81" width="28.77" height="35.22" transform="translate(-2.65 72.19) rotate(-90)"/><rect class="cls-12" x="90.91" y="4.53" width="28.77" height="35.22"/><rect class="cls-12" x="121.56" y="4.53" width="28.77" height="35.22"/><rect class="cls-9" x="152.2" y="13.99" width="133.21" height="15.33"/><rect class="cls-9" x="223.52" y="57.96" width="33.54" height="24.49"/><rect class="cls-2" x="-77.37" y="112.38" width="187.18" height="1.88" transform="translate(-97.1 129.54) rotate(-90)"/><rect class="cls-2" x="17.16" y="205.03" width="37.34" height="1.88" transform="translate(71.66 411.94) rotate(180)"/><rect class="cls-13" x="15.28" y="206.91" width="39.22" height="3.78" transform="translate(69.79 417.6) rotate(180)"/><rect class="cls-13" x="54.5" y="206.91" width="104.3" height="3.78" transform="translate(213.3 417.6) rotate(180)"/><rect class="cls-13" x="201.36" y="206.91" width="77.73" height="3.78" transform="translate(480.45 417.6) rotate(180)"/><rect class="cls-2" x="17.16" y="174.39" width="37.34" height="1.88" transform="translate(71.66 350.65) rotate(180)"/><rect class="cls-2" x="17.16" y="143.74" width="35.22" height="1.88" transform="translate(69.54 289.36) rotate(180)"/><rect class="cls-2" x="17.16" y="113.09" width="35.22" height="1.88" transform="translate(69.54 228.07) rotate(180)"/><rect class="cls-2" x="17.16" y="82.45" width="35.22" height="1.88" transform="translate(69.54 166.77) rotate(180)"/><rect class="cls-2" x="17.16" y="51.8" width="35.22" height="1.88" transform="translate(69.54 105.48) rotate(180)"/><rect class="cls-2" x="17.16" y="21.16" width="35.22" height="1.88" transform="translate(69.54 44.19) rotate(180)"/><rect class="cls-5" x="26.76" y="19.19" width="25.62" height="1.88" transform="translate(79.14 40.26) rotate(180)"/><rect class="cls-13" x="1.63" y="193.26" width="12.02" height="15.28" transform="translate(-193.26 208.54) rotate(-90)"/><rect class="cls-13" x="17.16" y="2.65" width="9.6" height="14.56"/><rect class="cls-13" x="145.15" y="193.26" width="12.02" height="15.28" transform="translate(-49.74 352.06) rotate(-90)"/><rect class="cls-13" x="282.6" y="193.26" width="12.02" height="15.28" transform="translate(87.71 489.51) rotate(-90)"/><rect class="cls-13" x="6.64" y="202.04" width="3.78" height="13.52" transform="translate(-200.27 217.33) rotate(-90)"/><polygon class="cls-13" points="12.15 69.04 0 69.04 0 84.32 12.15 84.32 12.15 194.89 15.28 194.89 15.28 84.32 15.28 69.04 15.28 2.65 12.15 2.65 12.15 69.04"/><rect class="cls-7" x="7.68" y="10.25" width="17.08" height="1.88" transform="translate(5.03 27.41) rotate(-90)"/><rect class="cls-2" x="10.97" y="182.46" width="28.77" height="16.38" transform="translate(-165.3 216) rotate(-90)"/><rect class="cls-2" x="10.97" y="151.81" width="28.77" height="16.38" transform="translate(-134.65 185.35) rotate(-90)"/><rect class="cls-2" x="10.97" y="121.17" width="28.77" height="16.38" transform="translate(-104 154.71) rotate(-90)"/><rect class="cls-2" x="10.97" y="90.52" width="28.77" height="16.38" transform="translate(-73.36 124.06) rotate(-90)"/><rect class="cls-7" x="217.55" y="143.49" width="124.96" height="1.88" transform="translate(135.6 424.46) rotate(-90)"/><rect class="cls-6" x="272.71" y="73.69" width="14.63" height="1.88" transform="translate(205.4 354.66) rotate(-90)"/><rect class="cls-6" x="253.08" y="34.98" width="66.54" height="1.88" transform="translate(250.43 322.27) rotate(-90)"/><rect class="cls-6" x="279.09" y="67.32" width="8.2" height="1.88"/><rect class="cls-2" x="241.75" y="205.03" width="37.34" height="1.88"/><rect class="cls-2" x="241.75" y="174.39" width="37.34" height="1.88"/><rect class="cls-2" x="243.87" y="143.74" width="35.22" height="1.88"/><rect class="cls-2" x="243.87" y="113.09" width="35.22" height="1.88"/><rect class="cls-2" x="223.75" y="82.45" width="55.34" height="1.88"/><rect class="cls-2" x="256.52" y="182.46" width="28.77" height="16.38" transform="translate(80.25 461.55) rotate(-90)"/><rect class="cls-2" x="256.52" y="151.81" width="28.77" height="16.38" transform="translate(110.9 430.9) rotate(-90)"/><rect class="cls-2" x="256.52" y="121.17" width="28.77" height="16.38" transform="translate(141.54 400.26) rotate(-90)"/><rect class="cls-2" x="256.52" y="90.52" width="28.77" height="16.38" transform="translate(172.19 369.61) rotate(-90)"/><rect class="cls-2" x="89.03" y="2.65" width="63.17" height="1.88" transform="translate(241.23 7.18) rotate(180)"/><rect class="cls-2" x="133.65" y="21.2" width="35.22" height="1.88" transform="translate(129.13 173.4) rotate(-90)"/><rect class="cls-2" x="103.01" y="21.2" width="35.22" height="1.88" transform="translate(98.48 142.75) rotate(-90)"/><rect class="cls-2" x="72.36" y="21.2" width="35.22" height="1.88" transform="translate(67.83 112.11) rotate(-90)"/><rect class="cls-2" x="121.56" y="4.53" width="28.77" height="16.38" transform="translate(271.88 25.43) rotate(180)"/><rect class="cls-2" x="90.91" y="4.53" width="28.77" height="16.38" transform="translate(210.59 25.43) rotate(180)"/><rect class="cls-2" x="106.65" y="130.84" width="35.1" height="1.88" transform="translate(248.41 263.55) rotate(180)"/><rect class="cls-2" x="143.63" y="145.89" width="35.1" height="1.88" transform="translate(322.36 293.65) rotate(180)"/><rect class="cls-2" x="143.63" y="114.9" width="35.1" height="1.88" transform="translate(322.36 231.69) rotate(180)"/><rect class="cls-2" x="143.63" y="83.92" width="44.67" height="1.88" transform="translate(331.93 169.72) rotate(180)"/><rect class="cls-2" x="106.65" y="99.85" width="35.1" height="1.88" transform="translate(248.41 201.58) rotate(180)"/><rect class="cls-2" x="106.65" y="68.87" width="35.1" height="1.88" transform="translate(248.41 139.61) rotate(180)"/><rect class="cls-2" x="91.97" y="118.4" width="101.44" height="1.88" transform="translate(23.35 262.03) rotate(-90)"/><rect class="cls-2" x="88.92" y="150.45" width="37.34" height="1.88" transform="translate(-43.79 258.97) rotate(-90)"/><rect class="cls-2" x="108.53" y="132.71" width="33.22" height="16.38" transform="translate(250.28 281.8) rotate(180)"/><rect class="cls-2" x="10.97" y="59.87" width="28.77" height="16.38" transform="translate(-42.71 93.41) rotate(-90)"/><rect class="cls-2" x="10.97" y="29.23" width="28.77" height="16.38" transform="translate(-12.07 62.77) rotate(-90)"/><rect class="cls-13" x="287.33" y="198.67" width="3.78" height="20.25" transform="translate(80.42 498.02) rotate(-90)"/><rect class="cls-13" x="149.81" y="-137.66" width="2.65" height="277.97" transform="translate(149.81 152.46) rotate(-90)"/><rect class="cls-2" x="163.18" y="-8.33" width="11.34" height="33.3" transform="translate(160.53 177.17) rotate(-90)"/><rect class="cls-2" x="196.48" y="-8.33" width="11.34" height="33.3" transform="translate(193.83 210.48) rotate(-90)"/><rect class="cls-2" x="229.85" y="-8.26" width="11.21" height="33.3" transform="translate(227.07 243.85) rotate(-90)"/><rect class="cls-2" x="234.8" y="60.19" width="11.21" height="33.3" transform="translate(163.56 317.25) rotate(-90)"/><rect class="cls-2" x="263.16" y="-8.26" width="11.21" height="33.3" transform="translate(260.37 277.15) rotate(-90)"/><rect class="cls-2" x="33.12" y="186.43" width="9.13" height="8.28" transform="translate(-152.89 228.25) rotate(-90)"/><rect class="cls-2" x="37.96" y="189.87" width="9.13" height="1.4" transform="translate(-148.05 233.09) rotate(-90)"/><rect class="cls-2" x="120.85" y="149.09" width="9.13" height="8.28"/><rect class="cls-2" x="120.85" y="157.37" width="9.13" height="1.4"/><rect class="cls-2" x="117.25" y="112.14" width="9.13" height="8.28" transform="translate(238.1 -5.54) rotate(90)"/><rect class="cls-2" x="112.41" y="115.58" width="9.13" height="1.4" transform="translate(233.26 -.7) rotate(90)"/><rect class="cls-2" x="254.01" y="186.51" width="9.13" height="8.28" transform="translate(449.22 -67.92) rotate(90)"/><rect class="cls-2" x="249.17" y="189.95" width="9.13" height="1.4" transform="translate(444.38 -63.08) rotate(90)"/><rect class="cls-2" x="254.01" y="155.86" width="9.13" height="8.28" transform="translate(418.57 -98.57) rotate(90)"/><rect class="cls-2" x="249.17" y="159.3" width="9.13" height="1.4" transform="translate(413.73 -93.73) rotate(90)"/><rect class="cls-2" x="254.01" y="125.22" width="9.13" height="8.28" transform="translate(387.93 -129.21) rotate(90)"/><rect class="cls-2" x="249.17" y="128.66" width="9.13" height="1.4" transform="translate(383.09 -124.37) rotate(90)"/><rect class="cls-2" x="254.01" y="94.57" width="9.13" height="8.28" transform="translate(357.28 -159.86) rotate(90)"/><rect class="cls-2" x="249.17" y="98.01" width="9.13" height="1.4" transform="translate(352.44 -155.02) rotate(90)"/><rect class="cls-2" x="159" y="127.19" width="9.13" height="8.28" transform="translate(32.23 294.9) rotate(-90)"/><rect class="cls-2" x="163.84" y="130.64" width="9.13" height="1.4" transform="translate(37.07 299.74) rotate(-90)"/><rect class="cls-2" x="159" y="96.21" width="9.13" height="8.28" transform="translate(63.21 263.92) rotate(-90)"/><rect class="cls-2" x="163.84" y="99.65" width="9.13" height="1.4" transform="translate(68.05 268.76) rotate(-90)"/><rect class="cls-2" x="117.25" y="81.16" width="9.13" height="8.28" transform="translate(207.12 -36.52) rotate(90)"/><rect class="cls-2" x="112.41" y="84.6" width="9.13" height="1.4" transform="translate(202.28 -31.68) rotate(90)"/><rect class="cls-2" x="100.73" y="20.91" width="9.13" height="8.28"/><rect class="cls-2" x="100.73" y="29.19" width="9.13" height="1.4"/><rect class="cls-2" x="131.38" y="20.91" width="9.13" height="8.28"/><rect class="cls-2" x="131.38" y="29.19" width="9.13" height="1.4"/><rect class="cls-2" x="33.12" y="155.86" width="9.13" height="8.28" transform="translate(-122.32 197.68) rotate(-90)"/><rect class="cls-2" x="37.96" y="159.3" width="9.13" height="1.4" transform="translate(-117.48 202.52) rotate(-90)"/><rect class="cls-2" x="33.12" y="125.29" width="9.13" height="8.28" transform="translate(-91.75 167.11) rotate(-90)"/><rect class="cls-2" x="37.96" y="128.73" width="9.13" height="1.4" transform="translate(-86.91 171.95) rotate(-90)"/><rect class="cls-2" x="33.12" y="94.72" width="9.13" height="8.28" transform="translate(-61.18 136.55) rotate(-90)"/><rect class="cls-2" x="37.96" y="98.16" width="9.13" height="1.4" transform="translate(-56.34 141.39) rotate(-90)"/><rect class="cls-2" x="33.12" y="64.16" width="9.13" height="8.28" transform="translate(-30.61 105.98) rotate(-90)"/><rect class="cls-2" x="37.96" y="67.6" width="9.13" height="1.4" transform="translate(-25.78 110.82) rotate(-90)"/><rect class="cls-2" x="33.12" y="33.59" width="9.13" height="8.28" transform="translate(-.05 75.41) rotate(-90)"/><rect class="cls-2" x="37.96" y="37.03" width="9.13" height="1.4" transform="translate(4.79 80.25) rotate(-90)"/><rect class="cls-2" x="119.3" y="108.38" width="29.11" height="15.8" transform="translate(17.57 250.14) rotate(-90)"/><rect class="cls-2" x="136.97" y="123.44" width="29.11" height="15.8" transform="translate(20.19 282.86) rotate(-90)"/><rect class="cls-2" x="136.97" y="92.45" width="29.11" height="15.8" transform="translate(51.18 251.88) rotate(-90)"/><rect class="cls-2" x="119.3" y="77.4" width="29.11" height="15.8" transform="translate(48.56 219.15) rotate(-90)"/><rect class="cls-5" x="144.09" y="68.16" width="15.3" height="16.21" transform="translate(75.47 228.01) rotate(-90)"/><rect class="cls-5" x="159.45" y="69.01" width="15.3" height="14.52" transform="translate(90.83 243.37) rotate(-90)"/><rect class="cls-5" x="173.68" y="69.3" width="15.3" height="13.94" transform="translate(105.06 257.6) rotate(-90)"/><polygon class="cls-13" points="287.29 194.89 290.12 194.89 290.12 84.32 297.82 84.32 297.82 69.19 290.12 69.19 290.12 2.65 287.29 2.65 287.29 194.89"/><path class="cls-5" d="M201.36,189.41c-11.75,0-21.28,9.53-21.28,21.28h21.28v-21.28Z"/><path class="cls-5" d="M158.8,210.69h21.28c0-11.75-9.53-21.28-21.28-21.28v21.28Z"/><rect class="cls-7" x="178.19" y="187.52" width="3.78" height="42.56" transform="translate(-28.72 388.88) rotate(-90)"/><rect class="cls-2" x="157.61" y="14.62" width="10.09" height="10.09" rx="5.05" ry="5.05" transform="translate(143 182.32) rotate(-90)"/><rect class="cls-2" x="172.57" y="14.62" width="10.09" height="10.09" rx="5.05" ry="5.05" transform="translate(157.95 197.27) rotate(-90)"/><rect class="cls-2" x="189.63" y="14.62" width="10.09" height="10.09" rx="5.05" ry="5.05" transform="translate(175.02 214.34) rotate(-90)"/><rect class="cls-2" x="204.59" y="14.62" width="10.09" height="10.09" rx="5.05" ry="5.05" transform="translate(189.97 229.29) rotate(-90)"/><rect class="cls-2" x="222.93" y="14.62" width="10.09" height="10.09" rx="5.05" ry="5.05" transform="translate(208.32 247.64) rotate(-90)"/><rect class="cls-2" x="237.89" y="14.62" width="10.09" height="10.09" rx="5.05" ry="5.05" transform="translate(223.27 262.59) rotate(-90)"/><rect class="cls-2" x="227.88" y="60.32" width="10.09" height="10.09" rx="5.05" ry="5.05" transform="translate(167.56 298.29) rotate(-90)"/><rect class="cls-2" x="242.83" y="60.32" width="10.09" height="10.09" rx="5.05" ry="5.05" transform="translate(182.52 313.24) rotate(-90)"/><rect class="cls-2" x="256.24" y="14.62" width="10.09" height="10.09" rx="5.05" ry="5.05" transform="translate(241.62 280.94) rotate(-90)"/><rect class="cls-2" x="271.19" y="14.62" width="10.09" height="10.09" rx="5.05" ry="5.05" transform="translate(256.57 295.9) rotate(-90)"/><rect class="cls-5" x="259.31" y="73" width="10.19" height="8.7" transform="translate(187.05 341.76) rotate(-90)"/><rect class="cls-5" x="269.64" y="73" width="10.19" height="8.7" transform="translate(197.39 352.09) rotate(-90)"/><rect class="cls-5" x="266.29" y="48.2" width="25.29" height="12.95" transform="translate(224.26 333.61) rotate(-90)"/><rect class="cls-5" x="274.43" y="31.05" width="7.45" height="14.51" transform="translate(239.85 316.46) rotate(-90)"/><rect class="cls-5" x="273.91" y="43.99" width="12.06" height="10.94" transform="translate(230.48 329.4) rotate(-90)"/><rect class="cls-5" x="273.59" y="45.83" width="10.55" height="7.26" rx="2" ry="2" transform="translate(229.4 328.32) rotate(-90)"/><rect class="cls-6" x="221.28" y="128.88" width="125.7" height="6.32" transform="translate(152.08 416.17) rotate(-90)"/><rect class="cls-6" x="217.55" y="143.49" width="124.96" height="1.88" transform="translate(135.6 424.46) rotate(-90)"/><path class="cls-11" d="M194.33,52.75l-.23-1.02c.2-.02.48-.05.85-.11.37-.06.77-.12,1.21-.2v-6.37c-.38.23-.76.45-1.14.64-.38.2-.76.37-1.13.52-.06-.11-.14-.26-.26-.43s-.23-.31-.32-.41c.5-.18,1.01-.4,1.54-.68.53-.28,1.05-.59,1.55-.92s.96-.69,1.36-1.05c.4-.37.71-.72.94-1.06l1.01.18c.27.37.63.73,1.06,1.07.44.35.91.67,1.42.97.51.3,1.02.56,1.53.79.51.22.98.4,1.39.53-.1.11-.22.26-.34.46-.12.19-.22.35-.28.47-.35-.13-.72-.28-1.12-.47-.39-.18-.78-.39-1.18-.61v4.27h-2.5c.16.18.33.34.51.5.18.16.37.31.57.44.27-.16.56-.34.87-.55.31-.2.6-.41.86-.61.27-.2.48-.37.63-.52l.76.73c-.18.15-.4.32-.65.49s-.52.35-.79.52c-.28.17-.54.32-.79.47.45.23.92.43,1.41.59.49.16,1.01.29,1.54.39-.06.06-.13.16-.21.28-.08.12-.15.24-.21.37s-.11.24-.13.32c-.7-.14-1.41-.36-2.12-.68s-1.36-.71-1.96-1.18c-.59-.47-1.07-.99-1.44-1.58h-1.3v1.91c.5-.09.96-.18,1.39-.27s.75-.17.97-.23v.95c-.2.06-.47.14-.82.22-.35.08-.73.17-1.15.26s-.84.18-1.27.26c-.42.08-.81.16-1.17.22-.36.06-.64.1-.86.13ZM196.25,45h2.35v-1.14h1.1v1.14h2.41c-.58-.33-1.14-.69-1.66-1.09-.52-.4-.95-.81-1.28-1.22-.34.39-.77.79-1.28,1.19-.51.4-1.06.78-1.64,1.13ZM197.25,46.75h3.85v-.88h-3.85v.88ZM197.25,48.45h3.85v-.91h-3.85v.91Z"/><path class="cls-11" d="M209.02,52.7c-.02-.15-.05-.32-.1-.51-.05-.19-.1-.35-.16-.47h1.15c.17,0,.29-.03.36-.08.07-.06.11-.16.11-.32v-.7h-4.04v-.82h4.04v-.7h-4.98v-.76h4.98v-.66h-4.06v-.76h4.06v-.63h-3.16v-2.17h3.16v-.58h-4.63v-.82h4.63v-.94h1.1v.94h4.63v.82h-4.63v.58h3.13v2.17h-3.13v.63h3.67v1.42h1.28v.76h-1.28v1.51h-3.67v.96c0,.39-.11.68-.32.86-.22.18-.55.27-1,.27h-1.15ZM208.25,45.55h2.14v-.68h-2.14v.68ZM211.49,45.55h2.11v-.68h-2.11v.68ZM211.49,48.35h2.6v-.66h-2.6v.66ZM211.49,49.8h2.6v-.7h-2.6v.7Z"/><path class="cls-11" d="M217.92,49.89v-1.14c.13,0,.39.01.79.02.4,0,.89,0,1.48.01.59,0,1.24,0,1.94,0v-3.44c-.48,0-.94,0-1.37,0-.44,0-.8,0-1.1.01s-.48.01-.56.02v-1.14c.1,0,.33.02.67.02.34,0,.77.01,1.28.02.51,0,1.07,0,1.68,0s1.16,0,1.67,0c.51,0,.94,0,1.28-.02.34,0,.56-.02.66-.02v1.14c-.13-.02-.47-.03-1.03-.03-.56,0-1.23,0-2.03,0v3.44c.68,0,1.31,0,1.88,0,.58,0,1.06,0,1.44-.02.38,0,.62-.01.72-.01v1.14c-.11-.02-.38-.03-.82-.03s-.98,0-1.63,0h-3.78c-.53,0-1.02,0-1.46,0-.45,0-.82,0-1.12.01-.3,0-.49,0-.58.02Z"/><path class="cls-11" d="M230.22,48.17s0-.21,0-.48c0-.27,0-.61-.01-1.01,0-.4,0-.82-.01-1.27,0-.44,0-.87-.02-1.27,0-.4-.02-.74-.02-1.01,0-.27-.02-.43-.02-.48h1.14v.49c0,.27,0,.6,0,.99,0,.39,0,.8.02,1.24,0,.44.02.85.02,1.25s.01.73.02,1.01c0,.28.01.45.02.52h-1.14ZM230.88,52.23c-.03-.08-.09-.18-.18-.31-.09-.12-.18-.25-.28-.37-.1-.12-.19-.21-.27-.28,1.24-.53,2.16-1.24,2.77-2.13.6-.89.91-2.07.91-3.55v-1.02c0-.26,0-.55,0-.85s0-.57-.01-.81c0-.24-.01-.39-.02-.46h1.18v3.14c0,1.1-.15,2.05-.44,2.87s-.74,1.53-1.34,2.14c-.6.61-1.37,1.14-2.3,1.61Z"/><path class="cls-11" d="M244.38,47.42c-.09-.11-.22-.24-.38-.4s-.32-.26-.46-.34c.24-.18.5-.4.79-.67.28-.27.57-.56.85-.87s.53-.61.74-.91c-.34,0-.75.02-1.22.04-.47.02-.96.03-1.49.05-.52.02-1.05.03-1.57.05-.52.02-1.01.04-1.47.05-.46.02-.86.03-1.21.04s-.6.02-.77.03l-.05-1.15c.24,0,.59.01,1.05.02.46,0,.98,0,1.56,0,.58,0,1.18-.02,1.79-.04s1.21-.03,1.78-.05c.57-.02,1.07-.04,1.51-.07.44-.03.75-.05.95-.08l.71.56c-.17.3-.38.62-.62.97s-.52.69-.8,1.04c-.29.34-.58.67-.87.96-.29.3-.57.55-.82.76ZM239.83,52.2c-.08-.12-.2-.27-.36-.44s-.31-.3-.46-.39c1.09-.64,1.86-1.48,2.32-2.53.46-1.05.67-2.26.64-3.62h1.14c0,1.59-.27,2.96-.8,4.12-.54,1.16-1.36,2.11-2.48,2.86Z"/><path class="cls-11" d="M149.81,224.08v-1.14c.13,0,.39.01.79.02.4,0,.89,0,1.48.01.59,0,1.24,0,1.94,0v-3.44c-.48,0-.94,0-1.37,0-.44,0-.8,0-1.1.01s-.48.01-.56.02v-1.14c.1,0,.33.02.67.02s.77.01,1.28.02c.51,0,1.07,0,1.68,0s1.16,0,1.67,0c.51,0,.94,0,1.28-.02s.56-.02.66-.02v1.14c-.13-.02-.47-.03-1.03-.03s-1.23,0-2.03,0v3.44c.68,0,1.31,0,1.88,0,.58,0,1.06,0,1.44-.02s.62-.01.72-.01v1.14c-.11-.02-.38-.03-.82-.03s-.98,0-1.63,0h-3.78c-.53,0-1.02,0-1.46,0s-.82,0-1.12.01c-.3,0-.49,0-.58.02Z"/><path class="cls-11" d="M163.5,220.22c-.09-.1-.23-.22-.41-.38-.19-.16-.39-.32-.62-.48-.22-.16-.44-.32-.65-.46s-.39-.24-.53-.31l.74-.94c.14.08.32.19.53.34s.43.3.65.46c.22.16.43.32.62.47.19.15.34.28.44.37l-.78.92ZM162.07,225.54l-.62-1.12c.57-.14,1.16-.34,1.79-.62.62-.28,1.24-.6,1.85-.96.61-.37,1.2-.76,1.76-1.18.56-.42,1.07-.84,1.52-1.27.45-.42.82-.83,1.11-1.22.02.09.07.21.13.37.06.16.13.31.2.46.07.15.13.26.17.33-.38.48-.87.98-1.46,1.49-.59.51-1.24,1.01-1.96,1.48-.71.48-1.45.91-2.22,1.3-.77.39-1.52.71-2.27.95Z"/><path class="cls-11" d="M173.69,226.27v-9.48h1.13v3.6l.49-.7c.19.14.44.31.75.5.31.19.64.39.99.59.35.2.69.39,1.03.56s.62.29.86.38c-.06.06-.14.15-.24.29-.1.14-.19.27-.27.41-.08.14-.15.24-.19.32-.22-.1-.48-.24-.78-.41-.3-.17-.62-.36-.95-.56s-.65-.4-.94-.59c-.3-.2-.54-.37-.74-.52v5.6h-1.13Z"/><path class="cls-11" d="M182.64,226.29c-.03-.07-.08-.17-.16-.31s-.15-.26-.23-.4c-.08-.13-.16-.23-.22-.29,1.46-.42,2.65-1.04,3.59-1.86.94-.82,1.62-1.79,2.05-2.93-.37.02-.8.04-1.3.06s-1.01.05-1.54.08c-.53.03-1.04.05-1.53.08-.49.02-.91.04-1.28.06s-.62.03-.77.05l-.1-1.15c.19,0,.48,0,.85,0,.38,0,.81-.01,1.3-.02.49-.01.99-.03,1.51-.04.52-.02,1.01-.03,1.49-.05.48-.02.89-.04,1.25-.07.36-.02.62-.05.78-.07l.64.38c-.37,1.54-1.08,2.86-2.12,3.96-1.05,1.09-2.45,1.93-4.2,2.53ZM182.35,218.08v-1.1c.35,0,.77.02,1.24.03.48,0,.98.01,1.51.01s1.01,0,1.48-.01c.48,0,.91-.02,1.3-.03v1.1c-.4-.02-.83-.03-1.28-.03s-.96,0-1.5,0h-.97c-.34,0-.67,0-.98,0-.31,0-.58.01-.8.03Z"/><path class="cls-11" d="M193.34,220.22c-.09-.1-.23-.22-.41-.38-.19-.16-.39-.32-.62-.48-.22-.16-.44-.32-.65-.46s-.39-.24-.53-.31l.74-.94c.14.08.32.19.53.34s.43.3.65.46c.22.16.43.32.62.47.19.15.34.28.44.37l-.78.92ZM191.91,225.54l-.62-1.12c.57-.14,1.16-.34,1.79-.62.62-.28,1.24-.6,1.85-.96.61-.37,1.2-.76,1.76-1.18.56-.42,1.07-.84,1.52-1.27.45-.42.82-.83,1.11-1.22.02.09.07.21.13.37.06.16.13.31.2.46.07.15.13.26.17.33-.38.48-.87.98-1.46,1.49-.59.51-1.24,1.01-1.96,1.48-.71.48-1.45.91-2.22,1.3-.77.39-1.52.71-2.27.95Z"/><path class="cls-11" d="M201.66,225.64c-.08-.12-.19-.28-.33-.49-.14-.2-.27-.35-.39-.45.62-.26,1.23-.6,1.85-1.01.62-.41,1.2-.87,1.76-1.37.56-.51,1.07-1.05,1.52-1.62.46-.57.83-1.15,1.13-1.73-.37.02-.79.05-1.25.08-.47.03-.94.06-1.42.09-.48.03-.91.06-1.31.08-.4.02-.72.04-.95.06l-.13-1.16c.19,0,.48,0,.88-.01s.83-.02,1.31-.04c.48-.02.97-.04,1.45-.07.48-.03.92-.06,1.31-.08.39-.03.67-.06.86-.09l.74.48c-.2.55-.45,1.09-.76,1.62-.31.53-.66,1.04-1.06,1.54.27.22.56.46.88.73.31.27.62.55.92.85.3.29.59.57.85.84.26.27.48.51.65.73-.14.09-.3.21-.49.38-.19.16-.34.31-.45.45-.16-.22-.36-.47-.61-.75-.24-.28-.51-.56-.8-.85-.29-.29-.58-.57-.86-.85-.29-.27-.55-.51-.79-.71-.66.71-1.39,1.36-2.17,1.94-.78.58-1.56,1.06-2.34,1.43Z"/><path class="cls-11" d="M190.82,155.44v-8.4h3.76c.79,0,1.41.18,1.84.55.44.37.65.95.65,1.75s-.22,1.4-.65,1.78c-.44.38-1.05.56-1.84.56h-2.66v3.76h-1.09ZM191.91,150.64h2.53c.48,0,.85-.1,1.1-.31.25-.21.38-.54.38-.99s-.13-.77-.38-.97c-.25-.2-.62-.3-1.1-.3h-2.53v2.57Z"/><path class="cls-11" d="M201.95,155.62c-.76,0-1.43-.18-2.02-.54-.58-.36-1.04-.87-1.37-1.52-.33-.66-.5-1.43-.5-2.32s.17-1.66.5-2.32.79-1.17,1.37-1.54c.58-.36,1.26-.54,2.02-.54.69,0,1.3.15,1.85.45.54.3.99.72,1.33,1.27l-.97.58c-.25-.38-.56-.68-.94-.89-.38-.21-.8-.31-1.27-.31-.54,0-1.02.14-1.43.41-.41.27-.73.65-.97,1.15-.23.49-.35,1.08-.35,1.76s.12,1.25.35,1.75c.23.49.55.87.97,1.15.41.27.89.41,1.43.41.47,0,.9-.1,1.27-.31.38-.21.69-.5.94-.89l.97.58c-.34.54-.79.95-1.33,1.25-.54.3-1.16.45-1.85.45Z"/><path class="cls-11" d="M207.22,156.35v-6.29c-.18.3-.35.57-.53.83-.18.26-.35.49-.53.7-.09-.12-.21-.24-.37-.37-.16-.13-.29-.22-.41-.29.22-.21.44-.49.67-.85.23-.36.45-.75.67-1.18s.41-.86.59-1.3c.18-.44.32-.85.44-1.24.12-.38.2-.71.23-.97l1.04.24c-.07.35-.17.72-.3,1.12-.13.39-.28.79-.44,1.19v8.4h-1.06ZM209.16,156.4c-.02-.07-.06-.17-.13-.29-.07-.12-.14-.25-.22-.37s-.15-.2-.22-.25c.54-.09,1.03-.23,1.46-.42.43-.19.8-.46,1.12-.79-.48-.42-.91-.9-1.28-1.44l.8-.53c.28.42.62.8,1.02,1.14.2-.42.33-.91.38-1.48h-2.75v-3.28h2.78v-.98h-3.17v-.97h3.17v-1.34h1.07v1.34h3.35v.97h-3.35v.98h2.83v3.28h-2.87c-.07.82-.26,1.52-.58,2.1.62.37,1.29.65,2.03.84.74.19,1.5.32,2.29.37-.13.11-.25.28-.35.5-.11.22-.18.41-.21.56-.81-.1-1.58-.27-2.31-.5-.73-.23-1.41-.55-2.05-.95-.34.35-.74.65-1.21.89-.47.24-1.01.45-1.62.62ZM210.39,151.02h1.74v-1.37h-1.74v1.37ZM213.2,151.02h1.79v-1.37h-1.79v1.37Z"/><path class="cls-11" d="M218.81,156.33c-.13-.09-.3-.19-.52-.31-.22-.12-.39-.19-.52-.23.48-.58.83-1.29,1.05-2.12s.33-1.8.33-2.91v-4.93h8.82v9.29c0,.37-.11.65-.32.85-.22.2-.55.29-1.01.29h-.9c-.02-.16-.05-.35-.09-.58-.04-.23-.09-.41-.14-.53h.89c.17,0,.29-.03.35-.09.07-.06.1-.17.1-.32v-2.47h-2.8v3.64h-1.09v-3.64h-2.75c-.07.84-.22,1.59-.44,2.24-.22.65-.55,1.26-.97,1.83ZM220.29,148.55h2.69v-1.73h-2.69v1.73ZM220.29,151.29h2.69v-1.74h-2.69v1.74ZM224.07,148.55h2.8v-1.73h-2.8v1.73ZM224.07,151.29h2.8v-1.74h-2.8v1.74Z"/><path class="cls-11" d="M183.02,171.31c0-.1-.03-.21-.05-.35-.03-.14-.06-.28-.09-.41-.03-.13-.06-.24-.1-.31h.86c.16,0,.27-.03.34-.08.07-.06.1-.16.1-.31v-2.47c-.34.12-.66.22-.94.31-.28.09-.49.15-.62.18l-.25-1.13c.18-.04.44-.1.77-.19s.68-.18,1.04-.28v-2.45h-1.66v-1.02h1.66v-2.36h1.07v2.36h1.44v1.02h-1.44v2.12c.26-.08.49-.16.71-.23.22-.07.4-.13.54-.19-.1-.09-.22-.18-.35-.27-.13-.09-.23-.16-.31-.2.23-.23.48-.53.73-.9.26-.37.5-.77.74-1.19.24-.43.46-.86.65-1.28s.34-.82.44-1.18l1,.29c-.11.33-.24.67-.4,1.01-.15.35-.32.69-.49,1.03h1.49c.1-.2.21-.44.33-.71s.23-.55.33-.83c.1-.28.19-.52.25-.73l1.09.22c-.06.17-.15.38-.25.62-.1.25-.22.5-.34.75s-.24.48-.35.69h2.1v.94h-2.1v1.39h1.81v.91h-1.81v1.5h1.81v.92h-1.81v1.58h2.18v.97h-5.83v-6.38c-.23.34-.48.66-.73.95v.86c-.13.06-.32.13-.58.23-.26.1-.55.2-.86.31v3.23c0,.38-.1.65-.31.82-.21.17-.52.26-.95.26h-.88ZM188.42,165.15h1.52v-1.39h-1.52v1.39ZM188.42,167.56h1.52v-1.5h-1.52v1.5ZM188.42,170.07h1.52v-1.58h-1.52v1.58Z"/><path class="cls-11" d="M196.81,167.09v-2.06c-.34.18-.71.35-1.1.52-.39.17-.74.32-1.05.45l-.43-.95c.22-.08.48-.18.79-.3.31-.12.63-.25.95-.39.32-.14.6-.26.84-.37v-3.44h1.06v6.55h-1.06ZM195.5,163.67c-.14-.28-.31-.6-.51-.95s-.41-.66-.61-.92l.85-.46c.21.26.41.55.62.89.2.34.38.66.53.95-.1.03-.25.1-.44.21-.19.11-.34.2-.45.27ZM194.87,171.34c-.03-.11-.09-.27-.17-.48-.08-.21-.16-.37-.23-.48,1.07-.1,1.95-.29,2.62-.56s1.2-.67,1.57-1.19h-4.12v-.94h4.57c.06-.18.11-.36.15-.56.04-.2.07-.41.09-.63l.97.07c-.11-.14-.26-.29-.43-.46s-.35-.34-.52-.5-.31-.28-.43-.36l.48-.4h-1.22v-.86h4.4v-.55h.05l-.25-.12c.09-.14.19-.31.31-.52.12-.21.23-.43.34-.65s.2-.41.26-.56l1.01.31c-.09.2-.22.45-.38.74s-.32.56-.47.79h.18v.55h1.56v.86h-1.56v1.26c0,.33-.09.57-.26.72s-.45.23-.83.23h-.9c-.02-.14-.06-.3-.11-.49-.05-.19-.09-.34-.13-.43h.77c.15,0,.26-.03.32-.08s.1-.15.1-.29v-.91h-2.65c.21.17.43.36.65.57.23.21.42.4.57.57-.1.07-.24.18-.4.32-.16.14-.28.25-.37.34-.05.38-.12.72-.22,1.03h4.9v.94h-4.14c.54.53,1.18.92,1.93,1.19s1.54.44,2.38.53c-.04.06-.09.15-.16.27-.06.12-.12.25-.17.38s-.09.24-.13.32c-1.1-.14-2.07-.42-2.92-.84s-1.54-1.02-2.08-1.78c-.42.8-1.03,1.4-1.83,1.81-.8.4-1.84.68-3.11.83ZM198.51,161.88c0-.06-.03-.16-.07-.28-.04-.12-.07-.25-.1-.37s-.06-.21-.08-.26c.42,0,.9,0,1.43-.02.53-.02,1.07-.06,1.63-.1.55-.04,1.07-.09,1.57-.16s.91-.14,1.25-.22l.6.84c-.39.08-.85.15-1.38.22-.53.06-1.08.12-1.66.17-.58.05-1.14.09-1.69.12-.55.03-1.05.04-1.5.05ZM199.17,163.84c-.1-.22-.21-.46-.34-.71s-.27-.47-.4-.67l.82-.37c.14.18.28.41.43.67.15.26.27.49.37.67-.1.03-.25.09-.43.19-.18.09-.33.17-.43.22ZM200.99,163.71c-.07-.26-.17-.52-.29-.8-.12-.28-.24-.51-.35-.71l.85-.3c.12.22.24.47.37.75s.22.53.29.74c-.1.03-.25.08-.43.14-.18.06-.33.12-.44.18Z"/><path class="cls-11" d="M206.69,168.53v-1.14c.13,0,.39.01.79.02.4,0,.89,0,1.48.01.59,0,1.24,0,1.94,0v-3.44c-.48,0-.94,0-1.37,0-.44,0-.8,0-1.1.01s-.48,0-.56.02v-1.14c.1,0,.33.02.67.02.34,0,.77.01,1.28.02.51,0,1.07,0,1.68,0s1.16,0,1.67,0,.94,0,1.28-.02c.34,0,.56-.02.66-.02v1.14c-.13-.02-.47-.03-1.03-.03-.56,0-1.23,0-2.03,0v3.44c.68,0,1.31,0,1.88,0,.58,0,1.06,0,1.44-.02.38,0,.62-.01.72-.01v1.14c-.11-.02-.38-.03-.82-.03s-.98,0-1.63,0h-3.78c-.53,0-1.02,0-1.46,0s-.82,0-1.12.01-.49,0-.58.02Z"/><path class="cls-11" d="M218.99,166.8s0-.21,0-.48c0-.27,0-.61-.01-1.01,0-.4,0-.82-.01-1.27,0-.44,0-.87-.02-1.27,0-.4-.02-.74-.02-1.01s-.02-.43-.02-.48h1.14v.49c0,.27,0,.6,0,.99,0,.39,0,.8.02,1.24,0,.44.02.85.02,1.25,0,.4.01.73.02,1.01,0,.28.01.45.02.52h-1.14ZM219.65,170.87c-.03-.08-.09-.18-.18-.31s-.18-.25-.28-.37c-.1-.12-.19-.21-.27-.28,1.24-.53,2.16-1.24,2.77-2.13.6-.89.91-2.07.91-3.54v-1.02c0-.26,0-.55,0-.85,0-.3,0-.57-.01-.81,0-.24-.01-.39-.02-.46h1.18v3.14c0,1.1-.15,2.05-.44,2.87-.29.82-.74,1.54-1.34,2.14-.6.61-1.37,1.14-2.3,1.61Z"/><path class="cls-11" d="M233.15,166.06c-.09-.11-.22-.24-.38-.4-.17-.15-.32-.26-.46-.34.24-.18.5-.4.79-.67.28-.27.57-.56.85-.87.28-.31.53-.61.74-.91-.34,0-.75.02-1.22.04-.47.02-.96.03-1.49.05-.52.02-1.05.04-1.57.05-.52.02-1.01.04-1.47.05-.46.02-.86.03-1.21.04s-.6.02-.77.03l-.05-1.15c.24,0,.59.01,1.05.02s.98,0,1.56,0,1.18-.02,1.79-.04c.62-.02,1.21-.03,1.78-.05.57-.02,1.07-.04,1.51-.07.44-.03.75-.05.95-.08l.71.56c-.17.3-.38.62-.62.97-.25.35-.52.69-.8,1.04s-.58.66-.87.96c-.29.3-.57.55-.82.76ZM228.6,170.84c-.08-.12-.2-.27-.36-.44s-.31-.3-.46-.39c1.09-.64,1.86-1.48,2.32-2.53s.67-2.26.64-3.62h1.14c0,1.59-.27,2.97-.8,4.12-.54,1.16-1.36,2.11-2.48,2.86Z"/><path class="cls-11" d="M62.05,60.74v-6.05h6.91v6.05h-6.91ZM63.18,59.68h4.66v-3.94h-4.66v3.94Z"/><path class="cls-11" d="M71.59,58.24v-.8c0-.15,0-.26-.01-.34.2,0,.5.01.9.02.4,0,.87,0,1.4.01s1.1,0,1.69.01c.6,0,1.19,0,1.79,0s1.16,0,1.69,0c.53,0,.99,0,1.39-.02.4,0,.7-.02.89-.02v.26c0,.14,0,.31,0,.49s0,.31,0,.38c-.25,0-.62-.02-1.1-.02-.49,0-1.05-.01-1.67-.02s-1.28,0-1.96,0-1.34,0-1.99,0c-.65,0-1.23,0-1.76.02-.52,0-.94.02-1.24.04Z"/><path class="cls-11" d="M82.64,61.71c-.05-.08-.12-.18-.22-.29-.1-.11-.2-.22-.31-.33s-.2-.19-.28-.26c.88-.46,1.54-1,1.98-1.6.44-.6.71-1.29.82-2.07.1-.78.08-1.66-.06-2.65l1.08-.1c.17,1.13.18,2.14.04,3.04-.14.9-.46,1.7-.95,2.39-.5.7-1.2,1.31-2.1,1.85ZM87.88,61.32l-.61-.49c0-.11.01-.31.02-.58s0-.6.01-.96c0-.36,0-.74,0-1.13v-1.09c0-.57,0-1.13,0-1.68,0-.55-.01-.99-.03-1.31h1.16c0,.15-.01.4-.02.74,0,.34,0,.71-.01,1.1s0,.76,0,1.1v2.82c.34-.15.71-.34,1.13-.55s.83-.44,1.24-.68.78-.48,1.12-.71c.34-.23.6-.44.78-.61,0,.1.01.24.04.42.02.18.05.34.09.5s.06.27.08.33c-.26.22-.61.47-1.04.74-.43.27-.88.54-1.37.8-.48.27-.95.51-1.41.73-.46.22-.84.39-1.16.52Z"/><path class="cls-11" d="M94.07,61.85c-.08-.12-.19-.28-.33-.49-.14-.2-.27-.35-.39-.45.62-.26,1.23-.6,1.85-1.01.62-.41,1.2-.87,1.76-1.37.56-.51,1.07-1.05,1.52-1.62.46-.57.83-1.15,1.13-1.73-.37.02-.79.05-1.25.08-.47.03-.94.06-1.42.09-.48.03-.91.06-1.31.08-.4.02-.72.04-.95.06l-.13-1.16c.19,0,.48,0,.88-.01.39,0,.83-.02,1.31-.04.48-.02.97-.04,1.45-.07.48-.03.92-.06,1.31-.08.39-.03.67-.06.86-.09l.74.48c-.2.55-.45,1.09-.76,1.62-.31.53-.66,1.04-1.06,1.54.27.22.56.46.88.73.31.27.62.55.92.85.3.29.59.57.85.84.26.27.48.51.65.73-.14.09-.3.21-.49.38-.19.16-.34.31-.45.45-.16-.22-.36-.47-.61-.75-.24-.28-.51-.56-.8-.85-.29-.29-.58-.57-.86-.85s-.55-.51-.79-.71c-.66.71-1.39,1.36-2.17,1.94-.78.58-1.56,1.06-2.34,1.43Z"/><path class="cls-11" d="M105.26,62.54c-.04-.09-.1-.2-.19-.32-.09-.13-.18-.25-.27-.37-.09-.12-.17-.21-.25-.28.98-.39,1.91-.89,2.77-1.5.86-.61,1.63-1.3,2.31-2.08.68-.78,1.21-1.6,1.61-2.46-.25,0-.52.02-.82.04-.3.02-.6.03-.89.04s-.55.02-.78.02c-.23,0-.4.01-.51.01-.82,1.07-1.78,1.98-2.89,2.72-.05-.06-.13-.15-.23-.25-.11-.1-.22-.21-.33-.31-.11-.1-.21-.17-.29-.22.6-.35,1.17-.78,1.7-1.3s1.01-1.07,1.42-1.67.72-1.2.95-1.79l1.06.38c-.1.24-.2.48-.32.71-.12.23-.24.46-.38.68.26,0,.56-.02.88-.02.32,0,.64-.02.95-.03.31-.01.59-.02.82-.04.24-.01.39-.02.46-.03l.67.4c-.38,1.1-.94,2.14-1.67,3.12-.73.98-1.59,1.85-2.57,2.62-.99.77-2.06,1.41-3.22,1.91Z"/><path class="cls-11" d="M116.2,58.56s0-.21,0-.48c0-.27,0-.61-.01-1.01,0-.4,0-.82-.01-1.27,0-.44,0-.87-.02-1.27,0-.4-.02-.74-.02-1.01s-.02-.43-.02-.48h1.14v.49c0,.27,0,.6,0,.99,0,.39,0,.8.02,1.24,0,.44.02.85.02,1.25,0,.4.01.73.02,1.01,0,.28.01.45.02.52h-1.14ZM116.86,62.63c-.03-.08-.09-.18-.18-.31s-.18-.25-.28-.37c-.1-.12-.19-.21-.27-.28,1.24-.53,2.16-1.24,2.77-2.13.6-.89.91-2.07.91-3.54v-1.02c0-.26,0-.55,0-.85,0-.3,0-.57-.01-.81,0-.24-.01-.39-.02-.46h1.18v3.14c0,1.1-.15,2.05-.44,2.87-.29.82-.74,1.54-1.34,2.14-.6.61-1.37,1.14-2.3,1.61Z"/><path class="cls-11" d="M123.94,58.24v-.8c0-.15,0-.26-.01-.34.2,0,.5.01.9.02.4,0,.87,0,1.4.01s1.1,0,1.69.01c.6,0,1.19,0,1.79,0s1.16,0,1.69,0c.53,0,.99,0,1.39-.02.4,0,.7-.02.89-.02v.26c0,.14,0,.31,0,.49s0,.31,0,.38c-.25,0-.62-.02-1.1-.02-.49,0-1.05-.01-1.67-.02s-1.28,0-1.96,0-1.34,0-1.99,0c-.65,0-1.23,0-1.76.02-.52,0-.94.02-1.24.04Z"/><path class="cls-11" d="M137.12,56.43c-.09-.1-.23-.22-.41-.38-.19-.16-.39-.32-.62-.48-.22-.16-.44-.32-.65-.46s-.39-.24-.53-.31l.74-.94c.14.08.32.19.53.34s.43.3.65.46c.22.16.43.32.62.47.19.15.34.28.44.37l-.78.92ZM135.69,61.76l-.62-1.12c.57-.13,1.16-.34,1.79-.62.62-.28,1.24-.6,1.85-.97.61-.37,1.2-.76,1.76-1.18.56-.42,1.07-.84,1.52-1.27.45-.42.82-.83,1.11-1.22.02.09.07.21.13.37.06.16.13.31.2.46s.13.26.17.33c-.38.48-.87.98-1.46,1.49s-1.24,1.01-1.96,1.48c-.71.48-1.45.91-2.22,1.3-.77.39-1.52.71-2.27.95Z"/><path class="cls-11" d="M62.68,77.13c-.03-.07-.09-.18-.17-.31s-.17-.27-.26-.4c-.1-.13-.18-.23-.26-.29,1.54-.52,2.81-1.25,3.81-2.2s1.73-2.15,2.17-3.59c-.35,0-.77.02-1.25.04-.48.02-.98.03-1.49.04-.52.01-1.02.03-1.5.04-.48.02-.91.03-1.28.04-.37.01-.64.02-.82.03l-.07-1.24c.21.02.5.03.86.03.37,0,.79,0,1.25,0s.95,0,1.44,0c.49,0,.97-.01,1.43-.02.46-.01.87-.03,1.23-.04.36-.02.63-.03.82-.05l.74.4c-.4,1.86-1.18,3.42-2.33,4.69-1.15,1.27-2.59,2.22-4.32,2.84ZM70.1,69.85c-.1-.17-.24-.35-.4-.54-.16-.19-.32-.38-.49-.56-.17-.18-.32-.33-.47-.45l.54-.43c.12.1.27.25.45.44.18.19.36.39.53.59.17.2.31.37.4.5l-.56.44ZM71.11,68.98c-.1-.17-.24-.35-.4-.53s-.33-.37-.51-.55-.34-.32-.48-.43l.53-.44c.13.1.28.25.47.44.18.19.36.38.54.58.18.2.31.36.41.5l-.55.44Z"/><path class="cls-11" d="M71.23,73.24v-.8c0-.15,0-.26-.01-.34.2,0,.5.01.9.02.4,0,.87,0,1.4.01s1.1,0,1.69.01c.6,0,1.19,0,1.79,0s1.16,0,1.69,0c.53,0,.99,0,1.39-.02.4,0,.7-.02.89-.02v.26c0,.14,0,.31,0,.49s0,.31,0,.38c-.25,0-.62-.02-1.1-.02-.49,0-1.05-.01-1.67-.02-.63,0-1.28,0-1.96,0s-1.34,0-1.99,0c-.65,0-1.23,0-1.76.02-.52,0-.94.02-1.24.04Z"/><path class="cls-11" d="M82.55,76.85c-.08-.12-.19-.28-.33-.49-.14-.2-.27-.35-.39-.45.62-.26,1.23-.6,1.85-1.01.62-.41,1.2-.87,1.76-1.37.56-.51,1.07-1.05,1.52-1.62.46-.57.83-1.15,1.13-1.73-.37.02-.79.05-1.25.08-.47.03-.94.06-1.42.09-.48.03-.91.06-1.31.08-.4.02-.72.04-.95.06l-.13-1.16c.19,0,.48,0,.88-.01.39,0,.83-.02,1.31-.04.48-.02.97-.04,1.45-.07.48-.03.92-.06,1.31-.08.39-.03.67-.06.86-.09l.74.48c-.2.55-.45,1.09-.76,1.62-.31.53-.66,1.04-1.06,1.54.27.22.56.46.88.73.31.27.62.55.92.85.3.29.59.57.85.84.26.27.48.51.65.73-.14.09-.3.21-.49.38-.19.16-.34.31-.45.45-.16-.22-.36-.47-.61-.75-.24-.28-.51-.56-.8-.85-.29-.29-.58-.57-.86-.85s-.55-.51-.79-.71c-.66.71-1.39,1.36-2.17,1.94-.78.58-1.56,1.06-2.34,1.43Z"/><path class="cls-11" d="M67.93,156.36c-.05-.06-.12-.13-.21-.23-.09-.1-.19-.19-.29-.28-.1-.09-.19-.15-.26-.19.67-.38,1.17-.87,1.5-1.47.33-.6.51-1.34.55-2.21h-1.16v-2.88l-.23.23s-.12-.11-.23-.19c-.1-.08-.21-.15-.32-.22s-.19-.12-.26-.14c.22-.19.45-.43.69-.73.24-.29.46-.6.67-.94.21-.33.39-.66.54-.98.15-.32.26-.6.32-.85l1.02.2c-.05.13-.1.26-.16.41s-.12.29-.19.43h2.26l.29.29c-.06.15-.15.34-.27.56-.12.22-.24.44-.37.67-.13.22-.25.43-.36.61h1.72v3.53h-1.28v2.84c0,.11.03.2.08.25s.17.08.35.08h4.31c.33,0,.55-.09.68-.26.12-.18.2-.53.23-1.07.13.06.29.12.47.19.19.07.35.12.47.16-.07.55-.17.97-.29,1.25-.12.28-.29.47-.5.56s-.49.14-.82.14h-4.88c-.41,0-.69-.07-.86-.2-.16-.13-.25-.35-.25-.64v-3.3h-.68c-.05,1.03-.26,1.9-.62,2.62s-.92,1.3-1.66,1.76ZM68.61,148.45h1.78c.07-.12.15-.27.25-.44.09-.17.18-.34.26-.49s.14-.26.16-.32h-1.61c-.13.22-.26.44-.41.65-.14.21-.29.41-.43.6ZM69.02,151.07h1.15v-1.7h-1.15v1.7ZM71.06,151.07h1.16v-1.7h-1.16v1.7ZM73.02,154.56c-.07-.1-.18-.22-.32-.38s-.25-.27-.34-.32c.42-.24.77-.5,1.06-.79s.53-.62.71-1c.18-.38.32-.84.41-1.37.09-.53.14-1.16.14-1.88h-1.31v-.95h1.31v-2.34h1v2.34h2.18c0,.5,0,1.02-.03,1.54-.02.52-.04,1.02-.07,1.5-.03.48-.06.91-.11,1.28s-.09.67-.14.89c-.1.46-.28.79-.52.99s-.62.29-1.14.29h-.62c0-.14-.03-.31-.07-.52s-.07-.38-.11-.5h.65c.3,0,.51-.04.62-.13s.19-.26.26-.53c.04-.15.08-.38.11-.67.03-.3.06-.63.09-1,.03-.37.05-.75.06-1.13.01-.38.02-.74.02-1.06h-1.18c-.02,1.05-.13,1.94-.33,2.66s-.5,1.34-.89,1.83c-.39.49-.87.91-1.45,1.25Z"/><path class="cls-11" d="M79.95,156.33c-.02-.16-.05-.35-.1-.58-.05-.22-.1-.4-.16-.53h.9c.31,0,.53-.06.65-.17s.22-.32.29-.64c.07-.33.13-.73.17-1.19s.07-.92.07-1.36h-2.3c.06-.33.1-.71.14-1.15.04-.44.07-.86.09-1.28.02-.42.04-.76.04-1.04h2.04v-1.56h-2.27v-.95h3.32v3.41h-2.1c0,.13,0,.29-.02.48-.01.19-.03.38-.04.57-.02.19-.04.35-.06.5h2.28c0,.86-.02,1.59-.07,2.19s-.11,1.13-.19,1.6c-.1.63-.3,1.07-.59,1.32s-.73.37-1.33.37h-.76ZM89.4,156.37c-.06-.11-.13-.25-.23-.41-.1-.16-.2-.34-.31-.52-.27.06-.6.11-.97.16-.38.05-.78.1-1.2.15-.42.05-.85.09-1.27.13-.42.04-.81.07-1.17.1-.36.03-.66.05-.91.05l-.2-1c.32,0,.73-.03,1.23-.07s1.02-.08,1.55-.13v-1.73h-2.35v-3.26h2.35v-1.09c-.49.06-.96.1-1.42.14-.46.04-.83.07-1.12.08l-.18-.96c.16,0,.34-.02.55-.04.2-.02.42-.03.64-.05.1-.17.2-.37.31-.61s.22-.48.34-.74.21-.5.29-.73c.08-.23.15-.42.19-.58l1.16.17c-.06.17-.16.39-.3.68-.14.28-.28.58-.44.89-.16.31-.31.59-.45.83.44-.04.87-.08,1.3-.13s.81-.09,1.15-.13c-.14-.17-.27-.33-.4-.48-.13-.15-.26-.29-.39-.41l.8-.55c.23.21.48.48.75.79.27.31.52.62.77.94s.43.58.57.82c-.06.02-.14.08-.26.16s-.24.16-.36.25-.21.16-.26.22c-.07-.14-.16-.28-.26-.43-.1-.15-.21-.31-.32-.48-.2.03-.44.07-.71.11-.28.04-.57.08-.88.12v1.21h2.39v3.26h-2.39v1.62c.26-.03.5-.05.73-.08.23-.03.44-.05.63-.08-.1-.15-.2-.29-.29-.43-.09-.13-.18-.24-.26-.33l.85-.49c.18.21.39.47.61.77.22.31.43.61.62.92.2.3.35.56.45.76-.06.03-.16.09-.28.16s-.24.15-.35.23c-.12.08-.21.14-.27.19ZM84.58,152.21h1.34v-1.44h-1.34v1.44ZM86.97,152.21h1.37v-1.44h-1.37v1.44Z"/><path class="cls-11" d="M64.03,168.53v-1.14c.13,0,.39.01.79.02.4,0,.89,0,1.48.01.59,0,1.24,0,1.94,0v-3.44c-.48,0-.94,0-1.37,0-.44,0-.8,0-1.1.01s-.48,0-.56.02v-1.14c.1,0,.33.02.67.02.34,0,.77.01,1.28.02.51,0,1.07,0,1.68,0s1.16,0,1.67,0,.94,0,1.28-.02c.34,0,.56-.02.66-.02v1.14c-.13-.02-.47-.03-1.03-.03-.56,0-1.23,0-2.03,0v3.44c.68,0,1.31,0,1.88,0,.58,0,1.06,0,1.44-.02.38,0,.62-.01.72-.01v1.14c-.11-.02-.38-.03-.82-.03s-.98,0-1.63,0h-3.78c-.53,0-1.02,0-1.46,0s-.82,0-1.12.01-.49,0-.58.02Z"/><path class="cls-11" d="M76.33,166.8s0-.21,0-.48c0-.27,0-.61-.01-1.01,0-.4,0-.82-.01-1.27,0-.44,0-.87-.02-1.27,0-.4-.02-.74-.02-1.01s-.02-.43-.02-.48h1.14v.49c0,.27,0,.6,0,.99,0,.39,0,.8.02,1.24,0,.44.02.85.02,1.25,0,.4.01.73.02,1.01,0,.28.01.45.02.52h-1.14ZM76.99,170.87c-.03-.08-.09-.18-.18-.31s-.18-.25-.28-.37c-.1-.12-.19-.21-.27-.28,1.24-.53,2.16-1.24,2.77-2.13.6-.89.91-2.07.91-3.54v-1.02c0-.26,0-.55,0-.85,0-.3,0-.57-.01-.81,0-.24-.01-.39-.02-.46h1.18v3.14c0,1.1-.15,2.05-.44,2.87-.29.82-.74,1.54-1.34,2.14-.6.61-1.37,1.14-2.3,1.61Z"/><path class="cls-11" d="M90.49,166.06c-.09-.11-.22-.24-.38-.4-.17-.15-.32-.26-.46-.34.24-.18.5-.4.79-.67.28-.27.57-.56.85-.87.28-.31.53-.61.74-.91-.34,0-.75.02-1.22.04-.47.02-.96.03-1.49.05-.52.02-1.05.04-1.57.05-.52.02-1.01.04-1.47.05-.46.02-.86.03-1.21.04s-.6.02-.77.03l-.05-1.15c.24,0,.59.01,1.05.02s.98,0,1.56,0,1.18-.02,1.79-.04c.62-.02,1.21-.03,1.78-.05.57-.02,1.07-.04,1.51-.07.44-.03.75-.05.95-.08l.71.56c-.17.3-.38.62-.62.97-.25.35-.52.69-.8,1.04s-.58.66-.87.96c-.29.3-.57.55-.82.76ZM85.94,170.84c-.08-.12-.2-.27-.36-.44s-.31-.3-.46-.39c1.09-.64,1.86-1.48,2.32-2.53s.67-2.26.64-3.62h1.14c0,1.59-.27,2.97-.8,4.12-.54,1.16-1.36,2.11-2.48,2.86Z"/><line class="cls-4" x1="90.91" y1="39.37" x2="91.91" y2="39.37"/><line class="cls-3" x1="93.97" y1="39.37" x2="117.65" y2="39.37"/><line class="cls-4" x1="118.68" y1="39.37" x2="119.68" y2="39.37"/><line class="cls-4" x1="121.66" y1="39.37" x2="122.66" y2="39.37"/><line class="cls-3" x1="124.72" y1="39.37" x2="148.4" y2="39.37"/><line class="cls-4" x1="149.43" y1="39.37" x2="150.43" y2="39.37"/><line class="cls-1" x1="105.29" y1="48.61" x2="105.29" y2="35.36"/><circle class="cls-11" cx="78.22" cy="125.49" r="14.76"/><path class="cls-8" d="M87.2,120.22l-2.6-2.6c-.23-.23-.6-.23-.83,0l-10.98,10.55c-.07.07-.12.15-.15.24l-1.33,4.36c-.14.45.28.87.73.73l4.5-1.37h0l10.65-11.08c.23-.23.23-.6,0-.83ZM73.29,132.06l-.52-.52.77-2.52,1.48.79.79,1.48-2.52.77ZM85.55,119.81l-9.35,9.41-.59-.59,9.41-9.36.53.53h0Z"/><circle class="cls-11" cx="209.63" cy="125.49" r="14.76"/><circle class="cls-11" cx="175.29" cy="47.92" r="14.76"/><path class="cls-8" d="M203.25,128.42h12.75c.49,0,.88-.39.88-.88v-7.5c0-.49-.39-.88-.88-.88h-12.75c-.49,0-.88.39-.88.88v7.5c0,.49.39.88.88.88ZM203.72,120.34h11.82v6.69h-11.82v-6.69Z"/><path class="cls-8" d="M217.91,130.87l-1.57-1.4c-.1-.09-.25-.14-.4-.14h-12.62c-.15,0-.3.05-.4.14l-1.57,1.4c-.08.07-.13.17-.13.27v.49c0,.11.12.2.26.2h16.29c.15,0,.26-.09.26-.2v-.49c0-.1-.05-.2-.13-.27ZM207.83,131.03l.45-.62h2.88l.45.62h-3.79Z"/><polygon class="cls-8" points="169.32 54.34 170.49 55.57 174.74 51.53 173.5 50.36 169.32 54.34"/><path class="cls-8" d="M183.57,41.97c-1.19-1.26-3.42-1.08-4.84.27-.86.82-1.24,1.95-1.24,2.9,0,.83-.07,1.4-.71,2.12l-.85.8,1.23,1.17.78-.74c.75-.61,1.32-.64,2.15-.6.95.05,2.09-.27,2.96-1.09,1.42-1.35,1.71-3.56.52-4.82Z"/><path class="cls-8" d="M173.7,45.62c.08-.89.04-1.52-1.25-2.73,0,0-1.48-1.41-2.32-2.2-.7-.67-1.7.33-.98,1.02l2.43,2.31c.15.15.16.39.01.55l-.07.08c-.15.15-.39.16-.55.01l-2.44-2.32c-.4-.38-.78-.22-1.02.03-.25.26-.38.64.02,1.02l2.44,2.32c.16.15.16.39.01.55l-.07.07c-.15.16-.39.16-.55.01l-2.43-2.31c-.72-.68-1.66.36-.96,1.03.84.8,2.32,2.2,2.32,2.2,1.28,1.23,1.91,1.24,2.8,1.11.71-.1,1.23-.28,2.03.49l7.07,6.71,1.17-1.23-7.07-6.71c-.8-.76-.66-1.29-.59-2Z"/></g></svg>