<?xml version="1.0" encoding="UTF-8"?><svg id="_レイヤー_2" xmlns="http://www.w3.org/2000/svg" viewBox="0 0 86.74 86.74"><defs><style>.cls-1{fill:#013b5c;}.cls-1,.cls-2,.cls-3{stroke-width:0px;}.cls-2{fill:#fff;}.cls-3{fill:#016daa;}</style></defs><g id="_レイヤー_1-2"><rect class="cls-2" width="86.74" height="86.74" rx="10" ry="10"/><path class="cls-3" d="M14.26,28.77l5.82,5.82c12.84-12.84,33.73-12.84,46.57,0l5.82-5.82c-16.05-16.05-42.16-16.05-58.21,0Z"/><path class="cls-3" d="M25.91,40.42l5.82,5.82c6.42-6.42,16.86-6.42,23.29,0l5.82-5.82c-9.63-9.63-25.3-9.63-34.93,0Z"/><path class="cls-1" d="M37.55,52.06l5.82,5.82,5.82-5.82c-3.21-3.21-8.43-3.21-11.64,0Z"/><path class="cls-3" d="M31.4,70.41v-6.49h4.9v1.21h-3.39v5.28h-1.51ZM32.79,68.05v-1.21h3.11v1.21h-3.11Z"/><path class="cls-3" d="M37.4,70.41v-6.49h2.77c.9,0,1.6.21,2.1.63.5.42.75.99.75,1.72,0,.49-.11.91-.34,1.26-.23.35-.55.61-.97.8-.42.18-.92.27-1.5.27h-1.98l.69-.65v2.46h-1.51ZM38.91,68.11l-.69-.71h1.9c.46,0,.8-.1,1.04-.3.23-.2.35-.48.35-.83s-.12-.63-.35-.83c-.23-.2-.58-.29-1.04-.29h-1.9l.69-.71v3.68ZM41.53,70.41l-1.63-2.35h1.61l1.63,2.35h-1.61Z"/><path class="cls-3" d="M44.31,70.41v-6.49h4.9v1.21h-3.41v4.08h3.53v1.21h-5.02ZM45.69,67.71v-1.18h3.12v1.18h-3.12Z"/><path class="cls-3" d="M50.66,70.41v-6.49h4.9v1.21h-3.41v4.08h3.53v1.21h-5.02ZM52.04,67.71v-1.18h3.12v1.18h-3.12Z"/></g></svg>