<?xml version="1.0" encoding="UTF-8"?><svg id="_レイヤー_2" xmlns="http://www.w3.org/2000/svg" viewBox="0 0 299.34 210.81"><defs><style>.cls-1{fill:#dfe9eb;}.cls-1,.cls-2,.cls-3,.cls-4,.cls-5{stroke-width:0px;}.cls-6{stroke:#013b5c;stroke-width:.5px;}.cls-6,.cls-7,.cls-8,.cls-9,.cls-10{stroke-miterlimit:10;}.cls-6,.cls-10{fill:none;}.cls-7{fill:#e3d6b3;}.cls-7,.cls-8,.cls-9,.cls-10{stroke:#000;stroke-width:.25px;}.cls-2{fill:#dfebdf;}.cls-8,.cls-4{fill:#fff;}.cls-9{fill:#7d7d7d;}.cls-3{fill:#013b5c;}.cls-5{fill:#5e5e5e;}</style></defs><g id="_レイヤー_1-2"><polygon class="cls-4" points="15.28 67.45 15.28 69.33 15.28 206.91 280.97 206.91 280.97 69.19 287.29 69.19 287.29 2.65 15.28 2.65 15.28 67.45"/><rect class="cls-2" x="21.45" y="171.98" width="28.77" height="37.34" transform="translate(-154.82 226.48) rotate(-90)"/><rect class="cls-2" x="20.39" y="142.39" width="28.77" height="35.22" transform="translate(-125.23 194.77) rotate(-90)"/><rect class="cls-2" x="108.53" y="132.71" width="33.22" height="37.34"/><rect class="cls-2" x="20.39" y="111.75" width="28.77" height="35.22" transform="translate(-94.58 164.13) rotate(-90)"/><rect class="cls-2" x="20.39" y="81.1" width="28.77" height="35.22" transform="translate(-63.94 133.48) rotate(-90)"/><rect class="cls-2" x="109.65" y="98.73" width="29.11" height="35.1" transform="translate(7.92 240.48) rotate(-90)"/><rect class="cls-2" x="109.65" y="67.75" width="29.11" height="35.1" transform="translate(38.9 209.5) rotate(-90)"/><rect class="cls-2" x="146.63" y="113.78" width="29.11" height="35.1" transform="translate(29.85 292.51) rotate(-90)"/><rect class="cls-2" x="192.94" y="135.26" width="120.71" height="18.84" transform="translate(108.61 397.97) rotate(-90)"/><rect class="cls-2" x="146.63" y="82.8" width="29.11" height="35.1" transform="translate(60.83 261.53) rotate(-90)"/><rect class="cls-2" x="20.39" y="50.45" width="28.77" height="35.22" transform="translate(-33.29 102.83) rotate(-90)"/><rect class="cls-2" x="20.39" y="19.81" width="28.77" height="35.22" transform="translate(-2.65 72.19) rotate(-90)"/><rect class="cls-2" x="90.91" y="4.53" width="28.77" height="35.22"/><rect class="cls-2" x="121.56" y="4.53" width="28.77" height="35.22"/><rect class="cls-1" x="152.2" y="13.99" width="133.21" height="15.33"/><rect class="cls-1" x="223.52" y="57.96" width="33.54" height="24.49"/><rect class="cls-7" x="-77.37" y="112.38" width="187.18" height="1.88" transform="translate(-97.1 129.54) rotate(-90)"/><rect class="cls-7" x="17.16" y="205.03" width="37.34" height="1.88" transform="translate(71.66 411.94) rotate(180)"/><rect class="cls-5" x="15.28" y="206.91" width="39.22" height="3.78" transform="translate(69.79 417.6) rotate(180)"/><rect class="cls-5" x="54.5" y="206.91" width="104.3" height="3.78" transform="translate(213.3 417.6) rotate(180)"/><rect class="cls-5" x="201.36" y="206.91" width="77.73" height="3.78" transform="translate(480.45 417.6) rotate(180)"/><rect class="cls-7" x="17.16" y="174.39" width="37.34" height="1.88" transform="translate(71.66 350.65) rotate(180)"/><rect class="cls-7" x="17.16" y="143.74" width="35.22" height="1.88" transform="translate(69.54 289.36) rotate(180)"/><rect class="cls-7" x="17.16" y="113.09" width="35.22" height="1.88" transform="translate(69.54 228.07) rotate(180)"/><rect class="cls-7" x="17.16" y="82.45" width="35.22" height="1.88" transform="translate(69.54 166.77) rotate(180)"/><rect class="cls-7" x="17.16" y="51.8" width="35.22" height="1.88" transform="translate(69.54 105.48) rotate(180)"/><rect class="cls-7" x="17.16" y="21.16" width="35.22" height="1.88" transform="translate(69.54 44.19) rotate(180)"/><rect class="cls-8" x="26.76" y="19.19" width="25.62" height="1.88" transform="translate(79.14 40.26) rotate(180)"/><rect class="cls-5" x="1.63" y="193.26" width="12.02" height="15.28" transform="translate(-193.26 208.54) rotate(-90)"/><rect class="cls-5" x="17.16" y="2.65" width="9.6" height="14.56"/><rect class="cls-5" x="145.15" y="193.26" width="12.02" height="15.28" transform="translate(-49.74 352.06) rotate(-90)"/><rect class="cls-5" x="282.6" y="193.26" width="12.02" height="15.28" transform="translate(87.71 489.51) rotate(-90)"/><rect class="cls-5" x="6.64" y="202.04" width="3.78" height="13.52" transform="translate(-200.27 217.33) rotate(-90)"/><polygon class="cls-5" points="12.15 69.04 0 69.04 0 84.32 12.15 84.32 12.15 194.89 15.28 194.89 15.28 84.32 15.28 69.04 15.28 2.65 12.15 2.65 12.15 69.04"/><rect class="cls-10" x="7.68" y="10.25" width="17.08" height="1.88" transform="translate(5.03 27.41) rotate(-90)"/><rect class="cls-7" x="10.97" y="182.46" width="28.77" height="16.38" transform="translate(-165.3 216) rotate(-90)"/><rect class="cls-7" x="10.97" y="151.81" width="28.77" height="16.38" transform="translate(-134.65 185.35) rotate(-90)"/><rect class="cls-7" x="10.97" y="121.17" width="28.77" height="16.38" transform="translate(-104 154.71) rotate(-90)"/><rect class="cls-7" x="10.97" y="90.52" width="28.77" height="16.38" transform="translate(-73.36 124.06) rotate(-90)"/><rect class="cls-10" x="217.55" y="143.49" width="124.96" height="1.88" transform="translate(135.6 424.46) rotate(-90)"/><rect class="cls-9" x="272.71" y="73.69" width="14.63" height="1.88" transform="translate(205.4 354.66) rotate(-90)"/><rect class="cls-9" x="253.08" y="34.98" width="66.54" height="1.88" transform="translate(250.43 322.27) rotate(-90)"/><rect class="cls-9" x="279.09" y="67.32" width="8.2" height="1.88"/><rect class="cls-7" x="241.75" y="205.03" width="37.34" height="1.88"/><rect class="cls-7" x="241.75" y="174.39" width="37.34" height="1.88"/><rect class="cls-7" x="243.87" y="143.74" width="35.22" height="1.88"/><rect class="cls-7" x="243.87" y="113.09" width="35.22" height="1.88"/><rect class="cls-7" x="223.75" y="82.45" width="55.34" height="1.88"/><rect class="cls-7" x="256.52" y="182.46" width="28.77" height="16.38" transform="translate(80.25 461.55) rotate(-90)"/><rect class="cls-7" x="256.52" y="151.81" width="28.77" height="16.38" transform="translate(110.9 430.9) rotate(-90)"/><rect class="cls-7" x="256.52" y="121.17" width="28.77" height="16.38" transform="translate(141.54 400.26) rotate(-90)"/><rect class="cls-7" x="256.52" y="90.52" width="28.77" height="16.38" transform="translate(172.19 369.61) rotate(-90)"/><rect class="cls-7" x="89.03" y="2.65" width="63.17" height="1.88" transform="translate(241.23 7.18) rotate(180)"/><rect class="cls-7" x="133.65" y="21.2" width="35.22" height="1.88" transform="translate(129.13 173.4) rotate(-90)"/><rect class="cls-7" x="103.01" y="21.2" width="35.22" height="1.88" transform="translate(98.48 142.75) rotate(-90)"/><rect class="cls-7" x="72.36" y="21.2" width="35.22" height="1.88" transform="translate(67.83 112.11) rotate(-90)"/><rect class="cls-7" x="121.56" y="4.53" width="28.77" height="16.38" transform="translate(271.88 25.43) rotate(180)"/><rect class="cls-7" x="90.91" y="4.53" width="28.77" height="16.38" transform="translate(210.59 25.43) rotate(180)"/><rect class="cls-7" x="106.65" y="130.84" width="35.1" height="1.88" transform="translate(248.41 263.55) rotate(180)"/><rect class="cls-7" x="143.63" y="145.89" width="35.1" height="1.88" transform="translate(322.36 293.65) rotate(180)"/><rect class="cls-7" x="143.63" y="114.9" width="35.1" height="1.88" transform="translate(322.36 231.69) rotate(180)"/><rect class="cls-7" x="143.63" y="83.92" width="44.67" height="1.88" transform="translate(331.93 169.72) rotate(180)"/><rect class="cls-7" x="106.65" y="99.85" width="35.1" height="1.88" transform="translate(248.41 201.58) rotate(180)"/><rect class="cls-7" x="106.65" y="68.87" width="35.1" height="1.88" transform="translate(248.41 139.61) rotate(180)"/><rect class="cls-7" x="91.97" y="118.4" width="101.44" height="1.88" transform="translate(23.35 262.03) rotate(-90)"/><rect class="cls-7" x="88.92" y="150.45" width="37.34" height="1.88" transform="translate(-43.79 258.97) rotate(-90)"/><rect class="cls-7" x="108.53" y="132.71" width="33.22" height="16.38" transform="translate(250.28 281.8) rotate(180)"/><rect class="cls-7" x="10.97" y="59.87" width="28.77" height="16.38" transform="translate(-42.71 93.41) rotate(-90)"/><rect class="cls-7" x="10.97" y="29.23" width="28.77" height="16.38" transform="translate(-12.07 62.77) rotate(-90)"/><rect class="cls-5" x="287.33" y="198.67" width="3.78" height="20.25" transform="translate(80.42 498.02) rotate(-90)"/><rect class="cls-5" x="149.81" y="-137.66" width="2.65" height="277.97" transform="translate(149.81 152.46) rotate(-90)"/><rect class="cls-7" x="163.18" y="-8.33" width="11.34" height="33.3" transform="translate(160.53 177.17) rotate(-90)"/><rect class="cls-7" x="196.48" y="-8.33" width="11.34" height="33.3" transform="translate(193.83 210.48) rotate(-90)"/><rect class="cls-7" x="229.85" y="-8.26" width="11.21" height="33.3" transform="translate(227.07 243.85) rotate(-90)"/><rect class="cls-7" x="234.8" y="60.19" width="11.21" height="33.3" transform="translate(163.56 317.25) rotate(-90)"/><rect class="cls-7" x="263.16" y="-8.26" width="11.21" height="33.3" transform="translate(260.37 277.15) rotate(-90)"/><rect class="cls-7" x="33.12" y="186.43" width="9.13" height="8.28" transform="translate(-152.89 228.25) rotate(-90)"/><rect class="cls-7" x="37.96" y="189.87" width="9.13" height="1.4" transform="translate(-148.05 233.09) rotate(-90)"/><rect class="cls-7" x="120.85" y="149.09" width="9.13" height="8.28"/><rect class="cls-7" x="120.85" y="157.37" width="9.13" height="1.4"/><rect class="cls-7" x="117.25" y="112.14" width="9.13" height="8.28" transform="translate(238.1 -5.54) rotate(90)"/><rect class="cls-7" x="112.41" y="115.58" width="9.13" height="1.4" transform="translate(233.26 -.7) rotate(90)"/><rect class="cls-7" x="254.01" y="186.51" width="9.13" height="8.28" transform="translate(449.22 -67.92) rotate(90)"/><rect class="cls-7" x="249.17" y="189.95" width="9.13" height="1.4" transform="translate(444.38 -63.08) rotate(90)"/><rect class="cls-7" x="254.01" y="155.86" width="9.13" height="8.28" transform="translate(418.57 -98.57) rotate(90)"/><rect class="cls-7" x="249.17" y="159.3" width="9.13" height="1.4" transform="translate(413.73 -93.73) rotate(90)"/><rect class="cls-7" x="254.01" y="125.22" width="9.13" height="8.28" transform="translate(387.93 -129.21) rotate(90)"/><rect class="cls-7" x="249.17" y="128.66" width="9.13" height="1.4" transform="translate(383.09 -124.37) rotate(90)"/><rect class="cls-7" x="254.01" y="94.57" width="9.13" height="8.28" transform="translate(357.28 -159.86) rotate(90)"/><rect class="cls-7" x="249.17" y="98.01" width="9.13" height="1.4" transform="translate(352.44 -155.02) rotate(90)"/><rect class="cls-7" x="159" y="127.19" width="9.13" height="8.28" transform="translate(32.23 294.9) rotate(-90)"/><rect class="cls-7" x="163.84" y="130.64" width="9.13" height="1.4" transform="translate(37.07 299.74) rotate(-90)"/><rect class="cls-7" x="159" y="96.21" width="9.13" height="8.28" transform="translate(63.21 263.92) rotate(-90)"/><rect class="cls-7" x="163.84" y="99.65" width="9.13" height="1.4" transform="translate(68.05 268.76) rotate(-90)"/><rect class="cls-7" x="117.25" y="81.16" width="9.13" height="8.28" transform="translate(207.12 -36.52) rotate(90)"/><rect class="cls-7" x="112.41" y="84.6" width="9.13" height="1.4" transform="translate(202.28 -31.68) rotate(90)"/><rect class="cls-7" x="100.73" y="20.91" width="9.13" height="8.28"/><rect class="cls-7" x="100.73" y="29.19" width="9.13" height="1.4"/><rect class="cls-7" x="131.38" y="20.91" width="9.13" height="8.28"/><rect class="cls-7" x="131.38" y="29.19" width="9.13" height="1.4"/><rect class="cls-7" x="33.12" y="155.86" width="9.13" height="8.28" transform="translate(-122.32 197.68) rotate(-90)"/><rect class="cls-7" x="37.96" y="159.3" width="9.13" height="1.4" transform="translate(-117.48 202.52) rotate(-90)"/><rect class="cls-7" x="33.12" y="125.29" width="9.13" height="8.28" transform="translate(-91.75 167.11) rotate(-90)"/><rect class="cls-7" x="37.96" y="128.73" width="9.13" height="1.4" transform="translate(-86.91 171.95) rotate(-90)"/><rect class="cls-7" x="33.12" y="94.72" width="9.13" height="8.28" transform="translate(-61.18 136.55) rotate(-90)"/><rect class="cls-7" x="37.96" y="98.16" width="9.13" height="1.4" transform="translate(-56.34 141.39) rotate(-90)"/><rect class="cls-7" x="33.12" y="64.16" width="9.13" height="8.28" transform="translate(-30.61 105.98) rotate(-90)"/><rect class="cls-7" x="37.96" y="67.6" width="9.13" height="1.4" transform="translate(-25.78 110.82) rotate(-90)"/><rect class="cls-7" x="33.12" y="33.59" width="9.13" height="8.28" transform="translate(-.05 75.41) rotate(-90)"/><rect class="cls-7" x="37.96" y="37.03" width="9.13" height="1.4" transform="translate(4.79 80.25) rotate(-90)"/><rect class="cls-7" x="119.3" y="108.38" width="29.11" height="15.8" transform="translate(17.57 250.14) rotate(-90)"/><rect class="cls-7" x="136.97" y="123.44" width="29.11" height="15.8" transform="translate(20.19 282.86) rotate(-90)"/><rect class="cls-7" x="136.97" y="92.45" width="29.11" height="15.8" transform="translate(51.18 251.88) rotate(-90)"/><rect class="cls-7" x="119.3" y="77.4" width="29.11" height="15.8" transform="translate(48.56 219.15) rotate(-90)"/><rect class="cls-8" x="144.09" y="68.16" width="15.3" height="16.21" transform="translate(75.47 228.01) rotate(-90)"/><rect class="cls-8" x="159.45" y="69.01" width="15.3" height="14.52" transform="translate(90.83 243.37) rotate(-90)"/><rect class="cls-8" x="173.68" y="69.3" width="15.3" height="13.94" transform="translate(105.06 257.6) rotate(-90)"/><polygon class="cls-5" points="287.29 194.89 290.12 194.89 290.12 84.32 297.82 84.32 297.82 69.19 290.12 69.19 290.12 2.65 287.29 2.65 287.29 194.89"/><path class="cls-8" d="M201.36,189.41c-11.75,0-21.28,9.53-21.28,21.28h21.28v-21.28Z"/><path class="cls-8" d="M158.8,210.69h21.28c0-11.75-9.53-21.28-21.28-21.28v21.28Z"/><rect class="cls-10" x="178.19" y="187.52" width="3.78" height="42.56" transform="translate(-28.72 388.88) rotate(-90)"/><rect class="cls-7" x="157.61" y="14.62" width="10.09" height="10.09" rx="5.05" ry="5.05" transform="translate(143 182.32) rotate(-90)"/><rect class="cls-7" x="172.57" y="14.62" width="10.09" height="10.09" rx="5.05" ry="5.05" transform="translate(157.95 197.27) rotate(-90)"/><rect class="cls-7" x="189.63" y="14.62" width="10.09" height="10.09" rx="5.05" ry="5.05" transform="translate(175.02 214.34) rotate(-90)"/><rect class="cls-7" x="204.59" y="14.62" width="10.09" height="10.09" rx="5.05" ry="5.05" transform="translate(189.97 229.29) rotate(-90)"/><rect class="cls-7" x="222.93" y="14.62" width="10.09" height="10.09" rx="5.05" ry="5.05" transform="translate(208.32 247.64) rotate(-90)"/><rect class="cls-7" x="237.89" y="14.62" width="10.09" height="10.09" rx="5.05" ry="5.05" transform="translate(223.27 262.59) rotate(-90)"/><rect class="cls-7" x="227.88" y="60.32" width="10.09" height="10.09" rx="5.05" ry="5.05" transform="translate(167.56 298.29) rotate(-90)"/><rect class="cls-7" x="242.83" y="60.32" width="10.09" height="10.09" rx="5.05" ry="5.05" transform="translate(182.52 313.24) rotate(-90)"/><rect class="cls-7" x="256.24" y="14.62" width="10.09" height="10.09" rx="5.05" ry="5.05" transform="translate(241.62 280.94) rotate(-90)"/><rect class="cls-7" x="271.19" y="14.62" width="10.09" height="10.09" rx="5.05" ry="5.05" transform="translate(256.57 295.9) rotate(-90)"/><rect class="cls-8" x="259.31" y="73" width="10.19" height="8.7" transform="translate(187.05 341.76) rotate(-90)"/><rect class="cls-8" x="269.64" y="73" width="10.19" height="8.7" transform="translate(197.39 352.09) rotate(-90)"/><rect class="cls-8" x="266.29" y="48.2" width="25.29" height="12.95" transform="translate(224.26 333.61) rotate(-90)"/><rect class="cls-8" x="274.43" y="31.05" width="7.45" height="14.51" transform="translate(239.85 316.46) rotate(-90)"/><rect class="cls-8" x="273.91" y="43.99" width="12.06" height="10.94" transform="translate(230.48 329.4) rotate(-90)"/><rect class="cls-8" x="273.59" y="45.83" width="10.55" height="7.26" rx="2" ry="2" transform="translate(229.4 328.32) rotate(-90)"/><rect class="cls-9" x="221.28" y="128.88" width="125.7" height="6.32" transform="translate(152.08 416.17) rotate(-90)"/><rect class="cls-9" x="217.55" y="143.49" width="124.96" height="1.88" transform="translate(135.6 424.46) rotate(-90)"/><path class="cls-3" d="M197.17,42.75c-.03-.07-.09-.17-.17-.3-.08-.13-.17-.26-.26-.4-.1-.13-.18-.23-.26-.29,1.54-.52,2.81-1.25,3.81-2.2,1-.95,1.73-2.15,2.17-3.59-.35,0-.77.02-1.25.04-.48.02-.98.03-1.49.04s-1.01.03-1.49.04c-.48.02-.9.03-1.27.04-.37.01-.64.02-.82.03l-.08-1.24c.21.02.5.03.86.03s.79,0,1.25,0,.95,0,1.44,0c.49,0,.97-.01,1.43-.02.46-.01.87-.03,1.23-.05.36-.02.63-.04.82-.05l.74.41c-.4,1.86-1.18,3.42-2.33,4.69-1.15,1.27-2.59,2.22-4.32,2.83Z"/><path class="cls-3" d="M207.32,39.29s0-.21,0-.48c0-.27,0-.61-.01-1.01s0-.82-.01-1.27c0-.44,0-.87-.02-1.27,0-.4-.02-.74-.02-1.01s-.02-.43-.02-.48h1.14v.49c0,.27,0,.6,0,.99s0,.8.02,1.24c0,.44.02.85.02,1.25,0,.4.01.73.02,1.01,0,.28.01.45.02.52h-1.14ZM207.98,43.36c-.03-.08-.09-.18-.18-.31s-.18-.25-.28-.37c-.1-.12-.19-.21-.27-.28,1.24-.53,2.16-1.24,2.77-2.13.6-.89.91-2.07.91-3.55v-1.02c0-.26,0-.55,0-.85,0-.3,0-.57-.01-.81,0-.24-.01-.39-.02-.46h1.18v3.14c0,1.1-.15,2.05-.44,2.88-.29.82-.74,1.53-1.34,2.14-.6.61-1.37,1.14-2.3,1.61Z"/><path class="cls-3" d="M215.06,38.97v-.8c0-.15,0-.26-.01-.34.2,0,.5.01.9.02.4,0,.87,0,1.4.01s1.1,0,1.69.01c.6,0,1.19,0,1.79,0s1.16,0,1.69,0c.53,0,.99,0,1.39-.02.4,0,.7-.02.89-.02v.26c0,.14,0,.31,0,.49,0,.18,0,.31,0,.38-.25,0-.62-.02-1.1-.02-.49,0-1.05-.01-1.67-.02-.63,0-1.28,0-1.96,0s-1.34,0-1.99,0c-.65,0-1.23.01-1.76.02-.52,0-.94.02-1.24.04Z"/><path class="cls-3" d="M226.39,42.58c-.08-.12-.19-.28-.33-.49-.14-.2-.27-.35-.39-.45.62-.26,1.23-.6,1.85-1.01.62-.41,1.2-.87,1.76-1.37.56-.51,1.07-1.05,1.52-1.62.46-.57.83-1.15,1.13-1.73-.37.02-.79.05-1.25.08-.47.03-.94.06-1.42.09-.48.03-.91.06-1.31.08-.4.02-.72.04-.95.06l-.13-1.16c.19,0,.48,0,.88-.01s.83-.02,1.31-.04c.48-.02.97-.04,1.45-.07.48-.03.92-.06,1.31-.08.39-.03.67-.06.86-.09l.74.48c-.2.55-.45,1.09-.76,1.62-.31.53-.66,1.04-1.06,1.54.27.22.56.46.88.73.31.27.62.55.92.85.3.29.59.57.85.84.26.27.48.51.65.73-.14.09-.3.21-.49.38-.19.16-.34.31-.45.45-.16-.22-.36-.47-.61-.75-.24-.28-.51-.56-.8-.85-.29-.29-.58-.57-.86-.85-.29-.27-.55-.51-.79-.71-.66.71-1.39,1.36-2.17,1.94-.78.58-1.56,1.06-2.34,1.43Z"/><path class="cls-3" d="M245.04,41.53c-.19-.13-.45-.32-.78-.58s-.69-.54-1.07-.87c-.39-.32-.77-.64-1.15-.96-.38-.32-.72-.62-1.02-.89-.3-.27-.53-.47-.68-.62-.13-.13-.23-.19-.31-.19s-.2.06-.36.18c-.21.17-.46.35-.76.55-.3.2-.61.39-.94.58s-.64.36-.94.52c-.3.16-.56.28-.79.37l-.68-1.02c.26-.09.56-.21.9-.38.34-.16.7-.35,1.07-.55.37-.2.72-.41,1.05-.63.33-.22.6-.42.83-.61.25-.21.47-.32.65-.32.19,0,.41.13.67.39.15.15.39.36.7.64.32.27.68.57,1.08.89.4.32.82.65,1.24.98s.83.63,1.21.89.71.47.97.62c-.14.11-.3.27-.49.48-.19.21-.33.39-.41.54ZM243.56,36.68c-.32,0-.6-.11-.83-.34-.23-.23-.35-.5-.35-.82s.12-.61.35-.83c.23-.23.51-.34.83-.34s.61.11.83.34c.23.23.34.51.34.83s-.11.59-.34.82c-.23.23-.51.34-.83.34ZM243.56,36.23c.2,0,.37-.07.52-.21.14-.14.22-.31.22-.51s-.07-.38-.22-.52c-.14-.14-.32-.21-.52-.21s-.37.07-.52.21c-.14.14-.22.31-.22.52s.07.37.22.51c.14.14.32.21.52.21Z"/><path class="cls-3" d="M247.07,38.97v-.8c0-.15,0-.26-.01-.34.2,0,.5.01.9.02.4,0,.87,0,1.4.01s1.1,0,1.69.01c.6,0,1.19,0,1.79,0s1.16,0,1.69,0c.53,0,.99,0,1.39-.02.4,0,.7-.02.89-.02v.26c0,.14,0,.31,0,.49,0,.18,0,.31,0,.38-.25,0-.62-.02-1.1-.02-.49,0-1.05-.01-1.67-.02-.63,0-1.28,0-1.96,0s-1.34,0-1.99,0c-.65,0-1.23.01-1.76.02-.52,0-.94.02-1.24.04Z"/><path class="cls-3" d="M258.4,42.58c-.08-.12-.19-.28-.33-.49-.14-.2-.27-.35-.39-.45.62-.26,1.23-.6,1.85-1.01.62-.41,1.2-.87,1.76-1.37.56-.51,1.07-1.05,1.52-1.62.46-.57.83-1.15,1.13-1.73-.37.02-.79.05-1.25.08-.47.03-.94.06-1.42.09-.48.03-.91.06-1.31.08-.4.02-.72.04-.95.06l-.13-1.16c.19,0,.48,0,.88-.01s.83-.02,1.31-.04c.48-.02.97-.04,1.45-.07.48-.03.92-.06,1.31-.08.39-.03.67-.06.86-.09l.74.48c-.2.55-.45,1.09-.76,1.62-.31.53-.66,1.04-1.06,1.54.27.22.56.46.88.73.31.27.62.55.92.85.3.29.59.57.85.84.26.27.48.51.65.73-.14.09-.3.21-.49.38-.19.16-.34.31-.45.45-.16-.22-.36-.47-.61-.75-.24-.28-.51-.56-.8-.85-.29-.29-.58-.57-.86-.85-.29-.27-.55-.51-.79-.71-.66.71-1.39,1.36-2.17,1.94-.78.58-1.56,1.06-2.34,1.43Z"/><path class="cls-3" d="M149.81,180.49v-1.14c.13,0,.39.01.79.02.4,0,.89,0,1.48.01.59,0,1.24,0,1.94,0v-3.44c-.48,0-.94,0-1.37,0-.44,0-.8,0-1.1.01s-.48.01-.56.02v-1.14c.1,0,.33.02.67.02.34,0,.77.01,1.28.02.51,0,1.07,0,1.68,0s1.16,0,1.67,0c.51,0,.94,0,1.28-.02.34,0,.56-.02.66-.02v1.14c-.13-.02-.47-.03-1.03-.03-.56,0-1.23,0-2.03,0v3.44c.68,0,1.31,0,1.88,0,.58,0,1.06,0,1.44-.02.38,0,.62-.01.72-.01v1.14c-.11-.02-.38-.03-.82-.03s-.98,0-1.63,0h-3.78c-.53,0-1.02,0-1.46,0s-.82,0-1.12.01c-.3,0-.49,0-.58.02Z"/><path class="cls-3" d="M163.5,176.62c-.09-.1-.23-.22-.41-.38-.19-.16-.39-.32-.62-.48-.22-.16-.44-.32-.65-.46-.21-.14-.39-.24-.53-.31l.74-.94c.14.08.32.19.53.34.21.14.43.3.65.46.22.16.43.32.62.47.19.15.34.28.44.37l-.78.92ZM162.07,181.95l-.62-1.12c.57-.14,1.16-.34,1.79-.62s1.24-.6,1.85-.97c.61-.37,1.2-.76,1.76-1.18.56-.42,1.07-.84,1.52-1.27.45-.42.82-.83,1.11-1.22.02.09.07.21.13.37.06.16.13.31.2.46s.13.26.17.33c-.38.48-.87.98-1.46,1.49-.59.51-1.24,1.01-1.96,1.48s-1.45.91-2.22,1.3c-.77.39-1.52.71-2.27.95Z"/><path class="cls-3" d="M173.69,182.67v-9.48h1.13v3.6l.49-.7c.19.14.44.31.75.5.31.19.64.39.99.59.35.21.69.39,1.03.56s.62.3.86.38c-.06.05-.14.15-.24.29-.1.14-.19.27-.27.41-.08.14-.15.24-.19.32-.22-.1-.48-.24-.78-.41-.3-.17-.62-.36-.95-.56-.33-.2-.65-.4-.94-.59-.3-.2-.54-.37-.74-.52v5.6h-1.13Z"/><path class="cls-3" d="M182.64,182.69c-.03-.07-.08-.17-.16-.3-.07-.13-.15-.26-.23-.4-.08-.13-.16-.23-.22-.29,1.46-.42,2.65-1.04,3.59-1.86.94-.82,1.62-1.79,2.05-2.93-.37.02-.8.04-1.3.06-.5.02-1.01.05-1.54.08s-1.04.05-1.53.08c-.49.02-.91.04-1.28.06-.36.02-.62.03-.77.05l-.1-1.15c.19,0,.48,0,.85,0,.38,0,.81-.01,1.3-.02.49-.01.99-.03,1.51-.04.52-.02,1.01-.03,1.49-.05.48-.02.89-.04,1.25-.07.36-.02.62-.05.78-.07l.64.38c-.37,1.54-1.08,2.86-2.12,3.95-1.05,1.09-2.45,1.93-4.2,2.53ZM182.35,174.49v-1.1c.35,0,.77.02,1.24.02.48,0,.98.01,1.51.01s1.01,0,1.48-.01c.48,0,.91-.02,1.3-.02v1.1c-.4-.02-.83-.03-1.28-.03s-.96,0-1.5,0h-.97c-.34,0-.67,0-.98,0-.31,0-.58.01-.8.03Z"/><path class="cls-3" d="M193.34,176.62c-.09-.1-.23-.22-.41-.38-.19-.16-.39-.32-.62-.48-.22-.16-.44-.32-.65-.46-.21-.14-.39-.24-.53-.31l.74-.94c.14.08.32.19.53.34.21.14.43.3.65.46.22.16.43.32.62.47.19.15.34.28.44.37l-.78.92ZM191.91,181.95l-.62-1.12c.57-.14,1.16-.34,1.79-.62s1.24-.6,1.85-.97c.61-.37,1.2-.76,1.76-1.18.56-.42,1.07-.84,1.52-1.27.45-.42.82-.83,1.11-1.22.02.09.07.21.13.37.06.16.13.31.2.46s.13.26.17.33c-.38.48-.87.98-1.46,1.49-.59.51-1.24,1.01-1.96,1.48s-1.45.91-2.22,1.3c-.77.39-1.52.71-2.27.95Z"/><path class="cls-3" d="M201.66,182.05c-.08-.12-.19-.28-.33-.49-.14-.21-.27-.35-.39-.45.62-.26,1.23-.6,1.85-1.01.62-.41,1.2-.87,1.76-1.37.56-.51,1.07-1.05,1.52-1.62.46-.57.83-1.15,1.13-1.73-.37.02-.79.05-1.25.08-.47.03-.94.06-1.42.09-.48.03-.91.06-1.31.08s-.72.04-.95.06l-.13-1.16c.19,0,.48,0,.88-.01s.83-.02,1.31-.04c.48-.02.97-.04,1.45-.07.48-.03.92-.06,1.31-.08.39-.03.67-.06.86-.09l.74.48c-.2.55-.45,1.09-.76,1.62-.31.53-.66,1.04-1.06,1.54.27.22.56.46.88.73.31.27.62.55.92.85.3.29.59.57.85.84.26.27.48.51.65.73-.14.09-.3.21-.49.38-.19.16-.34.31-.45.45-.16-.22-.36-.47-.61-.75s-.51-.56-.8-.85c-.29-.29-.58-.57-.86-.85-.29-.27-.55-.51-.79-.71-.66.71-1.39,1.36-2.17,1.94-.78.58-1.56,1.06-2.34,1.43Z"/><path class="cls-3" d="M196.97,99.37v-2.39h-3.71v1.7h-1.06v-2.46h4.76v-.73h-4.12v-.82h9.4v.82h-4.21v.73h4.81v2.46h-1.06v-1.7h-3.76v2.39h-1.07ZM198.13,105.21c-.42,0-.71-.06-.88-.19-.17-.13-.26-.34-.26-.63v-.97h-3.58v-3.59h8.16v3.59h-3.53v.55c0,.1.03.18.09.23s.18.08.35.08h2.86c.22,0,.39-.03.52-.1.13-.07.23-.2.3-.41.07-.2.12-.5.15-.89.11.06.27.13.46.2.2.07.37.13.51.17-.07.58-.17,1-.3,1.28s-.3.46-.52.55-.51.13-.86.13h-3.48ZM193.83,98.11v-.66h2.51v.66h-2.51ZM193.83,99.21v-.65h2.51v.65h-2.51ZM194.45,101.29h2.53v-.72h-2.53v.72ZM194.45,102.67h2.53v-.72h-2.53v.72ZM198.04,101.29h2.48v-.72h-2.48v.72ZM198.04,102.67h2.48v-.72h-2.48v.72ZM198.67,98.11v-.66h2.51v.66h-2.51ZM198.67,99.21v-.65h2.51v.65h-2.51Z"/><path class="cls-3" d="M207.27,105.14c0-.16-.04-.35-.09-.58-.05-.23-.11-.41-.16-.54h1.39c.17,0,.29-.03.36-.09.07-.06.11-.17.11-.33v-3.38h-4.94v-1.03h4.94v-1.76h.68c.17-.12.37-.28.62-.47s.48-.39.71-.59c.23-.2.41-.36.53-.49h-6.17v-1.01h7.8l.53.52c-.15.15-.35.34-.59.55-.24.22-.51.44-.79.68-.28.24-.57.47-.85.7-.28.23-.54.43-.77.62-.24.18-.43.32-.57.42v.85h4.86v1.03h-4.86v3.77c0,.4-.11.69-.33.88-.22.18-.55.28-1,.28h-1.4Z"/><path class="cls-3" d="M194.77,118.51l-.6-.47c0-.1.01-.3.02-.59s0-.63.01-1.02c0-.39,0-.78,0-1.18v-1.95c0-.31,0-.62,0-.91,0-.3,0-.55-.01-.76s0-.35-.02-.41h1.16c0,.15-.01.4-.02.73,0,.34,0,.7-.01,1.09s0,.76,0,1.09v2.95c.55-.21,1.15-.46,1.78-.76.64-.3,1.26-.62,1.88-.97.62-.34,1.18-.69,1.7-1.04.52-.35.93-.67,1.25-.98,0,.09.01.22.04.4.03.18.06.35.1.52s.07.29.08.37c-.32.26-.7.54-1.15.83-.44.29-.93.58-1.45.88-.52.29-1.06.57-1.62.85-.56.27-1.1.52-1.64.75-.54.23-1.04.42-1.51.57Z"/><path class="cls-3" d="M206,113.58c-.09-.1-.23-.22-.41-.38-.19-.16-.39-.32-.62-.48-.22-.16-.44-.32-.65-.46-.21-.14-.39-.24-.53-.31l.74-.94c.14.08.32.19.53.34.21.14.43.3.65.46.22.16.43.32.62.47.19.15.34.28.44.37l-.78.92ZM204.57,118.91l-.62-1.12c.57-.14,1.16-.34,1.79-.62.62-.28,1.24-.6,1.85-.97.61-.37,1.2-.76,1.76-1.18.56-.42,1.07-.84,1.52-1.27.45-.42.82-.83,1.11-1.22.02.09.07.21.13.37.06.16.13.31.2.46.07.15.13.26.17.33-.38.48-.87.98-1.46,1.49s-1.24,1.01-1.96,1.48-1.45.91-2.22,1.3c-.77.39-1.52.71-2.27.95Z"/><path class="cls-3" d="M216.68,115.29c-.1-.09-.25-.19-.44-.3-.19-.11-.39-.23-.62-.34-.22-.12-.44-.22-.65-.32s-.39-.17-.53-.22l.58-1c.16.06.35.15.56.25s.43.21.65.33.43.23.62.34c.19.11.34.2.44.27l-.6.98ZM216.02,119.21l-.6-1.12c.58-.16,1.17-.38,1.79-.65.62-.28,1.23-.6,1.83-.96.6-.37,1.18-.76,1.73-1.17.55-.41,1.05-.83,1.5-1.25.45-.42.82-.83,1.12-1.22.02.1.07.22.13.38.06.16.13.31.2.46s.13.26.17.34c-.4.49-.89.98-1.48,1.48-.58.5-1.23.98-1.93,1.45-.7.47-1.43.9-2.18,1.29-.76.39-1.51.72-2.27.98ZM218.29,112.86c-.08-.08-.22-.19-.41-.32s-.4-.28-.62-.43c-.22-.15-.44-.28-.64-.4-.2-.12-.37-.2-.49-.25l.62-.96c.14.08.32.19.53.32.21.13.42.27.64.41.22.14.42.28.61.41.19.13.33.23.43.31l-.67.91ZM222.3,112.32c-.11-.16-.25-.33-.42-.52-.17-.19-.34-.37-.52-.54-.18-.17-.34-.31-.48-.43l.5-.47c.13.1.29.25.47.43.19.18.37.37.55.56.18.19.32.36.41.49l-.53.47ZM223.28,111.39c-.11-.16-.25-.33-.43-.52-.17-.18-.35-.36-.53-.53-.18-.17-.35-.31-.5-.41l.5-.47c.14.1.3.24.49.42.19.18.38.37.56.56.18.19.32.35.42.47l-.53.48Z"/><path class="cls-3" d="M153.55,60.27l-.96-.6c.17-.21.36-.49.58-.82s.44-.68.66-1.06c.22-.38.43-.75.61-1.1.18-.36.33-.67.43-.93l.88.58c-.1.26-.24.56-.41.91s-.36.71-.57,1.08-.42.73-.62,1.07-.4.63-.59.88ZM154.81,53.5c-.3-.33-.63-.65-1-.97-.37-.32-.73-.59-1.09-.82l.67-.78c.24.15.49.33.76.53.26.2.52.41.76.62.24.21.45.4.63.58-.06.05-.13.13-.23.23-.1.11-.19.22-.28.33-.09.11-.17.2-.22.28ZM155.35,55.4c-.05-.07-.12-.16-.22-.26-.1-.1-.2-.21-.31-.3-.1-.1-.2-.17-.28-.22.4-.25.8-.55,1.21-.9.41-.35.79-.73,1.16-1.13.36-.4.69-.8.98-1.21.29-.41.52-.8.68-1.16l1.1.14c.18.28.44.6.76.95.32.35.69.71,1.09,1.07.4.36.82.69,1.25,1,.44.31.86.55,1.27.74-.08.07-.17.17-.27.29-.1.12-.2.24-.29.37s-.16.23-.21.31c-.49-.29-.99-.64-1.51-1.05-.52-.41-1.01-.86-1.46-1.33-.46-.48-.83-.95-1.13-1.41-.25.46-.55.91-.92,1.36-.36.45-.76.89-1.18,1.3h4.44v.97h-4.45v-.96c-.54.53-1.12,1.01-1.72,1.44ZM158.23,61.22v-4.14h-2.1v-.98h6.62v3.04c0,.38-.11.65-.32.83-.22.18-.54.26-.96.26h-1.16c-.02-.14-.05-.33-.1-.55-.05-.22-.1-.39-.14-.5h1.14c.16,0,.28-.03.35-.09.07-.06.11-.17.11-.32v-1.68h-2.34v4.14h-1.09Z"/><path class="cls-3" d="M170.65,61.3c-.07-.1-.17-.22-.31-.38-.13-.16-.25-.27-.37-.34.08-.04.16-.08.23-.12.07-.04.15-.09.23-.15h-3.37v-5.24h3.96v.77h-1.21v.73h1.15v2.22h-1.15v.76h1.21v.34c.22-.18.42-.37.62-.58.2-.21.39-.43.56-.65-.21-.56-.38-1.19-.5-1.88-.13-.69-.22-1.45-.28-2.27h-5.02v1.75c0,.98-.09,1.91-.26,2.78s-.47,1.58-.89,2.15c-.05-.04-.13-.09-.25-.15-.12-.06-.24-.12-.36-.17s-.21-.09-.26-.1c.4-.5.67-1.14.82-1.92.15-.78.22-1.63.22-2.54v-2.68h5.96c0-.09,0-.18,0-.28,0-.1,0-.19,0-.28h-.49v-.88h-1.91v.95h-1.04v-.95h-3.19v-.82h3.19v-1.04h1.04v1.04h1.91v-1.04h1.03v1.04h3.44v.82h-1.86c.18.14.38.31.58.51s.35.36.46.5l-.5.42h1.32v.88h-2.95c.03.6.09,1.16.17,1.69.08.52.18,1.01.31,1.45.21-.38.39-.76.55-1.16.16-.4.28-.8.37-1.21l.96.31c-.3,1.14-.79,2.21-1.45,3.19.14.27.29.52.46.74.17.22.35.41.55.56.06-.1.12-.24.2-.42.08-.18.15-.36.22-.56.07-.2.12-.37.16-.52.06.04.15.09.26.15s.22.12.34.17.21.09.27.11c-.1.38-.23.75-.38,1.11-.15.36-.29.64-.43.85-.1.18-.25.28-.44.3-.19.02-.38-.03-.56-.16-.26-.18-.49-.39-.7-.64-.21-.25-.41-.53-.59-.84-.29.34-.6.66-.94.95-.34.29-.69.54-1.07.76ZM167.98,56.56h.94v-.73h-.94v.73ZM167.98,58.04h2.06v-.73h-2.06v.73ZM167.98,59.54h.94v-.76h-.94v.76ZM172.36,53.61h1.31c-.13-.16-.27-.32-.43-.49s-.3-.3-.44-.4l.64-.54h-1.52v.55h.44v.88Z"/><path class="cls-3" d="M182.45,61.19v-1.4h-3.72v-.87h3.72v-.66h-2.83v-3.7h2.83v-.62h-3.34v-.82h3.34v-.9h-3.85v3.17c0,.88-.04,1.66-.13,2.34-.09.68-.23,1.29-.41,1.82-.19.53-.43,1.02-.71,1.47-.06-.04-.16-.09-.28-.16s-.24-.12-.36-.18-.21-.09-.28-.11c.38-.58.66-1.29.86-2.13.2-.83.29-1.83.29-2.99v-4.14h4.27v-1.09h1.13v1.09h4.42v.91h-3.92v.9h3.59v.82h-3.59v.62h2.86v3.7h-2.86v.66h3.9v.87h-3.9v1.4h-1.02ZM180.68,56.07h1.78v-.76h-1.78v.76ZM180.68,57.52h1.78v-.77h-1.78v.77ZM183.47,56.07h1.8v-.76h-1.8v.76ZM183.47,57.52h1.8v-.77h-1.8v.77Z"/><path class="cls-3" d="M62.05,57.68v-6.05h6.91v6.05h-6.91ZM63.18,56.63h4.66v-3.94h-4.66v3.94Z"/><path class="cls-3" d="M71.59,55.19v-.8c0-.15,0-.26-.01-.34.2,0,.5.01.9.02.4,0,.87,0,1.4.01s1.1,0,1.69.01c.6,0,1.19,0,1.79,0s1.16,0,1.69,0c.53,0,.99,0,1.39-.02.4,0,.7-.02.89-.02v.26c0,.14,0,.31,0,.49s0,.31,0,.38c-.25,0-.62-.02-1.1-.02-.49,0-1.05-.01-1.67-.02s-1.28,0-1.96,0-1.34,0-1.99,0c-.65,0-1.23,0-1.76.02-.52,0-.94.02-1.24.04Z"/><path class="cls-3" d="M82.64,58.65c-.05-.08-.12-.18-.22-.29-.1-.11-.2-.22-.31-.33s-.2-.19-.28-.26c.88-.46,1.54-1,1.98-1.6.44-.6.71-1.29.82-2.07.1-.78.08-1.66-.06-2.65l1.08-.1c.17,1.13.18,2.14.04,3.04-.14.9-.46,1.7-.95,2.39-.5.7-1.2,1.31-2.1,1.85ZM87.88,58.27l-.61-.49c0-.11.01-.31.02-.58s0-.6.01-.96c0-.36,0-.74,0-1.13v-1.09c0-.57,0-1.13,0-1.68,0-.55-.01-.99-.03-1.31h1.16c0,.15-.01.4-.02.74,0,.34,0,.71-.01,1.1s0,.76,0,1.1v2.82c.34-.15.71-.34,1.13-.55s.83-.44,1.24-.68.78-.48,1.12-.71c.34-.23.6-.44.78-.61,0,.1.01.24.04.42.02.18.05.34.09.5s.06.27.08.33c-.26.22-.61.47-1.04.74-.43.27-.88.54-1.37.8-.48.27-.95.51-1.41.73-.46.22-.84.39-1.16.52Z"/><path class="cls-3" d="M94.07,58.8c-.08-.12-.19-.28-.33-.49-.14-.2-.27-.35-.39-.45.62-.26,1.23-.6,1.85-1.01.62-.41,1.2-.87,1.76-1.37.56-.51,1.07-1.05,1.52-1.62.46-.57.83-1.15,1.13-1.73-.37.02-.79.05-1.25.08-.47.03-.94.06-1.42.09-.48.03-.91.06-1.31.08-.4.02-.72.04-.95.06l-.13-1.16c.19,0,.48,0,.88-.01.39,0,.83-.02,1.31-.04.48-.02.97-.04,1.45-.07.48-.03.92-.06,1.31-.08.39-.03.67-.06.86-.09l.74.48c-.2.55-.45,1.09-.76,1.62-.31.53-.66,1.04-1.06,1.54.27.22.56.46.88.73.31.27.62.55.92.85.3.29.59.57.85.84.26.27.48.51.65.73-.14.09-.3.21-.49.38-.19.16-.34.31-.45.45-.16-.22-.36-.47-.61-.75-.24-.28-.51-.56-.8-.85-.29-.29-.58-.57-.86-.85s-.55-.51-.79-.71c-.66.71-1.39,1.36-2.17,1.94-.78.58-1.56,1.06-2.34,1.43Z"/><path class="cls-3" d="M105.26,59.48c-.04-.09-.1-.2-.19-.32-.09-.13-.18-.25-.27-.37-.09-.12-.17-.21-.25-.28.98-.39,1.91-.89,2.77-1.5.86-.61,1.63-1.3,2.31-2.08.68-.78,1.21-1.6,1.61-2.46-.25,0-.52.02-.82.04-.3.02-.6.03-.89.04s-.55.02-.78.02c-.23,0-.4.01-.51.01-.82,1.07-1.78,1.98-2.89,2.72-.05-.06-.13-.15-.23-.25-.11-.1-.22-.21-.33-.31-.11-.1-.21-.17-.29-.22.6-.35,1.17-.78,1.7-1.3s1.01-1.07,1.42-1.67.72-1.2.95-1.79l1.06.38c-.1.24-.2.48-.32.71-.12.23-.24.46-.38.68.26,0,.56-.02.88-.02.32,0,.64-.02.95-.03.31-.01.59-.02.82-.04.24-.01.39-.02.46-.03l.67.4c-.38,1.1-.94,2.14-1.67,3.12-.73.98-1.59,1.85-2.57,2.62-.99.77-2.06,1.41-3.22,1.91Z"/><path class="cls-3" d="M116.2,55.51s0-.21,0-.48c0-.27,0-.61-.01-1.01,0-.4,0-.82-.01-1.27,0-.44,0-.87-.02-1.27,0-.4-.02-.74-.02-1.01s-.02-.43-.02-.48h1.14v.49c0,.27,0,.6,0,.99,0,.39,0,.8.02,1.24,0,.44.02.85.02,1.25,0,.4.01.73.02,1.01,0,.28.01.45.02.52h-1.14ZM116.86,59.58c-.03-.08-.09-.18-.18-.31s-.18-.25-.28-.37c-.1-.12-.19-.21-.27-.28,1.24-.53,2.16-1.24,2.77-2.13.6-.89.91-2.07.91-3.54v-1.02c0-.26,0-.55,0-.85,0-.3,0-.57-.01-.81,0-.24-.01-.39-.02-.46h1.18v3.14c0,1.1-.15,2.05-.44,2.87-.29.82-.74,1.54-1.34,2.14-.6.61-1.37,1.14-2.3,1.61Z"/><path class="cls-3" d="M123.94,55.19v-.8c0-.15,0-.26-.01-.34.2,0,.5.01.9.02.4,0,.87,0,1.4.01s1.1,0,1.69.01c.6,0,1.19,0,1.79,0s1.16,0,1.69,0c.53,0,.99,0,1.39-.02.4,0,.7-.02.89-.02v.26c0,.14,0,.31,0,.49s0,.31,0,.38c-.25,0-.62-.02-1.1-.02-.49,0-1.05-.01-1.67-.02s-1.28,0-1.96,0-1.34,0-1.99,0c-.65,0-1.23,0-1.76.02-.52,0-.94.02-1.24.04Z"/><path class="cls-3" d="M137.12,53.38c-.09-.1-.23-.22-.41-.38-.19-.16-.39-.32-.62-.48-.22-.16-.44-.32-.65-.46s-.39-.24-.53-.31l.74-.94c.14.08.32.19.53.34s.43.3.65.46c.22.16.43.32.62.47.19.15.34.28.44.37l-.78.92ZM135.69,58.7l-.62-1.12c.57-.13,1.16-.34,1.79-.62.62-.28,1.24-.6,1.85-.97.61-.37,1.2-.76,1.76-1.18.56-.42,1.07-.84,1.52-1.27.45-.42.82-.83,1.11-1.22.02.09.07.21.13.37.06.16.13.31.2.46s.13.26.17.33c-.38.48-.87.98-1.46,1.49s-1.24,1.01-1.96,1.48c-.71.48-1.45.91-2.22,1.3-.77.39-1.52.71-2.27.95Z"/><path class="cls-3" d="M62.68,76.07c-.03-.07-.09-.18-.17-.31s-.17-.27-.26-.4c-.1-.13-.18-.23-.26-.29,1.54-.52,2.81-1.25,3.81-2.2s1.73-2.15,2.17-3.59c-.35,0-.77.02-1.25.04-.48.02-.98.03-1.49.04-.52.01-1.02.03-1.5.04-.48.02-.91.03-1.28.04-.37.01-.64.02-.82.03l-.07-1.24c.21.02.5.03.86.03.37,0,.79,0,1.25,0s.95,0,1.44,0c.49,0,.97-.01,1.43-.02.46-.01.87-.03,1.23-.04.36-.02.63-.03.82-.05l.74.4c-.4,1.86-1.18,3.42-2.33,4.69-1.15,1.27-2.59,2.22-4.32,2.84ZM70.1,68.79c-.1-.17-.24-.35-.4-.54-.16-.19-.32-.38-.49-.56-.17-.18-.32-.33-.47-.45l.54-.43c.12.1.27.25.45.44.18.19.36.39.53.59.17.2.31.37.4.5l-.56.44ZM71.11,67.93c-.1-.17-.24-.35-.4-.53s-.33-.37-.51-.55-.34-.32-.48-.43l.53-.44c.13.1.28.25.47.44.18.19.36.38.54.58.18.2.31.36.41.5l-.55.44Z"/><path class="cls-3" d="M71.23,72.19v-.8c0-.15,0-.26-.01-.34.2,0,.5.01.9.02.4,0,.87,0,1.4.01s1.1,0,1.69.01c.6,0,1.19,0,1.79,0s1.16,0,1.69,0c.53,0,.99,0,1.39-.02.4,0,.7-.02.89-.02v.26c0,.14,0,.31,0,.49s0,.31,0,.38c-.25,0-.62-.02-1.1-.02-.49,0-1.05-.01-1.67-.02-.63,0-1.28,0-1.96,0s-1.34,0-1.99,0c-.65,0-1.23,0-1.76.02-.52,0-.94.02-1.24.04Z"/><path class="cls-3" d="M82.55,75.8c-.08-.12-.19-.28-.33-.49-.14-.2-.27-.35-.39-.45.62-.26,1.23-.6,1.85-1.01.62-.41,1.2-.87,1.76-1.37.56-.51,1.07-1.05,1.52-1.62.46-.57.83-1.15,1.13-1.73-.37.02-.79.05-1.25.08-.47.03-.94.06-1.42.09-.48.03-.91.06-1.31.08-.4.02-.72.04-.95.06l-.13-1.16c.19,0,.48,0,.88-.01.39,0,.83-.02,1.31-.04.48-.02.97-.04,1.45-.07.48-.03.92-.06,1.31-.08.39-.03.67-.06.86-.09l.74.48c-.2.55-.45,1.09-.76,1.62-.31.53-.66,1.04-1.06,1.54.27.22.56.46.88.73.31.27.62.55.92.85.3.29.59.57.85.84.26.27.48.51.65.73-.14.09-.3.21-.49.38-.19.16-.34.31-.45.45-.16-.22-.36-.47-.61-.75-.24-.28-.51-.56-.8-.85-.29-.29-.58-.57-.86-.85s-.55-.51-.79-.71c-.66.71-1.39,1.36-2.17,1.94-.78.58-1.56,1.06-2.34,1.43Z"/><polyline class="cls-6" points="203.1 88.23 203.1 75.48 184.65 75.48"/><line class="cls-6" x1="167.1" y1="63.28" x2="167.1" y2="72.44"/></g></svg>