<?xml version="1.0" encoding="UTF-8"?><svg id="_レイヤー_2" xmlns="http://www.w3.org/2000/svg" viewBox="0 0 86.74 86.74"><defs><style>.cls-1{fill:#013b5c;}.cls-1,.cls-2,.cls-3{stroke-width:0px;}.cls-2{fill:#fff;}.cls-3{fill:#016daa;}</style></defs><g id="_レイヤー_1-2"><rect class="cls-2" width="86.74" height="86.74" rx="10" ry="10"/><path class="cls-3" d="M36.12,31.03l-5.74.02h-.61,0s-.02,0-.02,0l2.81,26.59h21.65l2.49-23.83.29-2.76h0v-.02s-16.85.02-16.85.02l-4.01-.02ZM39.97,41.84c1.26,0,2.28,1.02,2.28,2.28s-1.02,2.28-2.28,2.28-2.28-1.02-2.28-2.28,1.02-2.28,2.28-2.28ZM48.49,48.56c.94,0,1.7.76,1.7,1.7s-.76,1.7-1.7,1.7-1.7-.76-1.7-1.7.76-1.7,1.7-1.7ZM47.82,39.48c-1.67,0-3.02-1.36-3.02-3.02s1.36-3.02,3.02-3.02,3.02,1.35,3.02,3.02c0,1.67-1.35,3.02-3.02,3.02Z"/><polygon class="cls-1" points="61.09 26.74 60.74 30.76 57.19 60.87 29.59 60.89 26.02 30.76 25.66 26.74 19.76 26.74 24.58 67.33 62.19 67.33 66.98 26.74 61.09 26.74"/></g></svg>