<?xml version="1.0" encoding="UTF-8"?><svg id="_レイヤー_2" xmlns="http://www.w3.org/2000/svg" viewBox="0 0 324.66 56.39"><defs><style>.cls-1{fill:#00b900;}.cls-1,.cls-2{stroke-width:0px;}.cls-2{fill:#fff;}</style></defs><g id="_レイヤー_1-2"><rect class="cls-1" x="0" y="0" width="324.66" height="56.39" rx="28.2" ry="28.2"/><path class="cls-2" d="M132.43,27.7c-.28.16-.54.21-.8.16-.26-.05-.46-.19-.62-.43-.14-.23-.18-.47-.12-.73s.23-.46.5-.6c.42-.23.84-.48,1.27-.76.43-.28.83-.56,1.21-.86-.13-.13-.3-.28-.5-.45-.2-.17-.38-.33-.56-.48-.17-.15-.31-.27-.42-.35-.18-.14-.28-.34-.29-.58-.01-.25.07-.45.23-.62.17-.18.37-.28.61-.3.24-.02.46.05.67.21.1.07.25.19.45.36.2.17.41.34.63.53.22.19.4.35.54.48.42-.41.79-.83,1.12-1.26.32-.44.22-.67-.31-.67h-2.88c-.23,0-.43-.08-.6-.25-.17-.17-.26-.37-.26-.59s.09-.44.26-.6c.17-.16.37-.24.6-.24h3.53c.7,0,1.21.13,1.55.4.34.26.51.6.51,1.02,0,.41-.15.86-.48,1.34-.18.26-.37.53-.57.79-.2.26-.41.52-.64.77h4.73c-.89-1.02-1.64-2.15-2.27-3.38-.12-.24-.13-.48-.03-.71.1-.23.26-.4.48-.51.24-.11.48-.13.72-.05.24.07.43.23.56.49.13.24.27.48.42.72s.3.48.46.72c.17-.14.35-.3.56-.48.2-.17.4-.34.58-.5.19-.16.32-.28.41-.37.18-.17.39-.25.64-.26.25,0,.46.09.64.28.17.18.26.39.27.64.01.25-.08.45-.27.62-.1.08-.25.22-.46.4-.21.18-.43.37-.67.56-.23.19-.44.36-.62.5.13.13.26.26.39.4s.25.26.39.4c.14-.12.34-.28.58-.49.24-.2.47-.41.7-.6.23-.2.4-.34.5-.44.18-.17.39-.25.64-.26.25,0,.45.09.62.28.18.18.28.39.29.64.01.25-.08.45-.27.62-.1.08-.24.21-.44.38-.2.17-.41.35-.63.53-.22.19-.42.35-.6.5.31.23.63.44.96.65.33.2.68.4,1.05.58.24.12.4.31.49.58s.06.52-.07.76c-.17.3-.41.47-.71.52-.31.05-.6,0-.87-.14-.61-.35-1.19-.72-1.75-1.12-.55-.4-1.07-.82-1.57-1.26-.05.2-.16.38-.32.52-.17.14-.37.22-.59.22h-5c-.24,0-.45-.08-.63-.25s-.28-.37-.31-.59c-.55.53-1.14,1.02-1.75,1.48s-1.25.86-1.88,1.21ZM132.41,35.42c-.24,0-.45-.09-.63-.26-.18-.17-.27-.38-.27-.62s.09-.46.27-.64c.18-.17.39-.26.63-.26h3.82c-.06-.17-.11-.36-.14-.58-.04-.22-.04-.44-.03-.65s.06-.36.13-.46c.04-.05.07-.09.11-.12.04-.03.07-.06.11-.08-.86-.08-1.46-.31-1.78-.68-.32-.37-.49-.95-.49-1.75,0-.62.1-1.11.29-1.47.19-.35.52-.61.99-.77.47-.16,1.11-.23,1.93-.23h4.12c.82,0,1.45.08,1.92.23.46.16.79.41.98.77.19.35.29.84.29,1.47,0,.71-.13,1.25-.38,1.62-.25.37-.71.62-1.37.74.13.13.22.29.26.48.04.19.02.37-.06.55-.04.1-.09.23-.17.4s-.16.35-.24.54h3.8c.24,0,.45.09.63.26s.27.39.27.64-.09.45-.27.62-.39.26-.63.26h-14.08ZM137.14,30.04h4.52c.32,0,.55-.05.68-.14.13-.1.2-.29.2-.59s-.07-.49-.2-.58c-.13-.09-.36-.13-.68-.13h-4.52c-.34,0-.57.04-.7.13-.13.09-.2.29-.2.58s.07.5.2.59c.13.1.37.14.7.14ZM138.31,33.64h2.12c.1-.24.22-.53.36-.86s.26-.61.34-.81c.02-.04.04-.07.05-.1.01-.03.02-.06.04-.08h-3.96c.16.1.32.26.5.5.18.24.31.45.38.63.04.1.07.21.1.33s.05.26.06.39Z"/><path class="cls-2" d="M151.1,35.37c-.3.06-.57.03-.8-.1-.23-.13-.38-.34-.44-.64-.05-.26,0-.5.15-.72.15-.22.38-.35.68-.4.31-.05.65-.11,1.02-.17.37-.07.75-.13,1.14-.21v-4.43h-1.93c-.23,0-.42-.08-.58-.23-.16-.16-.24-.35-.24-.58,0-.24.08-.44.24-.59.16-.16.36-.23.58-.23h1.93v-1.35h-.99c-.23,0-.43-.09-.59-.26-.17-.17-.25-.38-.25-.6v-.11c-.19.19-.43.29-.71.3-.28,0-.52-.1-.73-.31-.18-.2-.26-.44-.25-.69.01-.26.11-.46.31-.62.3-.28.62-.59.95-.94.34-.35.66-.71.97-1.08s.58-.71.81-1.02c.42-.55.91-.81,1.48-.78.57.03,1.07.27,1.5.73.31.34.68.71,1.11,1.12s.79.76,1.11,1.04c.2.17.31.38.32.65,0,.26-.08.5-.26.7-.19.19-.43.29-.7.31-.28.01-.52-.07-.72-.25-.26-.24-.58-.54-.95-.91s-.67-.69-.91-.98c-.17-.2-.32-.31-.46-.31s-.29.11-.46.34c-.22.28-.48.59-.78.95-.31.36-.61.71-.93,1.04.04-.01.08-.02.14-.02h4.1c.24,0,.44.08.6.24.16.16.24.36.24.6,0,.23-.08.43-.24.6-.16.17-.36.26-.6.26h-1.26v1.35h1.67c.23,0,.42.08.58.23s.23.35.23.59c0,.23-.08.42-.23.58-.16.16-.35.23-.58.23h-1.67v4.07c.24-.05.47-.1.69-.14.22-.05.43-.09.62-.13.29-.06.53-.03.73.1s.32.31.37.55c.13.56-.1.92-.7,1.08-.43.11-.97.23-1.61.37-.64.14-1.29.28-1.95.41-.66.14-1.24.25-1.75.35ZM152.04,32.67c-.23.08-.45.08-.66-.03-.21-.1-.35-.25-.4-.44-.05-.14-.12-.33-.21-.57-.09-.23-.18-.47-.26-.71-.08-.24-.16-.43-.22-.56-.08-.22-.07-.42.04-.62.11-.2.28-.33.5-.41.24-.08.46-.08.65,0,.19.08.33.24.41.47.06.14.13.34.23.58.09.24.18.47.26.7.08.23.14.4.18.52.07.23.06.44-.04.63-.1.19-.26.34-.49.43ZM155.37,32.18c-.19-.08-.33-.23-.41-.42-.08-.2-.08-.39.02-.58.06-.12.13-.28.22-.49s.17-.41.26-.62.15-.38.19-.5c.1-.25.26-.43.49-.52.23-.1.46-.1.68,0,.2.08.35.23.45.43s.09.43-.02.67c-.05.12-.12.29-.22.5-.1.22-.19.43-.29.64-.1.21-.17.38-.23.5-.11.2-.27.34-.49.41-.22.07-.43.07-.65-.02ZM160.08,35.82c-.3,0-.54-.09-.72-.27-.18-.18-.28-.41-.31-.68-.01-.24.07-.46.24-.66s.4-.3.67-.31c.31-.02.53-.08.64-.17.11-.09.17-.27.17-.53v-.86c-.22.11-.47.24-.77.39-.29.15-.58.29-.85.42-.28.13-.52.24-.72.32-.26.11-.52.11-.77,0-.25-.1-.42-.29-.51-.57-.1-.26-.09-.51.02-.74.11-.23.29-.39.54-.49.22-.07.51-.19.89-.34.38-.16.77-.32,1.17-.49.4-.17.73-.31,1-.43v-3.37h-2.9c-.24,0-.45-.09-.62-.26s-.26-.38-.26-.62.09-.45.26-.62c.17-.17.38-.26.62-.26h4.66v-1.04h-3.64c-.23,0-.43-.09-.59-.26-.17-.17-.25-.38-.25-.6s.08-.44.25-.6c.17-.16.37-.24.59-.24h3.64v-.11c0-.38-.06-.63-.18-.74-.12-.11-.39-.16-.81-.16h-2.81c-.23,0-.43-.09-.59-.26s-.25-.38-.25-.6c0-.24.08-.45.25-.62s.37-.26.59-.26h2.81c.79,0,1.4.08,1.83.22.43.15.72.41.89.78.17.37.25.91.25,1.6v2.9h1.15c.24,0,.45.09.62.26.17.17.26.38.26.62s-.09.45-.26.62-.38.26-.62.26h-2.99v1.53c.06.08.12.17.17.25.05.08.11.17.17.27.18-.16.37-.33.58-.51.2-.19.4-.36.58-.53.18-.17.31-.29.4-.38.18-.17.4-.24.66-.23.26.02.46.12.62.32.17.18.25.39.24.63,0,.24-.1.44-.3.61-.17.16-.42.38-.76.66-.34.28-.66.54-.95.77.37.42.76.83,1.15,1.21.4.39.77.73,1.12,1.02.22.17.33.38.33.65,0,.26-.08.49-.26.68-.19.22-.43.33-.71.34-.28.01-.53-.08-.75-.27-.37-.34-.76-.74-1.15-1.2-.4-.46-.77-.94-1.13-1.43v1.98c0,.84-.2,1.45-.6,1.83-.4.38-1.07.57-2.01.57ZM159.99,30.38c-.2.16-.43.21-.67.16-.25-.05-.45-.17-.6-.38-.05-.07-.13-.18-.25-.33-.12-.15-.24-.3-.36-.46-.12-.16-.21-.27-.27-.34-.16-.19-.22-.41-.18-.66.04-.25.16-.43.36-.57.23-.16.46-.22.71-.2s.45.14.6.34c.06.06.15.17.28.33.13.16.25.32.38.48.13.16.21.26.24.32.17.22.23.44.18.68-.05.24-.19.44-.41.61Z"/><path class="cls-2" d="M170.86,35.05c-.3.05-.57-.01-.81-.18-.24-.17-.39-.4-.45-.68-.07-.4-.13-.94-.16-1.62-.04-.68-.06-1.45-.07-2.3-.01-.85,0-1.74,0-2.65.02-.92.05-1.81.1-2.68s.11-1.66.19-2.38c.08-.71.17-1.29.28-1.74.07-.29.23-.51.49-.67.25-.16.52-.2.81-.13.29.07.51.23.67.49s.2.52.13.81c-.11.44-.2,1-.27,1.67s-.13,1.41-.18,2.21c-.05.8-.08,1.62-.1,2.46-.02.84-.02,1.65,0,2.44.01.79.04,1.5.08,2.14.04.64.1,1.17.17,1.57.06.29,0,.55-.17.79-.17.24-.41.39-.69.45ZM176.86,35.03c-.96,0-1.73-.24-2.31-.71-.58-.47-.87-1.16-.87-2.04s.29-1.53.87-2.03c.58-.5,1.38-.75,2.4-.75.31,0,.63.02.95.05-.01-.56-.03-1.18-.04-1.85-.02-.67-.04-1.35-.06-2.04-.64.04-1.25.06-1.85.07-.59.01-1.11.01-1.54,0-.3-.01-.55-.12-.75-.33-.2-.21-.29-.46-.28-.76.02-.29.14-.53.35-.73s.46-.29.75-.28c.42.01.92.02,1.49,0,.57,0,1.17-.03,1.79-.06-.01-.46-.02-.89-.02-1.31v-1.19c0-.3.1-.55.31-.76.2-.21.46-.32.76-.32s.57.11.77.32.31.46.31.76c0,.37,0,.76,0,1.15,0,.4,0,.8,0,1.21.53-.05,1.01-.1,1.45-.14.44-.05.81-.1,1.11-.14.29-.06.55,0,.79.17.24.17.38.41.43.69.05.29-.02.55-.19.79-.17.24-.4.38-.69.41-.34.05-.75.1-1.25.15-.5.05-1.04.11-1.61.15.02.84.05,1.65.07,2.43.02.78.04,1.47.05,2.07.66.22,1.28.47,1.86.77.58.3,1.09.61,1.52.94.24.18.38.42.43.71.05.29-.01.56-.18.8s-.4.39-.69.45c-.29.06-.56,0-.8-.18-.3-.23-.63-.45-.99-.67-.36-.22-.73-.41-1.12-.58-.12,1.84-1.2,2.75-3.24,2.75ZM176.86,32.99c.74,0,1.12-.35,1.12-1.06,0-.04,0-.08,0-.14,0-.06,0-.13,0-.2-.36-.07-.73-.11-1.1-.11s-.65.07-.82.22c-.17.14-.26.33-.26.56s.08.41.25.54c.17.13.44.2.83.2Z"/><path class="cls-2" d="M198.06,33.82c-1.81.42-3.43.6-4.85.55s-2.6-.33-3.55-.82c-.94-.49-1.6-1.19-1.97-2.09-.12-.28-.12-.55,0-.83.12-.28.32-.47.59-.58.28-.12.55-.12.82,0,.27.12.46.32.57.59.23.52.7.91,1.4,1.19.71.28,1.62.41,2.73.41,1.11,0,2.37-.18,3.77-.53.29-.07.56-.03.81.14.25.16.41.39.49.67.06.29.01.56-.14.81-.16.25-.38.41-.67.49ZM196.41,23.98c-.65-.17-1.34-.3-2.08-.39s-1.47-.14-2.19-.15c-.72-.01-1.39.01-2.02.07-.3.04-.57-.04-.8-.22-.23-.18-.37-.42-.41-.72s.04-.57.22-.8c.18-.23.42-.37.72-.41.72-.07,1.51-.09,2.38-.06.86.03,1.71.09,2.53.19s1.54.22,2.15.38c.29.08.51.25.67.5.16.25.2.51.13.8-.06.29-.22.51-.48.67s-.53.21-.82.14Z"/><path class="cls-2" d="M208.72,35.55c-.3.01-.56-.09-.77-.3-.22-.21-.34-.46-.36-.76-.01-.3.09-.56.3-.78.21-.22.46-.33.76-.33,1.72-.05,2.94-.34,3.68-.87.74-.53,1.11-1.31,1.11-2.33,0-.56-.18-1.01-.55-1.35s-.85-.54-1.44-.6c-.59-.07-1.25.03-1.95.28-.71.25-1.4.68-2.09,1.28-.18.16-.39.24-.62.24-.23,0-.45-.05-.66-.17-.19-.13-.33-.31-.41-.52s-.1-.44-.04-.67c.17-.58.32-1.25.45-2.03.13-.78.24-1.56.32-2.34-.59.01-1.14.01-1.66,0-.52,0-.97-.02-1.35-.04-.29-.02-.52-.15-.71-.38-.19-.23-.27-.49-.24-.77.02-.29.15-.52.38-.71.23-.19.49-.27.77-.24.4.04.86.06,1.38.07.52.01,1.07.01,1.63,0,.02-.34.04-.64.05-.93.01-.28.02-.53.02-.75,0-.3.1-.55.3-.76s.45-.32.75-.33.56.08.77.29c.22.2.32.46.32.76,0,.2,0,.44-.03.72-.02.28-.04.58-.06.9,1.2-.07,2.24-.21,3.11-.41.29-.06.55,0,.8.15.25.16.39.39.44.68.06.29.01.55-.14.79-.16.24-.38.39-.67.45-.52.1-1.1.18-1.75.25-.65.07-1.32.13-2.02.18-.06.53-.13,1.05-.22,1.56-.08.51-.17.97-.25,1.38.67-.38,1.36-.64,2.05-.77s1.37-.15,2.02-.05c.65.1,1.23.31,1.75.63.52.32.92.75,1.22,1.29.3.53.45,1.17.45,1.9,0,1.7-.61,3.02-1.82,3.94-1.21.92-2.89,1.42-5.04,1.49Z"/><path class="cls-2" d="M224.16,34.97c-.3,0-.56-.1-.77-.31-.21-.2-.32-.46-.33-.76,0-.3.1-.55.31-.76.2-.21.46-.32.76-.33,3.36-.06,5.04-1.02,5.04-2.88,0-.61-.21-1.09-.63-1.44-.42-.35-.98-.52-1.67-.52-.77,0-1.56.19-2.38.57s-1.57.95-2.24,1.7c-.16.18-.36.29-.6.33s-.47,0-.67-.1c-.2-.1-.35-.25-.45-.46-.1-.21-.13-.43-.09-.66.08-.5.18-1.05.28-1.64.1-.59.21-1.18.33-1.79.12-.61.24-1.17.36-1.68.06-.3.22-.52.48-.67.26-.15.53-.19.82-.12s.51.24.67.5.2.53.13.82c-.08.34-.18.72-.3,1.16-.11.44-.23.9-.35,1.4,1.38-.94,2.74-1.4,4.09-1.4.89,0,1.66.17,2.32.5.66.34,1.17.8,1.54,1.4.37.6.55,1.3.55,2.11,0,1.5-.59,2.71-1.76,3.62-1.18.91-2.98,1.39-5.4,1.42ZM227.04,23.71c-.38-.19-.82-.4-1.31-.62-.49-.22-.97-.44-1.46-.65-.49-.21-.92-.39-1.29-.53-.26-.11-.44-.31-.54-.59-.1-.29-.08-.56.04-.83.13-.28.34-.46.61-.55.28-.09.55-.08.83.03.4.16.83.33,1.29.53s.93.4,1.39.61c.47.21.89.41,1.28.6.26.13.45.33.57.6.11.27.12.54,0,.82-.12.26-.32.46-.59.58-.28.12-.55.12-.83,0Z"/><path class="cls-2" d="M123.28,25.85c0-7.44-7.46-13.5-16.63-13.5s-16.63,6.05-16.63,13.5c0,6.67,5.92,12.26,13.91,13.32.54.12,1.28.36,1.47.82.17.42.11,1.08.05,1.5,0,0-.19,1.17-.24,1.42-.07.42-.33,1.64,1.44.9,1.78-.75,9.58-5.64,13.07-9.66h0c2.41-2.64,3.56-5.32,3.56-8.3ZM100.79,29.82c0,.18-.14.32-.32.32h-4.66c-.09,0-.16-.03-.22-.09,0,0,0,0,0,0,0,0,0,0,0,0-.06-.06-.09-.14-.09-.22v-7.25c0-.18.15-.32.32-.32h1.17c.18,0,.32.14.32.32v5.75h3.17c.18,0,.32.15.32.32v1.17ZM103.6,29.82c0,.18-.15.32-.32.32h-1.17c-.18,0-.32-.14-.32-.32v-7.25c0-.18.15-.32.32-.32h1.17c.18,0,.32.14.32.32v7.25ZM111.63,29.82c0,.18-.14.32-.32.32h-1.17s-.06,0-.08-.01h0s-.01,0-.02,0c0,0,0,0,0,0,0,0-.01,0-.02,0,0,0-.01,0-.02,0,0,0,0,0,0,0,0,0-.01,0-.02-.01,0,0,0,0,0,0-.03-.02-.06-.05-.08-.08l-3.33-4.49v4.3c0,.18-.14.32-.32.32h-1.17c-.18,0-.32-.14-.32-.32v-7.25c0-.18.15-.32.32-.32h1.17s0,0,.01,0c0,0,.01,0,.02,0,0,0,.01,0,.02,0,0,0,0,0,.01,0,0,0,.01,0,.02,0,0,0,0,0,.01,0,0,0,.01,0,.02,0,0,0,0,0,.01,0,0,0,.01,0,.02,0,0,0,0,0,.01,0,0,0,.01,0,.02,0,0,0,0,0,0,0,0,0,.01,0,.02.01,0,0,0,0,0,0,0,0,.01,0,.02.01,0,0,0,0,0,0,0,0,.01.01.02.02,0,0,0,0,0,0,0,.01.02.02.02.03l3.32,4.48v-4.3c0-.18.14-.32.32-.32h1.17c.18,0,.32.14.32.32v7.25ZM118.07,23.74c0,.18-.14.32-.32.32h-3.17v1.22h3.17c.18,0,.32.15.32.32v1.17c0,.18-.14.32-.32.32h-3.17v1.22h3.17c.18,0,.32.15.32.32v1.17c0,.18-.14.32-.32.32h-4.66c-.09,0-.17-.04-.22-.09,0,0,0,0,0,0,0,0,0,0,0,0-.06-.06-.09-.14-.09-.22v-7.25c0-.09.03-.17.09-.22,0,0,0,0,0,0,0,0,0,0,0,0,.06-.06.14-.09.22-.09h4.66c.18,0,.32.14.32.32v1.17Z"/></g></svg>