<?xml version="1.0" encoding="UTF-8"?><svg id="_レイヤー_2" xmlns="http://www.w3.org/2000/svg" viewBox="0 0 326.65 56.39"><defs><style>.cls-1{fill:#00b900;}.cls-1,.cls-2{stroke-width:0px;}.cls-2{fill:#fff;}</style></defs><g id="_レイヤー_1-2"><rect class="cls-1" x="0" y="0" width="326.65" height="56.39" rx="28.2" ry="28.2"/><path class="cls-2" d="M96.59,34.33c-.71,0-1.06-.35-1.06-1.06v-10.48c0-.71.34-1.06,1.03-1.06s1.04.35,1.04,1.06v9.61h5.51c.71,0,1.06.32,1.06.95s-.35.97-1.06.97h-6.52Z"/><path class="cls-2" d="M107.51,34.33c-.68,0-1.03-.35-1.03-1.06v-10.48c0-.71.34-1.06,1.03-1.06s1.04.35,1.04,1.06v10.48c0,.71-.35,1.06-1.04,1.06Z"/><path class="cls-2" d="M112.97,34.33c-.68,0-1.03-.35-1.03-1.06v-10.48c0-.71.34-1.06,1.03-1.06h.23c.54,0,.97.23,1.28.7l5.47,8.24v-7.88c0-.35.09-.61.28-.79s.45-.27.78-.27c.7,0,1.04.35,1.04,1.06v10.48c0,.71-.33,1.06-.99,1.06h-.18c-.55,0-.98-.23-1.28-.7l-5.6-8.5v8.14c0,.71-.35,1.06-1.04,1.06Z"/><path class="cls-2" d="M126.5,34.33c-.71,0-1.06-.35-1.06-1.06v-10.48c0-.71.35-1.06,1.06-1.06h6.3c.71,0,1.06.32,1.06.97s-.35.96-1.06.96h-5.29v3.28h4.73c.71,0,1.06.32,1.06.97s-.35.97-1.06.97h-4.73v3.53h5.49c.71,0,1.06.32,1.06.95s-.35.97-1.06.97h-6.5Z"/><path class="cls-2" d="M136.13,28.57c-.23-.22-.34-.48-.32-.78.01-.31.14-.57.38-.8.46-.43.93-.95,1.41-1.55.49-.6.94-1.22,1.36-1.86.42-.64.75-1.23.99-1.75.13-.3.34-.49.63-.58s.56-.06.83.07c.28.14.46.35.55.62.09.27.07.54-.06.82-.32.7-.71,1.39-1.15,2.08-.44.69-.91,1.34-1.4,1.96-.49.62-.98,1.17-1.46,1.66-.24.23-.52.37-.85.41-.33.05-.63-.05-.89-.3ZM150.82,35.17c-.26.18-.56.24-.89.18-.33-.06-.58-.22-.75-.49-.12-.18-.25-.37-.39-.58-.14-.2-.29-.42-.46-.65-.54.07-1.17.15-1.88.23-.71.08-1.47.17-2.26.26s-1.57.18-2.35.27-1.5.17-2.18.24c-.68.07-1.25.13-1.72.18-.37.04-.67-.04-.9-.22s-.36-.44-.4-.77c-.02-.29.06-.54.25-.76.19-.22.46-.34.79-.36.24-.03.5-.05.78-.06.28-.02.59-.04.93-.06.24-.47.51-1.01.81-1.63s.6-1.26.91-1.93.59-1.3.85-1.9c.26-.6.48-1.12.65-1.55.12-.3.32-.51.59-.63.28-.12.56-.12.86-.02.3.11.51.3.64.59.13.28.13.57,0,.85-.23.52-.5,1.12-.83,1.82-.32.7-.67,1.41-1.03,2.14-.36.73-.7,1.41-1.03,2.03.9-.08,1.8-.17,2.71-.26.91-.09,1.73-.17,2.46-.24-.28-.36-.55-.7-.82-1.04-.27-.33-.51-.61-.73-.85-.19-.21-.28-.45-.27-.74.01-.29.13-.52.34-.7.23-.19.49-.28.77-.27.29.01.53.12.74.32.29.3.61.66.97,1.07.36.41.73.85,1.1,1.31.37.46.73.91,1.06,1.34s.63.82.88,1.17c.19.28.27.57.23.89s-.2.58-.48.78ZM150.8,28.38c-.64-.49-1.25-1.03-1.84-1.63-.59-.59-1.12-1.21-1.59-1.86-.47-.65-.88-1.29-1.21-1.91-.14-.28-.27-.48-.39-.62-.11-.14-.26-.23-.43-.27-.17-.04-.42-.06-.75-.06h-1.28c-.26,0-.49-.1-.68-.3-.19-.2-.29-.43-.29-.69s.1-.51.29-.7.42-.29.68-.29h1.28c.67,0,1.21.05,1.6.16.4.11.73.3,1,.58.27.28.54.67.82,1.17.46.8,1.06,1.62,1.8,2.44.74.82,1.57,1.54,2.47,2.17.28.18.44.43.5.76s-.02.62-.23.88c-.22.27-.49.41-.83.44-.34.03-.64-.06-.92-.26Z"/><path class="cls-2" d="M166.81,34.47c-.76-.9-1.45-2.13-2.09-3.71-.64-1.57-1.11-3.55-1.42-5.94h-7.56c-.3,0-.54-.1-.73-.3-.19-.2-.28-.44-.28-.73s.09-.51.28-.71c.19-.2.43-.3.73-.3h7.34c-.02-.41-.04-.83-.06-1.26-.02-.43-.04-.87-.06-1.31,0-.34.1-.6.32-.8.21-.2.46-.3.76-.3s.55.09.76.28.32.45.32.8c-.01.45,0,.88,0,1.31s.04.86.06,1.28h4.99c.31,0,.56.1.74.3.18.2.27.44.27.71,0,.29-.09.53-.27.73-.18.2-.43.3-.74.3h-4.77c.26,1.92.66,3.57,1.2,4.96.53,1.38,1.13,2.42,1.79,3.1.18.19.33.27.46.24.13-.03.24-.15.35-.37.06-.13.13-.29.22-.46s.15-.32.2-.44c.12-.28.31-.46.57-.55.26-.09.52-.08.78.03.28.12.46.3.57.55.1.25.11.49.03.75s-.18.49-.28.72c-.1.23-.22.48-.35.76-.32.67-.72,1.12-1.19,1.36s-.96.26-1.47.09c-.51-.17-1-.54-1.47-1.09ZM156.1,35.15c-.34.05-.61,0-.83-.17-.22-.16-.35-.4-.41-.71-.05-.31.01-.57.19-.77.17-.2.42-.32.75-.37.08-.01.35-.05.81-.12.46-.07,1-.16,1.62-.25v-3.89h-2.16c-.3,0-.54-.1-.71-.29s-.26-.42-.26-.68c0-.28.09-.51.26-.69s.41-.28.71-.28h6.26c.3,0,.53.09.7.28s.25.42.25.69-.08.49-.25.68-.4.29-.7.29h-1.87v3.53c.64-.1,1.2-.19,1.68-.27.49-.08.79-.13.91-.14.31-.06.57-.03.77.11.2.13.32.34.37.63.06.29.02.53-.12.73-.14.2-.35.33-.62.39-.11.02-.35.07-.72.13s-.82.15-1.35.24c-.53.1-1.08.2-1.66.3-.58.1-1.12.2-1.65.3-.52.1-.96.17-1.31.23-.35.06-.57.1-.66.11ZM169.06,22.53c-.22.18-.46.26-.75.23-.28-.02-.53-.14-.73-.34-.08-.1-.2-.22-.36-.37-.16-.15-.31-.3-.47-.44-.16-.14-.28-.26-.38-.34-.19-.17-.29-.38-.28-.65,0-.26.11-.49.3-.68.19-.2.42-.32.67-.34.26-.02.5.06.71.25.11.08.25.21.43.37s.36.32.53.48.3.28.39.38c.2.2.3.45.28.73-.02.28-.13.53-.35.73Z"/><path class="cls-2" d="M177.76,35.08c-.24.19-.51.27-.81.23-.3-.04-.55-.18-.74-.41-.19-.24-.27-.51-.23-.82.04-.3.17-.55.41-.75.82-.64,1.49-1.38,2.03-2.24.54-.86.92-1.8,1.12-2.82s.22-2.08.03-3.17c-.05-.31.01-.59.18-.84s.4-.39.7-.44c.31-.06.59,0,.84.16s.39.41.44.72c.02.08.04.18.04.27,0,.1.01.19.03.29,1.08-.06,1.89-.15,2.44-.28.55-.12.91-.27,1.1-.43.19-.16.28-.33.28-.49,0-.25-.08-.45-.23-.59-.16-.14-.49-.21-1.01-.21h-9.52c-.3,0-.56-.11-.78-.32-.22-.21-.33-.47-.33-.77s.11-.57.33-.78c.22-.21.48-.31.78-.31h9.52c2.38,0,3.56.96,3.56,2.9,0,.72-.21,1.32-.62,1.79-.41.47-1.07.84-1.96,1.09-.89.25-2.07.42-3.52.5-.11,1.56-.52,3.01-1.22,4.34s-1.66,2.46-2.86,3.38Z"/><path class="cls-2" d="M192.14,34.9c-.23-.21-.35-.46-.36-.77-.01-.31.08-.57.29-.8.94-1.01,1.74-2.14,2.4-3.41.67-1.27,1.19-2.64,1.56-4.11-.67.04-1.3.07-1.88.1-.58.03-.96.05-1.14.06-.3.01-.56-.09-.79-.3-.23-.21-.35-.46-.36-.76-.01-.31.08-.58.29-.81s.46-.35.77-.36c.13-.01.38-.02.76-.04.37-.01.81-.03,1.3-.04s1-.04,1.5-.06c.14-.9.23-1.83.27-2.79.01-.31.13-.57.36-.78.23-.21.49-.3.79-.28.31.01.57.13.78.35.21.22.3.49.28.8-.01.44-.04.88-.09,1.31-.05.43-.1.87-.16,1.31l.52-.04c1.31-.05,2.32.11,3.02.49.71.37,1.16.99,1.37,1.85.2.86.19,2.02-.04,3.47-.19,1.22-.46,2.22-.82,2.99-.35.77-.78,1.35-1.28,1.74-.5.39-1.06.63-1.68.72s-1.3.08-2.03-.04c-.3-.05-.54-.2-.72-.45-.18-.25-.25-.53-.2-.83.06-.31.22-.55.47-.73s.53-.23.83-.17c.4.07.76.09,1.08.05.32-.04.62-.17.89-.4.27-.23.51-.6.72-1.12s.39-1.24.55-2.15c.17-.95.22-1.66.14-2.13-.07-.47-.29-.79-.64-.95-.35-.16-.88-.22-1.59-.2-.18,0-.52.02-1.03.05-.43,1.81-1.04,3.51-1.84,5.09s-1.7,2.94-2.74,4.07c-.2.23-.46.35-.76.35-.31,0-.57-.09-.8-.3Z"/><path class="cls-2" d="M213.02,35.23c-.28.12-.56.14-.85.06s-.5-.26-.65-.53c-.14-.28-.17-.56-.08-.86.09-.3.27-.51.55-.63,1.75-.79,3.09-1.68,4.01-2.66s1.55-2.09,1.89-3.33c.12-.42.19-.76.21-1.02.02-.26-.02-.48-.12-.66-.1-.14-.27-.26-.52-.35s-.62-.15-1.12-.2c-.49-.04-1.15-.06-1.98-.06s-1.51.01-1.99.04c-.47.03-.83.08-1.05.16-.23.08-.4.19-.52.33-.12.16-.18.41-.17.76s.07.89.19,1.64c.06.3,0,.58-.18.83-.18.25-.43.4-.74.45-.3.05-.57-.02-.82-.2s-.4-.42-.46-.72c-.12-.77-.2-1.41-.23-1.94-.04-.52,0-.97.09-1.34.1-.37.28-.71.54-1.01.25-.29.54-.51.87-.67.33-.16.77-.27,1.32-.35s1.27-.12,2.14-.13v-2.09c0-.31.11-.58.32-.79.22-.21.47-.32.77-.32s.58.11.79.32c.22.22.32.48.32.79v2.09c.84.02,1.54.08,2.09.16s1,.21,1.36.4c.35.18.65.43.89.74.35.47.51,1,.49,1.59-.02.59-.15,1.3-.38,2.14-.25.92-.65,1.84-1.21,2.74-.55.9-1.3,1.74-2.24,2.53-.94.79-2.13,1.48-3.55,2.1Z"/><path class="cls-2" d="M228.04,26.53c-.46-.38-.97-.78-1.53-1.2-.56-.41-1.07-.75-1.53-1.02-.26-.17-.43-.4-.5-.69-.07-.29-.03-.57.13-.84.17-.26.4-.43.69-.51s.57-.03.84.13c.32.2.69.45,1.11.75.41.29.82.59,1.21.87.39.29.71.54.96.74.24.19.38.44.42.75.04.3-.03.58-.22.82-.19.24-.44.38-.75.42-.31.04-.58-.03-.82-.22ZM226.49,33.62c-.29.11-.57.1-.85-.04-.28-.13-.48-.34-.58-.63-.11-.29-.1-.57.04-.85.13-.28.34-.48.63-.59.96-.34,1.93-.75,2.91-1.24.98-.49,1.91-1.03,2.81-1.61.89-.58,1.71-1.18,2.45-1.8.74-.62,1.34-1.21,1.81-1.79.2-.24.46-.38.76-.41.31-.04.57.05.8.25.24.19.38.44.41.75.04.31-.05.58-.25.82-.49.6-1.15,1.24-1.96,1.92-.82.68-1.73,1.35-2.74,2.01-1.01.66-2.05,1.27-3.11,1.84-1.07.56-2.11,1.03-3.11,1.38Z"/><path class="cls-2" d="M244.7,35.1c-.3,0-.56-.11-.77-.32-.22-.21-.32-.47-.32-.77v-12.44c0-.31.11-.57.32-.78.22-.21.47-.32.77-.32s.58.11.79.32c.22.21.32.47.32.78v4.34c.16-.24.37-.4.65-.48.28-.08.55-.05.81.08.71.37,1.43.8,2.17,1.28.74.48,1.38.95,1.92,1.4.24.19.38.45.41.77s-.06.6-.26.84c-.19.23-.44.36-.76.39-.31.03-.59-.05-.83-.24-.34-.26-.72-.54-1.16-.85-.44-.3-.88-.59-1.31-.87-.44-.28-.84-.53-1.2-.73-.19-.11-.34-.24-.43-.4v6.91c0,.3-.11.56-.32.77-.22.22-.48.32-.79.32Z"/><path class="cls-2" d="M269.51,32.27c-.59-.43-1.24-.93-1.95-1.5-.71-.57-1.43-1.17-2.16-1.79-.73-.62-1.41-1.24-2.04-1.84-.44-.42-.81-.7-1.11-.84-.29-.14-.59-.15-.9-.03-.31.12-.71.37-1.2.76-.58.45-1.13.87-1.67,1.26-.54.4-1.06.75-1.55,1.06-.25.16-.53.2-.82.13-.29-.06-.52-.22-.69-.48-.16-.25-.21-.53-.15-.83.05-.3.21-.53.46-.68.46-.28.98-.62,1.57-1.02s1.16-.81,1.71-1.21c.73-.55,1.4-.92,2-1.1.6-.18,1.19-.16,1.78.06.59.22,1.22.65,1.91,1.29.6.56,1.27,1.15,2.02,1.76.74.61,1.48,1.2,2.21,1.75.73.55,1.36,1.03,1.92,1.42.24.17.38.41.43.72s-.02.59-.2.83c-.18.24-.42.39-.73.45-.31.06-.58,0-.82-.18Z"/><path class="cls-2" d="M87.61,25.85c0-7.44-7.46-13.5-16.63-13.5s-16.63,6.05-16.63,13.5c0,6.67,5.92,12.26,13.91,13.32.54.12,1.28.36,1.47.82.17.42.11,1.08.05,1.5,0,0-.19,1.17-.24,1.42-.07.42-.33,1.64,1.44.9,1.78-.75,9.58-5.64,13.07-9.66h0c2.41-2.64,3.56-5.32,3.56-8.3ZM65.11,29.82c0,.18-.14.32-.32.32h-4.66c-.09,0-.16-.03-.22-.09,0,0,0,0,0,0,0,0,0,0,0,0-.06-.06-.09-.14-.09-.22v-7.25c0-.18.15-.32.32-.32h1.17c.18,0,.32.14.32.32v5.75h3.17c.18,0,.32.15.32.32v1.17ZM67.92,29.82c0,.18-.15.32-.32.32h-1.17c-.18,0-.32-.14-.32-.32v-7.25c0-.18.15-.32.32-.32h1.17c.18,0,.32.14.32.32v7.25ZM75.95,29.82c0,.18-.14.32-.32.32h-1.17s-.06,0-.08-.01h0s-.01,0-.02,0c0,0,0,0,0,0,0,0-.01,0-.02,0,0,0-.01,0-.02,0,0,0,0,0,0,0,0,0-.01,0-.02-.01,0,0,0,0,0,0-.03-.02-.06-.05-.08-.08l-3.33-4.49v4.3c0,.18-.14.32-.32.32h-1.17c-.18,0-.32-.14-.32-.32v-7.25c0-.18.15-.32.32-.32h1.17s0,0,.01,0c0,0,.01,0,.02,0,0,0,.01,0,.02,0,0,0,0,0,.01,0,0,0,.01,0,.02,0,0,0,0,0,.01,0,0,0,.01,0,.02,0,0,0,0,0,.01,0,0,0,.01,0,.02,0,0,0,0,0,.01,0,0,0,.01,0,.02,0,0,0,0,0,0,0,0,0,.01,0,.02.01,0,0,0,0,0,0,0,0,.01,0,.02.01,0,0,0,0,0,0,0,0,.01.01.02.02,0,0,0,0,0,0,0,.01.02.02.02.03l3.32,4.48v-4.3c0-.18.14-.32.32-.32h1.17c.18,0,.32.14.32.32v7.25ZM82.39,23.74c0,.18-.14.32-.32.32h-3.17v1.22h3.17c.18,0,.32.15.32.32v1.17c0,.18-.14.32-.32.32h-3.17v1.22h3.17c.18,0,.32.15.32.32v1.17c0,.18-.14.32-.32.32h-4.66c-.09,0-.17-.04-.22-.09,0,0,0,0,0,0,0,0,0,0,0,0-.06-.06-.09-.14-.09-.22v-7.25c0-.09.03-.17.09-.22,0,0,0,0,0,0,0,0,0,0,0,0,.06-.06.14-.09.22-.09h4.66c.18,0,.32.14.32.32v1.17Z"/></g></svg>