<?xml version="1.0" encoding="UTF-8"?><svg id="_レイヤー_2" xmlns="http://www.w3.org/2000/svg" viewBox="0 0 96.3 21.33"><defs><style>.cls-1{fill:#fff;stroke-width:0px;}</style></defs><g id="_レイヤー_1-2"><path class="cls-1" d="M34.77,6.53h1.96l1.99,8.41h.03l2.22-8.41h1.97l2.16,8.41h.03l2.05-8.41h1.96l-3.04,10.99h-1.96l-2.2-8.41h-.03l-2.25,8.41h-1.99l-2.9-10.99Z"/><path class="cls-1" d="M51.69,13.99c0,.31.04.6.13.89s.22.54.39.75c.17.22.39.39.66.51.27.13.58.19.95.19.51,0,.92-.11,1.24-.33.31-.22.54-.55.7-1h1.67c-.09.43-.25.82-.48,1.16-.23.34-.5.62-.82.86-.32.23-.67.41-1.07.52-.39.12-.81.18-1.24.18-.63,0-1.18-.1-1.66-.31-.48-.21-.89-.49-1.22-.86-.33-.37-.58-.81-.75-1.32-.17-.51-.25-1.08-.25-1.69,0-.56.09-1.1.27-1.61s.44-.95.77-1.34c.33-.38.74-.69,1.21-.92.47-.23,1-.34,1.6-.34.62,0,1.19.13,1.68.39.5.26.91.61,1.24,1.04.33.43.57.93.71,1.49.15.56.19,1.14.12,1.73h-5.85ZM55.79,12.83c-.02-.28-.08-.54-.18-.8-.1-.26-.23-.48-.4-.67s-.38-.34-.62-.46c-.24-.12-.51-.18-.81-.18s-.59.05-.84.16-.47.26-.65.44-.32.41-.43.67c-.11.26-.17.53-.18.83h4.1Z"/><path class="cls-1" d="M59.65,6.53h1.75v4.06h.04c.12-.19.27-.37.45-.52.17-.15.37-.28.58-.39s.43-.19.66-.25c.23-.06.46-.08.68-.08.63,0,1.17.11,1.64.33.47.22.85.52,1.16.91.31.38.54.83.69,1.35.15.51.23,1.06.23,1.65,0,.53-.07,1.05-.21,1.55-.14.5-.35.95-.63,1.33-.28.39-.64.69-1.07.92-.43.23-.94.35-1.52.35-.27,0-.54-.02-.81-.05-.27-.04-.53-.1-.78-.21s-.47-.23-.67-.4c-.2-.16-.37-.38-.5-.65h-.03v1.09h-1.66V6.53ZM65.78,13.55c0-.36-.05-.71-.14-1.05-.09-.34-.23-.64-.42-.9-.18-.26-.42-.47-.69-.63-.28-.16-.6-.24-.96-.24-.74,0-1.3.26-1.67.77-.38.51-.56,1.19-.56,2.05,0,.4.05.77.15,1.12.1.34.24.64.44.88s.43.44.7.58c.27.14.59.22.95.22.4,0,.74-.08,1.02-.25s.51-.38.69-.64c.18-.26.31-.56.39-.89.08-.33.12-.67.12-1.02Z"/><path class="cls-1" d="M74.68,6.18c1.01,0,1.32-.03,1.4-.03.13,0,.18.03.18.17-.03.5,0,.88.08,1.55.43,3.78,2.16,6.66,5.45,8.65-.25.24-.57.59-.83,1.06-.11.22-.17.32-.25.32-.07,0-.17-.07-.32-.18-2.55-1.88-4.1-4.16-4.8-6.94-.76,2.87-2.62,5.4-5.15,6.97-.17.1-.25.17-.32.17-.1,0-.15-.11-.29-.34-.22-.38-.55-.71-.83-.92,3.47-1.71,5.45-5.05,5.63-9.06h-1.74c-1.01,0-1.32.03-1.4.03-.15,0-.17-.01-.17-.15v-1.18c0-.14.01-.15.17-.15.08,0,.39.03,1.4.03h1.79Z"/><path class="cls-1" d="M86.83,9.82c-.78.57-1.64,1.08-2.53,1.51-.17.08-.27.13-.34.13-.1,0-.14-.1-.25-.35-.17-.35-.36-.66-.63-.92,2.44-.97,4.26-2.45,5.38-4.07.24-.35.36-.59.49-.91.55.07,1.06.17,1.51.29.17.04.25.1.25.2,0,.08-.03.17-.14.22-.08.04-.14.08-.2.13,1.58,1.93,3.47,3.15,5.92,4-.27.34-.45.67-.6,1.05-.1.25-.14.35-.24.35-.07,0-.17-.04-.32-.11-.95-.42-1.86-.91-2.67-1.48v1.04c0,.14-.01.15-.15.15-.08,0-.46-.03-1.58-.03h-2.16c-1.12,0-1.5.03-1.58.03-.14,0-.15-.01-.15-.15v-1.06ZM85.94,13.62c-1.32,0-1.76.03-1.85.03-.15,0-.17-.01-.17-.15v-1.05c0-.14.01-.15.17-.15.08,0,.53.03,1.85.03h7.46c1.32,0,1.76-.03,1.85-.03.15,0,.17.01.17.15v1.05c0,.14-.01.15-.17.15-.08,0-.53-.03-1.85-.03h-4.33c-.35.87-.77,1.75-1.25,2.63,1.46-.08,2.98-.21,4.31-.35-.32-.39-.64-.78-1.02-1.19-.1-.11-.08-.17.08-.25l.9-.46c.15-.08.2-.07.29.03.95.99,1.75,2,2.6,3.25.07.11.07.17-.07.27l-.97.63c-.08.06-.13.08-.17.08s-.07-.03-.11-.1c-.24-.39-.48-.76-.7-1.09-2.32.29-5.18.53-7.56.71-.22.01-.41.07-.5.13-.07.06-.14.08-.24.08s-.17-.07-.2-.2c-.13-.46-.21-.95-.29-1.44.52.04.98.03,1.53,0,.14,0,.29-.01.45-.01.5-.95.91-1.85,1.23-2.72h-1.46ZM90.72,9.71c.94,0,1.36-.01,1.51-.03-1.01-.73-1.89-1.58-2.65-2.56-.74.98-1.6,1.83-2.56,2.56.13.01.52.03,1.54.03h2.16Z"/><polygon class="cls-1" points="17.59 19.73 1.6 19.73 1.6 7.75 7.75 7.75 7.75 1.6 17.59 1.6 17.59 3.18 19.19 1.64 19.19 0 7.75 0 1.6 6.16 0 7.75 0 21.33 19.19 21.33 19.19 11.91 17.59 13.58 17.59 19.73"/><path class="cls-1" d="M23.91,4.21l-2.41-2.41c-.21-.21-.56-.21-.77,0l-10.19,9.78c-.06.06-.11.14-.14.23l-1.23,4.05c-.13.42.26.81.68.68l4.18-1.27,9.88-10.28c.21-.21.21-.56,0-.77ZM11.47,15.05l-.79-.87.55-1.81,1.37.74.74,1.37-1.86.57ZM22.38,3.83l-8.68,8.73-.55-.55L21.88,3.33l.5.5s0,0,0,0Z"/></g></svg>