<?xml version="1.0" encoding="UTF-8"?><svg id="_レイヤー_2" xmlns="http://www.w3.org/2000/svg" viewBox="0 0 155.66 26.56"><defs><style>.cls-1{fill:none;stroke:#fff;stroke-miterlimit:10;}.cls-2{fill:#fff;stroke-width:0px;}</style></defs><g id="_レイヤー_1-2"><path class="cls-2" d="M28.42,15.03h1.93v9.32h5.59v1.67h-7.52v-10.99Z"/><path class="cls-2" d="M37.88,15.03h1.93v10.99h-1.93v-10.99Z"/><path class="cls-2" d="M42.67,15.03h2.03l5.02,8.1h.03v-8.1h1.83v10.99h-2.03l-5.01-8.08h-.05v8.08h-1.83v-10.99Z"/><path class="cls-2" d="M54.44,15.03h7.92v1.67h-5.99v2.87h5.54v1.57h-5.54v3.22h6.1v1.67h-8.03v-10.99Z"/><path class="cls-2" d="M67.98,15.18c.14-.29.21-.55.29-.91.5.14,1.01.31,1.39.49.15.07.21.14.21.24,0,.08-.03.14-.13.21-.14.1-.22.24-.32.43-1.06,2.17-2.39,3.84-4.12,5.15-.15.13-.25.2-.32.2-.08,0-.14-.1-.27-.31-.24-.39-.53-.74-.78-.91,1.85-1.13,3.25-2.84,4.05-4.59ZM72.62,21.1c.08-.04.13-.07.17-.07.03,0,.06.03.11.08,1.13,1.4,2.02,2.76,2.98,4.48.07.13.07.15-.13.27l-1.05.6c-.07.04-.13.07-.17.07-.06,0-.08-.03-.13-.11-.21-.43-.43-.85-.66-1.27-2.35.35-4.9.63-7.36.84-.28.03-.42.08-.53.15-.1.07-.15.1-.24.1-.1,0-.17-.08-.21-.22-.13-.39-.24-.9-.34-1.48.53.01,1.04,0,1.6-.03.13,0,.27-.01.39-.01.76-1.65,1.43-3.32,1.81-4.54.18-.56.31-.99.38-1.47.55.13,1.02.22,1.5.36.15.06.27.13.27.24,0,.1-.03.15-.11.25-.13.14-.21.29-.36.67-.5,1.34-1.12,2.9-1.79,4.35,1.43-.11,2.93-.25,4.31-.41-.45-.7-.91-1.39-1.43-2.07-.08-.11-.07-.14.11-.25l.88-.53ZM72.35,14.3c.18-.08.21-.07.28.07.92,2.17,2.65,4.07,4.55,5.18-.27.21-.56.64-.78,1.05-.11.21-.18.31-.27.31-.07,0-.15-.07-.29-.18-2.04-1.55-3.6-3.58-4.56-5.78-.06-.15-.03-.17.14-.25l.94-.39Z"/><path class="cls-2" d="M80.89,17.93c-1.27,0-1.71.03-1.79.03-.14,0-.14-.01-.14-.17v-1.11c0-.15,0-.17.14-.17.08,0,.52.03,1.79.03h5.03c0-.18-.01-.38-.01-.57,0-.94-.03-1.34-.11-2,.5.01,1.05.03,1.53.08.14.01.22.08.22.17,0,.11-.06.21-.08.29-.07.2-.08.48-.07,1.41v.62h1.72c1.27,0,1.71-.03,1.79-.03.14,0,.15.01.15.17v1.11c0,.15-.01.17-.15.17-.08,0-.52-.03-1.79-.03h-1.67c.1,1.82.32,3.4.8,4.79.41,1.26.84,2.07,1.26,2.07.38,0,.55-.77.63-2.04.21.21.6.46.91.63q.41.22.35.66c-.28,1.79-.87,2.55-1.69,2.53-1.06-.01-2.04-1.01-2.74-3.08-.53-1.53-.83-3.47-.97-5.56h-5.1ZM83.15,21.03v2.74c.92-.22,1.89-.49,2.73-.78-.03.25-.04.6-.04.88q0,.46-.42.59c-1.4.46-3.5,1.04-5.01,1.36-.35.08-.5.15-.59.21-.1.06-.17.1-.25.1s-.15-.06-.2-.18c-.11-.34-.25-.92-.36-1.41.48-.01.84-.07,1.34-.17l1.34-.25v-3.08h-.48c-1.19,0-1.58.03-1.67.03-.14,0-.15-.01-.15-.14v-1.05c0-.15.01-.17.15-.17.08,0,.48.03,1.67.03h2.48c1.18,0,1.57-.03,1.65-.03.15,0,.17.01.17.17v1.05c0,.13-.01.14-.17.14-.08,0-.48-.03-1.65-.03h-.55ZM88.8,14.2c.08-.06.13-.08.17-.08s.08.03.14.08c.43.35.87.81,1.2,1.29.08.11.07.17-.1.28l-.66.45c-.08.06-.14.08-.18.08s-.08-.04-.13-.11c-.31-.52-.73-.99-1.09-1.33-.11-.11-.08-.15.06-.25l.59-.41Z"/><path class="cls-2" d="M96.5,17.02c-.8,0-1.65.06-2.48.11-.17.01-.22-.08-.25-.21-.11-.39-.2-1.09-.25-1.51.95.07,1.72.1,2.84.1h6.01c.59,0,.83-.03.97-.08.07-.03.2-.1.27-.1.11,0,.22.08.32.2.31.27.57.56.84.88.07.08.11.17.11.25,0,.11-.07.21-.2.29-.15.11-.27.25-.38.41-.66.99-1.53,1.96-2.46,2.7-.08.08-.18.13-.29.13s-.24-.06-.34-.14c-.35-.28-.7-.43-1.16-.57,1.12-.84,1.81-1.44,2.51-2.45h-6.05ZM97.28,22.48c.53-.99.69-1.95.69-3.3,0-.52-.03-.84-.14-1.32.69.07,1.41.17,1.81.27.18.04.24.14.24.27,0,.08-.03.17-.07.25-.1.2-.11.34-.13.57-.04,1.36-.18,2.6-.83,3.85-.55,1.05-1.39,2.04-2.55,2.79-.13.08-.25.14-.39.14-.1,0-.2-.04-.28-.13-.34-.29-.74-.52-1.27-.71,1.53-.8,2.32-1.55,2.93-2.67Z"/><path class="cls-2" d="M111.37,17.45c.06-.69.08-1.13.1-1.89,0-.36-.01-.66-.1-1.11.74.07,1.37.17,1.82.29.18.06.24.17.24.29,0,.08-.03.18-.07.27-.13.21-.15.35-.18.66-.04.45-.06.78-.13,1.47h2.13c.64,0,1.3-.03,1.95-.03.22,0,.29.04.29.2,0,.18-.03.74-.06,1.48-.06,1.72-.25,3.67-.52,4.61-.28,1.08-.76,1.67-1.65,1.89-.32.08-.83.15-1.41.15-.17,0-.28-.1-.34-.28-.18-.52-.41-.9-.81-1.27,1.04.04,1.55-.01,1.9-.13.38-.13.56-.35.73-.98.25-1.06.38-2.25.42-4.2h-2.83c-.28,1.69-.66,2.95-1.25,3.88-.64,1.05-1.68,2.1-2.97,2.88-.11.07-.22.11-.32.11-.08,0-.18-.04-.27-.14-.28-.31-.7-.6-1.18-.81,1.61-.81,2.53-1.69,3.29-2.86.43-.7.78-1.65,1.01-3.02h-1.26c-.69,0-1.36.03-2.02.07-.14.01-.2-.07-.21-.24-.06-.34-.08-.84-.11-1.36.88.06,1.51.06,2.32.06h1.47Z"/><path class="cls-2" d="M128.28,16.67c.66,0,.87-.04,1.05-.15.06-.04.13-.07.2-.07.11,0,.22.06.31.14.28.21.69.57.94.87.07.07.1.14.1.21,0,.11-.06.21-.14.31-.18.18-.24.45-.31.69-.43,1.44-.94,2.86-1.76,4.12-.81,1.26-2.2,2.59-3.61,3.43-.08.06-.15.08-.22.08-.1,0-.18-.06-.29-.14-.43-.29-.84-.46-1.4-.63,1.97-1.09,3.07-2.06,4-3.49.78-1.19,1.27-2.41,1.62-3.91h-6.09v1.18c0,.56.03,1.13.04,1.69,0,.22-.04.27-.22.27-.42.03-.87.03-1.29,0-.18,0-.22-.04-.22-.21.01-.71.03-1.18.03-1.74v-1.13c0-.45,0-.95-.03-1.36-.01-.13.07-.18.2-.18.66.03,1.43.04,2.13.04h1.43v-.55c0-.74,0-1.32-.14-1.86.69.06,1.34.13,1.74.21.28.06.36.21.25.43-.07.2-.17.49-.17,1.08v.67h1.88Z"/><path class="cls-2" d="M134.79,15.78c.06-.07.13-.11.2-.11.06,0,.11.03.18.07.71.38,1.88,1.23,2.67,1.99.08.08.13.14.13.2s-.03.11-.08.18c-.21.28-.67.84-.87,1.05-.07.07-.11.11-.17.11s-.11-.04-.18-.11c-.84-.87-1.85-1.67-2.86-2.28.31-.38.71-.81.98-1.09ZM136.01,23.16c1.71-.88,2.62-1.47,4.03-2.6,1.71-1.39,2.65-2.28,3.84-3.81.08.7.21,1.18.39,1.64.04.1.07.18.07.27,0,.13-.07.24-.22.42-.74.87-1.95,1.99-3.22,2.97-1.16.91-2.34,1.69-4.23,2.74-.63.38-.81.52-.94.64-.08.08-.17.14-.25.14-.07,0-.15-.06-.24-.15-.35-.39-.78-.97-1.12-1.55.71-.2,1.15-.32,1.89-.7Z"/><path class="cls-2" d="M150.54,18.4c1.71.53,3.07,1.08,4.45,1.9.15.08.22.18.15.36-.18.46-.41.9-.6,1.22-.06.1-.11.15-.18.15-.04,0-.1-.01-.15-.07-1.29-.83-2.55-1.44-3.68-1.79v3.09c0,.91.03,1.74.06,2.74.01.17-.06.21-.25.21-.41.03-.84.03-1.25,0-.2,0-.27-.04-.27-.21.04-1.04.06-1.86.06-2.76v-6.89c0-1.05-.04-1.51-.14-2.07.64.04,1.34.11,1.75.22.2.04.27.13.27.24,0,.08-.04.2-.11.32-.1.18-.1.53-.1,1.32v2Z"/><path class="cls-2" d="M22.34,14.11c0-5-5.01-9.07-11.17-9.07S0,9.11,0,14.11c0,4.48,3.97,8.23,9.34,8.94.36.08.86.24.98.55.11.28.07.72.04,1.01,0,0-.13.79-.16.96-.05.28-.22,1.1.97.6,1.19-.5,6.43-3.79,8.78-6.49h0c1.62-1.78,2.39-3.58,2.39-5.58ZM7.23,16.78c0,.12-.1.22-.22.22h-3.13c-.06,0-.11-.02-.15-.06,0,0,0,0,0,0,0,0,0,0,0,0-.04-.04-.06-.09-.06-.15v-4.87c0-.12.1-.22.22-.22h.78c.12,0,.22.1.22.22v3.87h2.13c.12,0,.22.1.22.22v.78ZM9.12,16.78c0,.12-.1.22-.22.22h-.78c-.12,0-.22-.1-.22-.22v-4.87c0-.12.1-.22.22-.22h.78c.12,0,.22.1.22.22v4.87ZM14.51,16.78c0,.12-.1.22-.22.22h-.78s-.04,0-.06,0h0s0,0-.01,0c0,0,0,0,0,0,0,0,0,0-.01,0,0,0,0,0-.01,0,0,0,0,0,0,0,0,0,0,0-.01,0,0,0,0,0,0,0-.02-.01-.04-.03-.06-.05l-2.23-3.02v2.89c0,.12-.1.22-.22.22h-.78c-.12,0-.22-.1-.22-.22v-4.87c0-.12.1-.22.22-.22h.78s0,0,0,0c0,0,0,0,.01,0,0,0,0,0,.01,0,0,0,0,0,0,0,0,0,0,0,.01,0,0,0,0,0,0,0,0,0,0,0,.01,0,0,0,0,0,0,0,0,0,0,0,.01,0,0,0,0,0,0,0,0,0,0,0,.01,0,0,0,0,0,0,0,0,0,0,0,.01,0,0,0,0,0,0,0,0,0,0,0,.01,0,0,0,0,0,0,0,0,0,0,0,.01.01,0,0,0,0,0,0,0,0,.01.01.02.02l2.23,3.01v-2.89c0-.12.1-.22.22-.22h.78c.12,0,.22.1.22.22v4.87ZM18.84,12.69c0,.12-.1.22-.22.22h-2.13v.82h2.13c.12,0,.22.1.22.22v.78c0,.12-.1.22-.22.22h-2.13v.82h2.13c.12,0,.22.1.22.22v.78c0,.12-.1.22-.22.22h-3.13c-.06,0-.11-.02-.15-.06,0,0,0,0,0,0,0,0,0,0,0,0-.04-.04-.06-.09-.06-.15v-4.87c0-.06.02-.11.06-.15,0,0,0,0,0,0,0,0,0,0,0,0,.04-.04.09-.06.15-.06h3.13c.12,0,.22.1.22.22v.78Z"/><path class="cls-2" d="M35.9,5.35c.08.04.08.08.04.15-.12.19-.22.47-.22.63,0,.52.54.78,1.97.78.81,0,1.57-.09,2.26-.24.12-.02.16,0,.18.08.04.16.12.61.13.82,0,.08-.04.11-.14.12-.77.14-1.54.2-2.44.2-1.92,0-2.87-.6-2.87-1.68,0-.34.12-.7.44-1.19.22.11.42.22.64.33ZM37.78,2.09c.61,0,1.2-.03,1.73-.07.08,0,.12.02.12.09.03.19.07.42.08.71,0,.12-.04.17-.14.17-.79.12-1.37.39-2.04.82-.07.05-.14.07-.21.07-.06,0-.12-.02-.17-.05-.17-.11-.34-.2-.58-.27.43-.28.8-.52,1.09-.69-.18.03-.44.03-.61.03-.34,0-1.06-.05-1.53-.14-.08-.02-.11-.05-.11-.15,0-.2.02-.44.03-.74.63.15,1.43.22,2.34.22ZM40.04,1.16s.08-.02.12.02c.26.2.56.53.79.89.03.05.03.09-.02.13l-.35.26c-.06.04-.1.03-.14-.02-.25-.38-.52-.7-.84-.97l.44-.31ZM40.78.62s.08-.02.12.02c.31.23.61.57.79.86.03.05.04.1-.02.15l-.33.26c-.07.05-.11.02-.14-.02-.23-.36-.49-.67-.83-.96l.42-.3Z"/><path class="cls-2" d="M45.62,1.21c.6,0,.78-.02.83-.02.08,0,.11.02.11.1-.02.3,0,.52.05.92.26,2.25,1.28,3.96,3.24,5.15-.15.14-.34.35-.49.63-.07.13-.1.19-.15.19-.04,0-.1-.04-.19-.11-1.52-1.12-2.44-2.47-2.86-4.13-.45,1.71-1.56,3.21-3.06,4.15-.1.06-.15.1-.19.1-.06,0-.09-.07-.17-.2-.13-.23-.32-.42-.49-.55,2.07-1.02,3.24-3.01,3.35-5.39h-1.03c-.6,0-.78.02-.83.02-.09,0-.1,0-.1-.09v-.7c0-.08,0-.09.1-.09.05,0,.23.02.83.02h1.07Z"/><path class="cls-2" d="M53.01,3.38c-.47.34-.97.64-1.51.9-.1.05-.16.07-.2.07-.06,0-.08-.06-.15-.21-.1-.21-.22-.39-.38-.55,1.45-.57,2.53-1.46,3.2-2.42.14-.21.22-.35.29-.54.33.04.63.1.9.17.1.02.15.06.15.12,0,.05-.02.1-.08.13-.05.02-.08.05-.12.07.94,1.15,2.07,1.87,3.52,2.38-.16.2-.27.4-.36.62-.06.15-.08.21-.14.21-.04,0-.1-.02-.19-.07-.57-.25-1.11-.54-1.59-.88v.62c0,.08,0,.09-.09.09-.05,0-.28-.02-.94-.02h-1.28c-.67,0-.89.02-.94.02-.08,0-.09,0-.09-.09v-.63ZM52.47,5.63c-.78,0-1.05.02-1.1.02-.09,0-.1,0-.1-.09v-.62c0-.08,0-.09.1-.09.05,0,.32.02,1.1.02h4.44c.78,0,1.05-.02,1.1-.02.09,0,.1,0,.1.09v.62c0,.08,0,.09-.1.09-.05,0-.32-.02-1.1-.02h-2.57c-.21.52-.46,1.04-.74,1.57.87-.05,1.77-.12,2.56-.21-.19-.23-.38-.47-.61-.71-.06-.07-.05-.1.05-.15l.53-.27c.09-.05.12-.04.17.02.57.59,1.04,1.19,1.55,1.93.04.07.04.1-.04.16l-.57.37s-.08.05-.1.05-.04-.02-.07-.06c-.14-.23-.28-.45-.42-.65-1.38.17-3.08.32-4.5.42-.13,0-.24.04-.3.07-.04.03-.08.05-.14.05s-.1-.04-.12-.12c-.08-.27-.12-.57-.17-.86.31.02.58.02.91,0,.08,0,.17,0,.27,0,.3-.57.54-1.1.73-1.62h-.87ZM55.32,3.31c.56,0,.81,0,.9-.02-.6-.43-1.12-.94-1.57-1.52-.44.58-.95,1.09-1.52,1.52.08,0,.31.02.92.02h1.28Z"/><path class="cls-2" d="M62.98,4.54c0,.46-.38.83-.83.83s-.83-.38-.83-.83.38-.83.83-.83.83.37.83.83Z"/><path class="cls-2" d="M67.74,3.67c-.42.03-.84.07-1.4.07-.14,0-.18-.05-.2-.17-.03-.16-.06-.43-.09-.72.22.03.43.04.65.04.35,0,.71-.03,1.06-.07,0-.27,0-.59,0-.95,0-.22,0-.46-.06-.67.42.03.77.08.99.15.1.03.17.08.17.16,0,.03-.02.08-.05.13-.06.11-.1.22-.12.32-.03.22-.03.42-.04.69.37-.08.71-.18,1.07-.31.07-.02.13,0,.14.07.03.21.05.43.05.65,0,.08-.03.11-.11.13-.55.17-.69.22-1.19.32,0,.4,0,.81-.02,1.21.78-.33,1.51-.47,2.05-.46,1.03,0,1.77.67,1.77,1.67,0,1.07-.68,1.69-1.81,1.69-.24,0-.51-.03-.68-.07-.13-.03-.18-.12-.18-.25-.02-.18-.07-.47-.25-.71.4.13.73.15,1.04.15.47,0,.9-.27.9-.86,0-.54-.33-.84-.92-.84-.47,0-1.05.12-1.91.57,0,.35.02.63.03,1,.02.37.07.89.07,1.08,0,.12.02.24-.12.27-.18.05-.45.09-.62.1-.09,0-.12-.06-.2-.17-.22-.31-.66-.71-1.18-1.07-.09.05-.19.12-.27.18-.04.04-.1.06-.14.06-.07,0-.13-.05-.18-.13-.09-.15-.26-.5-.38-.77.22-.05.49-.14.77-.29.36-.2.75-.42,1.36-.77v-1.42ZM66.96,6.53c.23.12.52.27.78.38.07.02.09,0,.08-.07-.02-.22-.03-.6-.05-.87-.23.16-.52.35-.82.57ZM70.94,2.16c.06-.09.08-.12.14-.1.77.23,1.33.57,1.77,1.02.03.03.05.06.05.08s-.02.05-.03.08c-.11.17-.33.42-.45.59-.02.03-.14.04-.17,0-.44-.49-1.02-.8-1.69-1.02.11-.22.24-.44.38-.65Z"/><path class="cls-2" d="M76.65,1.01c.54,0,.78-.02.83-.02.08,0,.08,0,.08.09,0,.05-.02.3-.02.82v1.08c0,.52.02.77.02.82,0,.08,0,.09-.08.09-.05,0-.29-.02-.83-.02h-1.33v2.6c0,1.15.02,1.72.02,1.77,0,.08,0,.09-.09.09h-.71c-.08,0-.09,0-.09-.09,0-.06.02-.62.02-1.77v-3.61c0-1.15-.02-1.73-.02-1.79,0-.08,0-.09.09-.09.06,0,.37.02.97.02h1.14ZM75.32,1.64v.49h1.42v-.49h-1.42ZM76.74,2.71h-1.42v.57h1.42v-.57ZM76.44,7.56c-.08,0-.09,0-.09-.08,0-.05.02-.26.02-1.36v-.6c0-.61-.02-.82-.02-.88,0-.08,0-.09.09-.09.06,0,.26.02.88.02h1.09c.62,0,.82-.02.88-.02.08,0,.09,0,.09.09,0,.05-.02.27-.02.72v.64c0,1.05.02,1.25.02,1.3,0,.09,0,.1-.09.1h-.61c-.09,0-.1,0-.1-.1v-.27h-1.44v.45c0,.08,0,.08-.1.08h-.61ZM77.14,6.32h1.44v-1.05h-1.44v1.05ZM81.34,5.61c0,.58.03,1.25.03,1.66s-.05.59-.24.77c-.18.17-.42.23-1.16.23-.27,0-.27,0-.32-.26-.04-.24-.11-.44-.19-.62.25.03.46.04.67.04.28,0,.34-.07.34-.32v-3.21h-1.33c-.65,0-.87.02-.92.02-.09,0-.1,0-.1-.09,0-.06.02-.25.02-.75v-1.22c0-.5-.02-.7-.02-.76,0-.08,0-.09.1-.09.05,0,.27.02.92.02h1.2c.64,0,.87-.02.92-.02.08,0,.09,0,.09.09,0,.05-.02.4-.02,1.11v3.41ZM78.97,1.64v.49h1.52v-.49h-1.52ZM80.48,3.28v-.57h-1.52v.57h1.52Z"/><path class="cls-2" d="M84.28,2.19c.07.03.13.09.13.15,0,.05-.03.13-.07.23-.03.1-.08.46-.08.82,0,.53.02,1.13.15,1.9.12.66.33,1.22.68,1.22.27,0,.47-.29.8-1.16.18.29.37.48.53.64.1.09.1.19.06.31-.32.85-.83,1.3-1.42,1.3-.65,0-1.33-.77-1.56-2.17-.13-.79-.2-1.66-.2-2.42,0-.46-.02-.71-.1-1.09.4.05.81.15,1.06.27ZM88.14,2.72s.07-.03.09-.03c.03,0,.06.02.09.05.76.66,1.42,1.81,1.63,2.85.03.11-.02.14-.09.18-.22.14-.42.26-.65.33-.1.03-.16,0-.17-.09-.28-1.19-.71-2.06-1.56-2.91.32-.2.52-.32.66-.38Z"/><path class="cls-2" d="M93.27,3.48c-.48.38-1,.7-1.54.98-.1.05-.15.08-.19.08-.06,0-.09-.06-.16-.21-.11-.22-.24-.41-.39-.56,1.53-.69,2.52-1.56,3.21-2.55.15-.22.24-.38.32-.59.33.05.63.1.88.16.1.03.15.06.15.13,0,.04-.02.08-.08.12-.03.02-.05.03-.07.06.99,1.27,2.15,2.04,3.56,2.54-.14.17-.27.4-.35.63-.05.16-.08.22-.15.22-.04,0-.11-.02-.2-.07-.59-.27-1.13-.57-1.62-.93v.58c0,.08,0,.09-.09.09-.05,0-.28-.02-.94-.02h-1.29c-.67,0-.88.02-.94.02-.08,0-.09,0-.09-.09v-.6ZM92.48,8.33c-.08,0-.09,0-.09-.09,0-.05.02-.27.02-1.48v-.72c0-.72-.02-.96-.02-1.01,0-.08,0-.09.09-.09.05,0,.34.02,1.14.02h2.67c.8,0,1.09-.02,1.14-.02.09,0,.1,0,.1.09,0,.05-.02.29-.02.88v.82c0,1.2.02,1.42.02,1.47,0,.08,0,.09-.1.09h-.71c-.08,0-.09,0-.09-.09v-.27h-3.34v.32c0,.08,0,.09-.1.09h-.71ZM93.28,7.17h3.34v-1.45h-3.34v1.45ZM95.59,3.38c.49,0,.74,0,.86,0-.6-.46-1.11-.99-1.53-1.58-.43.6-.95,1.12-1.52,1.57.1,0,.33.02.9.02h1.29Z"/><path class="cls-2" d="M102.77,3.96c.75-.62,1.52-.97,2.39-.97,1.26,0,2.07.86,2.07,2.12s-.78,2.17-2.21,2.68c-.05.03-.1.03-.14.03-.08,0-.16-.04-.22-.12-.17-.21-.37-.37-.66-.55.81-.22,1.23-.45,1.67-.82.38-.34.57-.76.57-1.26,0-.78-.44-1.29-1.24-1.29s-1.42.37-2.23,1.07c0,1.07.03,2.07.05,3.2,0,.07-.04.1-.11.1-.09,0-.47.03-.74.03-.08,0-.1-.03-.09-.12,0-.85.03-1.72.04-2.57-.4.6-.82,1.21-1.12,1.65-.04.05-.08.08-.12.08-.02,0-.06-.02-.09-.05-.19-.17-.35-.32-.51-.5-.03-.02-.05-.06-.05-.09s.02-.07.05-.1c.73-.89,1.21-1.48,1.83-2.34,0-.21,0-.43,0-.59-.24.07-.63.19-.95.31-.14.06-.23.14-.28.14-.06,0-.12-.05-.17-.15-.1-.19-.23-.45-.33-.73.2-.02.32-.03.57-.08.22-.05.54-.12,1.18-.3.02-.36.02-.72.02-1.08,0-.21-.02-.45-.08-.72.48.05.76.08.97.14.17.05.21.14.15.29-.04.1-.07.22-.08.36,0,.2-.02.39-.04.75.02,0,.04-.02.07-.02.02,0,.04-.02.06-.02.06,0,.15.08.22.19.1.13.13.2.13.26s-.02.09-.14.23c-.12.15-.24.31-.44.6v.26Z"/><path class="cls-2" d="M110.41,2.55c-.02-.42-.03-.56-.12-.88.42.03.79.09,1,.14.09.02.17.1.17.17,0,.06-.02.12-.05.17-.05.12-.08.23-.08.37,0,.2,0,.52-.02.8.57-.07,1.46-.17,2.06-.23,0-.42,0-.87,0-1.17s-.02-.63-.11-.95c.51.06.8.1,1.01.17.12.03.16.08.16.16,0,.07-.03.13-.05.17-.04.13-.08.23-.08.38-.02.45-.03.77-.03,1.17.67-.05,1.17-.07,1.62-.09.07,0,.1,0,.1.08,0,.23.02.46,0,.68,0,.11-.02.12-.11.12-.55,0-1.11.03-1.66.07-.02.55-.05.96-.1,1.28-.09.65-.47.92-1.09.92-.15,0-.34,0-.52-.02-.13,0-.17-.07-.17-.22-.02-.27-.07-.48-.18-.75.27.07.5.1.71.1.22,0,.35-.07.39-.36.03-.26.05-.56.06-.88-.67.05-1.39.13-2.03.23,0,.91-.02,1.41.02,1.88.05.68.23.82,1.25.82.74,0,1.54-.08,2.16-.17.12,0,.15,0,.17.11.03.17.05.54.05.7,0,.1-.03.14-.11.15-.38.06-1.42.12-2.09.12-1.68,0-2.17-.35-2.27-1.44-.04-.45-.06-1.15-.06-2.03-.42.06-.69.11-1.01.17-.09.02-.22.06-.37.12-.11.05-.17.02-.22-.09-.1-.21-.19-.55-.23-.83.17,0,.53-.03.89-.08.23-.03.63-.11.94-.16v-.89Z"/><path class="cls-2" d="M119.08,1.5c.09.05.12.1.12.17,0,.06-.03.12-.06.18-.06.1-.09.22-.15.46-.28,1.26-.42,2.42-.42,3.03,0,.33,0,.72.03,1.07.17-.38.34-.74.52-1.16.12.27.18.38.29.52.03.04.05.08.05.12s-.02.08-.05.13c-.29.66-.39,1.02-.42,1.27-.03.23-.02.36,0,.44,0,.06-.03.08-.1.11-.16.06-.4.11-.62.14-.09.02-.12.02-.17-.1-.23-.59-.36-1.58-.36-2.54,0-.8.07-1.47.34-3.16.04-.29.09-.65.06-.98.33.08.78.22.95.3ZM121.94,3.73c-.57.02-1.15.03-1.71,0-.11,0-.14-.02-.15-.11-.03-.2-.06-.5-.06-.76.62.06,1.27.07,1.9.02,0-.3,0-.57,0-.87,0-.3-.03-.52-.11-.82.48.04.73.08,1.01.16.09.02.15.07.15.14,0,.04-.02.07-.05.14-.03.08-.06.18-.07.29-.02.28-.02.5-.02.88.39-.03.82-.09,1.18-.15.1-.02.12,0,.13.1.03.15.05.42.05.59,0,.07-.03.12-.09.12-.3.08-.85.14-1.28.17,0,.93.02,1.52.06,2.23.49.2.92.43,1.38.8.08.05.08.08.04.17-.11.22-.24.45-.38.64-.02.03-.05.05-.07.05s-.05-.02-.08-.04c-.26-.24-.53-.45-.9-.67-.07.7-.54,1.08-1.52,1.08s-1.49-.45-1.49-1.17.62-1.17,1.46-1.17c.22,0,.47.02.67.07-.02-.64-.02-1.25-.03-1.91ZM121.27,6.32c-.39,0-.62.14-.62.4s.18.42.67.42c.42,0,.68-.24.68-.54,0-.06,0-.1,0-.17-.27-.08-.49-.11-.72-.11Z"/><path class="cls-2" d="M127.38,5.15c.08.04.08.08.04.15-.12.19-.22.47-.22.63,0,.52.54.78,1.97.78.81,0,1.57-.09,2.26-.24.12-.02.16,0,.17.07.04.16.12.61.13.82,0,.07-.04.11-.14.12-.77.14-1.42.2-2.48.2-1.87,0-2.82-.6-2.82-1.68,0-.34.12-.7.44-1.19.22.11.42.22.64.33ZM129.26,1.89c.61,0,1.23-.04,1.77-.07.08,0,.12.02.12.09.02.19.04.42.04.71,0,.12-.04.17-.14.17-.79.12-1.37.39-2.04.82-.07.05-.14.08-.21.08-.06,0-.12-.02-.17-.05-.17-.11-.34-.2-.58-.27.43-.28.8-.52,1.09-.69-.18.02-.44.02-.68.02-.32,0-.99-.06-1.46-.14-.08-.02-.11-.05-.11-.15,0-.2.02-.44.03-.74.63.15,1.43.22,2.34.22Z"/><path class="cls-2" d="M135.47,1.74c.03-.37.03-.58-.02-.81.47.05.78.11,1,.17.11.03.17.08.17.15,0,.04-.03.1-.06.13-.06.07-.12.22-.14.31-.04.22-.07.39-.12.68.42-.06,1.1-.18,1.57-.31.12-.03.16-.02.17.08.03.19.06.42.06.62,0,.09-.03.12-.1.13-.72.16-1.17.25-1.87.34-.12.69-.23,1.25-.38,1.83.65-.57,1.48-.88,2.39-.88,1.11,0,1.86.72,1.86,1.57,0,.73-.31,1.27-.95,1.68-.5.32-1.22.52-2.12.67-.21.03-.41.06-.62.06-.08,0-.14-.04-.21-.2-.13-.27-.26-.43-.45-.59,1.22-.08,1.72-.18,2.39-.46.64-.27.95-.65.95-1.17,0-.43-.32-.79-.95-.79-.9,0-1.72.42-2.19,1.03-.08.11-.16.21-.23.32-.06.1-.08.13-.16.12-.18-.02-.46-.11-.62-.18-.13-.06-.18-.09-.18-.17,0-.03,0-.09.03-.17.04-.14.08-.27.11-.39.18-.73.3-1.35.44-2.18-.45.03-.97.07-1.4.07-.09,0-.14-.04-.16-.12-.03-.1-.08-.45-.12-.72.65,0,1.17-.03,1.81-.08.04-.29.08-.57.1-.77Z"/><path class="cls-2" d="M143.49,3.04c.09.04.13.09.13.16,0,.04-.02.08-.04.12-.08.13-.13.28-.17.44-.08.42-.17,1.04-.2,1.52.77-.77,1.76-1.32,2.78-1.32,1.22,0,1.94.71,1.94,1.78,0,.91-.54,1.51-1.26,1.87-.56.28-1.42.48-2.13.57-.18.02-.26.02-.33-.11-.16-.28-.31-.51-.57-.71.93-.06,1.73-.22,2.29-.47.67-.29.98-.72.98-1.26,0-.45-.28-.86-1-.86s-1.62.47-2.4,1.27c-.15.15-.26.29-.36.46-.05.08-.08.08-.19.06-.19-.07-.39-.14-.57-.23-.08-.03-.12-.05-.12-.17.05-.97.16-1.95.26-2.69.03-.25.08-.47.08-.75.33.09.67.19.87.3ZM143.7.93s.09-.07.16-.04c.62.24,1.13.56,1.63.99.04.03.06.06.06.09,0,.02-.02.06-.04.1-.11.17-.28.42-.42.58-.03.04-.07.07-.09.07-.03,0-.06-.02-.1-.06-.47-.41-1.02-.79-1.68-1.08.2-.3.36-.52.49-.65Z"/><line class="cls-1" x1="26.81" y1=".21" x2="30.68" y2="8.76"/><line class="cls-1" x1="155.2" y1=".21" x2="151.33" y2="8.76"/></g></svg>