<?xml version="1.0" encoding="UTF-8"?><svg id="_レイヤー_2" xmlns="http://www.w3.org/2000/svg" viewBox="0 0 55.11 34.79"><defs><style>.cls-1{fill:#000;}.cls-1,.cls-2,.cls-3{stroke-width:0px;}.cls-2{fill:#0068ac;}.cls-3{fill:#fff;}</style></defs><g id="_レイヤー_1-2"><path class="cls-2" d="M10.91,23.98s-.26-.91-1.44-.89c-1.18.01-3.77,0-3.77,0,0,0-2.59.01-3.77,0-1.18-.01-1.44.89-1.44.89,0,0-.03.91,0,1.14.03.23.21.21.21.21h9.98s.18.02.21-.21c.03-.22,0-1.14,0-1.14Z"/><path class="cls-2" d="M18.25,5.52l-1.52-1.03c-2.02-1.35-4.23-2.83-4.34-2.94-.13-.12-.3-.18-.52-.18-.13,0-.25.02-.33.04-.04.01-.1,0-.12-.01,0,0,0,0,0,0-.1-.07-.77-.58-1.37-1.07-.27-.23-.58-.34-.92-.34s-.58.11-.65.14c-.08.04-.24.16-1.03.83-.44.38-.68.76-.71,1.13-.03.35.15.56.17.58l.5.6c-1.43,1.33-5.83,5.44-6.57,6.07-.97.84-.93,1.89-.75,2.38l3.48,10.91s.04.05.08.05h1.36s.08-.03.08-.08c0-.02,0-.03-.01-.04L1.49,11.33c-.02-.05-.15-.52.34-.94.78-.67,5.41-4.99,6.49-6l.22.26s-.08.06-.13.11c-.25.27-.11.61-.1.62l.44,1.04v.02c.31.73,1.82,4.37,2.02,4.73.15.27.36.31.48.31.19,0,.34-.1.38-.13l.08-.06c1.9-1.43,6.33-4.79,6.56-4.99.15-.14.18-.28.18-.37,0-.22-.16-.36-.2-.39Z"/><path class="cls-1" d="M27.17,13.9c-.28.18-.65.3-1.12.38-.46.08-.94.12-1.42.12-.57,0-1.12-.08-1.65-.23-.53-.15-.99-.4-1.4-.73-.41-.33-.73-.76-.97-1.29-.24-.52-.36-1.16-.36-1.91s.14-1.43.41-1.96c.27-.53.62-.95,1.05-1.28.43-.32.9-.56,1.42-.7.52-.14,1.03-.22,1.54-.22.56,0,1.02.03,1.4.09.38.06.69.13.94.22l-.37,1.41c-.21-.08-.46-.14-.75-.18-.29-.04-.65-.06-1.08-.06-.38,0-.73.06-1.04.17-.31.11-.58.28-.8.5-.22.22-.4.5-.52.83-.12.33-.19.73-.19,1.18,0,.4.06.76.17,1.08.11.33.28.61.5.84.22.24.5.42.85.55.34.13.74.19,1.19.19.42,0,.77-.03,1.06-.1.29-.07.54-.16.76-.26l.37,1.35Z"/><path class="cls-1" d="M28.29,10.25c0-.65.09-1.24.28-1.76.19-.52.46-.95.81-1.31.35-.35.79-.62,1.3-.81.51-.19,1.09-.28,1.74-.28.69,0,1.3.1,1.81.3.52.2.95.48,1.29.85.35.37.61.8.78,1.31.17.51.26,1.07.26,1.69,0,.65-.1,1.24-.29,1.76-.19.52-.47.95-.83,1.31-.36.35-.79.62-1.31.81-.51.19-1.09.28-1.73.28-.69,0-1.3-.1-1.81-.3-.52-.2-.95-.48-1.29-.85-.35-.37-.6-.8-.78-1.31-.17-.51-.26-1.07-.26-1.69ZM30.31,10.25c0,.4.04.76.13,1.08.09.33.21.61.38.84.17.24.39.42.66.55.27.13.59.19.95.19.68,0,1.2-.21,1.58-.62.38-.41.56-1.1.56-2.05,0-.38-.04-.73-.12-1.06-.08-.33-.2-.61-.38-.85-.18-.24-.4-.43-.67-.56-.27-.13-.6-.2-.98-.2-.67,0-1.19.21-1.56.64-.38.43-.56,1.1-.56,2.03Z"/><path class="cls-1" d="M44.78,13.9c-.28.18-.65.3-1.12.38-.46.08-.94.12-1.42.12-.57,0-1.12-.08-1.65-.23-.53-.15-.99-.4-1.4-.73-.41-.33-.73-.76-.97-1.29-.24-.52-.36-1.16-.36-1.91s.14-1.43.41-1.96c.27-.53.62-.95,1.05-1.28.43-.32.9-.56,1.42-.7.52-.14,1.03-.22,1.54-.22.56,0,1.02.03,1.4.09.38.06.69.13.94.22l-.37,1.41c-.21-.08-.46-.14-.75-.18-.29-.04-.65-.06-1.08-.06-.38,0-.73.06-1.04.17-.31.11-.58.28-.8.5-.22.22-.4.5-.52.83-.12.33-.19.73-.19,1.18,0,.4.06.76.17,1.08.11.33.28.61.5.84.22.24.5.42.85.55.34.13.74.19,1.19.19.42,0,.77-.03,1.06-.1.29-.07.54-.16.76-.26l.37,1.35Z"/><path class="cls-1" d="M45.91,10.25c0-.65.09-1.24.28-1.76.19-.52.46-.95.81-1.31.35-.35.79-.62,1.3-.81.51-.19,1.09-.28,1.74-.28.69,0,1.3.1,1.81.3.52.2.95.48,1.29.85.35.37.61.8.78,1.31.17.51.26,1.07.26,1.69,0,.65-.1,1.24-.29,1.76-.19.52-.47.95-.83,1.31-.36.35-.79.62-1.31.81s-1.09.28-1.73.28c-.69,0-1.3-.1-1.81-.3-.52-.2-.95-.48-1.29-.85-.35-.37-.6-.8-.78-1.31-.17-.51-.26-1.07-.26-1.69ZM47.92,10.25c0,.4.04.76.13,1.08.09.33.21.61.38.84.17.24.39.42.66.55.27.13.59.19.95.19.68,0,1.2-.21,1.58-.62.38-.41.56-1.1.56-2.05,0-.38-.04-.73-.12-1.06-.08-.33-.2-.61-.38-.85-.18-.24-.4-.43-.67-.56-.27-.13-.6-.2-.98-.2-.67,0-1.19.21-1.56.64-.38.43-.56,1.1-.56,2.03Z"/><path class="cls-1" d="M24.15,22.8c0-.21-.09-.37-.26-.5-.18-.12-.39-.23-.65-.33-.26-.1-.54-.2-.85-.3-.3-.1-.59-.24-.85-.41-.26-.17-.48-.38-.65-.64-.18-.26-.26-.59-.26-1,0-.35.06-.66.19-.93.12-.27.3-.49.53-.66.23-.17.5-.3.82-.39.32-.09.67-.13,1.06-.13.45,0,.87.04,1.27.12.4.08.73.19.99.33l-.48,1.26c-.08-.05-.18-.1-.31-.15-.13-.05-.27-.09-.43-.13-.16-.04-.33-.07-.52-.09-.18-.02-.37-.04-.56-.04-.34,0-.6.06-.78.18-.19.12-.28.28-.28.49s.09.38.26.5c.18.12.39.24.65.34.26.1.54.21.85.31.3.1.59.24.85.41.26.17.48.37.65.62.18.25.26.57.26.96s-.07.73-.2,1.01c-.14.28-.33.52-.57.7-.25.19-.54.32-.89.41-.34.09-.72.13-1.13.13-.28,0-.54-.02-.78-.05-.25-.03-.47-.07-.68-.11-.21-.04-.39-.09-.55-.14-.16-.05-.29-.1-.38-.15l.5-1.27c.07.04.18.08.31.13.13.05.28.09.44.14.16.04.34.08.52.11.19.03.37.04.56.04.45,0,.78-.06,1.02-.19.23-.13.35-.33.35-.6Z"/><path class="cls-1" d="M32.51,18.97h-2.25v5.77h-1.5v-5.77h-2.25v-1.32h5.99v1.32Z"/><path class="cls-1" d="M37.88,17.66h1.42v4.55c0,.46-.07.86-.2,1.2-.13.34-.32.61-.56.83-.24.22-.53.38-.86.48-.33.1-.7.16-1.1.16-.95,0-1.68-.21-2.18-.62-.5-.42-.75-1.04-.75-1.87v-4.72h1.5v4.45c0,.54.12.92.35,1.13.24.21.59.32,1.05.32s.78-.11.99-.34c.22-.23.32-.6.32-1.11v-4.45Z"/><path class="cls-1" d="M40.98,17.66c.15-.02.32-.04.51-.05.19-.01.39-.02.6-.03.21,0,.41-.01.6-.02.2,0,.37,0,.53,0,.68,0,1.25.09,1.74.27.48.18.88.43,1.18.74.31.32.53.7.67,1.13.14.44.21.92.21,1.44,0,.47-.07.93-.21,1.38-.14.45-.36.84-.67,1.19-.31.35-.72.63-1.22.84-.5.21-1.11.31-1.84.31-.11,0-.27,0-.47-.01-.2,0-.41-.02-.62-.03-.21-.01-.41-.02-.6-.03-.19-.01-.33-.02-.42-.04v-7.1ZM43.33,18.87c-.16,0-.31,0-.48,0-.16,0-.29.01-.37.03v4.6s.09.01.16.02c.07,0,.14,0,.22.01.08,0,.15,0,.22.01.07,0,.12,0,.16,0,.43,0,.79-.07,1.07-.2.28-.13.51-.31.67-.54.17-.22.28-.48.35-.76.07-.28.1-.58.1-.88,0-.25-.03-.51-.09-.78-.06-.27-.17-.52-.33-.74-.16-.22-.37-.41-.64-.55-.27-.14-.62-.22-1.04-.22Z"/><path class="cls-2" d="M55.11,33.65c0,.63-.51,1.13-1.14,1.13H1.22c-.63,0-1.14-.51-1.14-1.13v-4.14c0-.63.51-1.13,1.14-1.13h52.75c.63,0,1.14.51,1.14,1.13v4.14Z"/><path class="cls-1" d="M24.3,2.96c-.29,0-.4,0-.54.02v-.58c.15.02.24.03.55.03h1.27v-1.24h-1.23c-.29,0-.41,0-.55.02v-.58c.15.02.25.03.55.03h1.45c.17,0,.26,0,.35,0,0,.11,0,.16,0,.32v1.65c0,.27,0,.34.02.52h-.6v-.19h-1.28Z"/><path class="cls-1" d="M27.4,2.96c-.29,0-.4,0-.54.02v-.58c.15.02.24.03.55.03h1.27v-1.24h-1.23c-.29,0-.41,0-.55.02v-.58c.15.02.25.03.55.03h1.45c.17,0,.26,0,.35,0,0,.11,0,.16,0,.32v1.65c0,.27,0,.34.02.52h-.6v-.19h-1.28Z"/><path class="cls-1" d="M32.19,3.23c-.28-.35-.55-.62-.91-.9-.3.35-.67.63-1.17.87-.11-.22-.18-.32-.36-.5.41-.16.74-.36,1.03-.64.29-.28.49-.56.64-.93h-.82c-.27.02-.37.03-.5.04l-.02-.56c.12.02.21.02.33.02.03,0,.09,0,.18,0l1.08-.02c.15,0,.17,0,.25-.03l.28.29s-.07.08-.11.19c-.17.4-.29.62-.47.86.38.28.51.39,1.01.86l-.44.47Z"/><path class="cls-1" d="M34.39.45s-.05.1-.14.28h.85c.09,0,.13-.02.19-.05l.28.28s-.05.06-.07.14c-.19.56-.35.91-.59,1.22-.2.27-.46.51-.77.72-.17.11-.3.18-.54.29-.12-.21-.19-.3-.37-.48.48-.17.79-.36,1.07-.65-.2-.16-.35-.26-.59-.39l.33-.4c.28.15.38.22.58.36.13-.2.21-.37.27-.58h-.88c-.18.32-.4.58-.72.87-.15-.16-.25-.24-.46-.36.37-.29.6-.56.79-.91.09-.16.14-.3.18-.44l.57.11Z"/><path class="cls-1" d="M37.73,1.83c-.02.36-.09.58-.23.82-.18.29-.41.47-.85.64-.11-.23-.18-.32-.37-.5.22-.06.34-.12.47-.21.25-.18.36-.4.39-.75h-.65c-.26,0-.35,0-.48.02v-.53c.14.02.22.03.49.03h1.76c.28,0,.36,0,.5-.02v.53c-.18-.02-.21-.02-.49-.02h-.54ZM38.15,1.04q-.09,0-.47-.02h-.86c-.27,0-.34,0-.49.02v-.54c.14.02.22.03.5.03h.84c.21,0,.34,0,.48-.02v.18l.24-.08c.09.16.16.3.2.45l-.29.1q-.04-.15-.15-.38v.26ZM38.68,1.02c-.06-.18-.1-.28-.2-.44l.28-.1c.1.16.14.26.2.43l-.29.11Z"/><path class="cls-1" d="M41.58,1.21s-.04.03-.11.11c-.17.19-.36.36-.59.52v.98c0,.21,0,.32.02.44h-.56c.02-.12.02-.21.02-.44v-.66c-.27.16-.37.21-.83.37-.07-.17-.14-.29-.27-.45.49-.14.91-.33,1.28-.6.27-.19.49-.41.59-.57l.44.3Z"/><path class="cls-1" d="M44.46,1.8s-.02.02-.15.12c-.09.07-.22.18-.39.31.16,0,.17,0,.48-.02-.04-.05-.07-.08-.13-.15l.36-.19c.19.18.3.31.5.59l-.4.25c-.04-.07-.05-.1-.08-.15-.17,0-.29.02-.35.02.18.15.4.23.78.31-.12.15-.18.25-.26.42-.41-.14-.67-.29-.92-.52l.34-.21c-.15,0-.28.01-.41.02v.38c0,.16,0,.23.02.33h-.54c.02-.1.02-.17.02-.33v-.37q-.18,0-.38,0l.32.18c-.23.22-.5.38-.85.5-.11-.19-.16-.25-.29-.39.34-.08.54-.16.71-.29q-.57.02-.64.03l-.05-.46q.13.02.85.03-.1-.07-.32-.18t-.17-.09s-.03-.02-.07-.04l.32-.25-.58.08-.06-.47s.04,0,.05,0c.02,0,.09,0,.14,0v-.43c0-.13,0-.21-.02-.3h.47c0,.07-.01.16-.01.29v.42h.14v-.57c0-.16,0-.23-.02-.34h.48c0,.09,0,.14-.01.26h.07c.1,0,.16,0,.24-.02v.44c-.07,0-.13,0-.24,0h-.07v.17q.22-.03.32-.04v.39s-.08.02-.08.02l.19.11c-.14.15-.23.23-.38.35.04.03.05.04.11.08.2-.16.35-.3.49-.46-.17-.03-.24-.1-.24-.24v-.79c0-.12,0-.19-.02-.27h.49c0,.07-.01.12-.01.24v.03c.21-.05.38-.12.56-.23l.31.39s0,0-.03.01l-.04.02c-.26.1-.53.17-.79.23v.1c0,.07.03.08.18.08.17,0,.23-.01.24-.06,0-.03.02-.11.02-.22.17.07.28.1.45.12-.03.28-.06.41-.13.48-.08.08-.25.1-.61.1-.05,0-.11,0-.16,0l.27.15ZM43.27,1.61q-.34.05-.4.06c.1.06.14.09.21.13.08-.07.12-.11.19-.19Z"/><path class="cls-1" d="M45.8,2.59v.22h-.48c.01-.11.02-.23.02-.42V.85c0-.16,0-.24-.01-.35.08,0,.14,0,.3,0h.66c.12,0,.18,0,.27,0,0,.08,0,.16,0,.28v1.52c0,.06,0,.1,0,.15.05-.15.08-.31.11-.52.03-.21.04-.47.04-.94,0-.28,0-.43-.02-.57.12.01.21.02.4.02h.68c.21,0,.28,0,.38-.02,0,.09-.01.18-.01.39v2.04c0,.17-.04.29-.14.35-.09.06-.23.08-.51.08h-.14c-.03-.19-.05-.32-.11-.48.12.01.23.02.29.02.11,0,.13-.02.13-.08v-.41h-.55c-.1.45-.24.72-.53.99-.14-.16-.22-.24-.38-.35.16-.14.24-.23.32-.39h-.68ZM45.79,1.35h.29v-.39h-.29v.39ZM45.79,2.16h.29v-.4h-.29v.4ZM47.15,1.61c0,.13,0,.17-.02.31h.49v-.31h-.47ZM47.62.89h-.46v.29h.46v-.29Z"/><path class="cls-1" d="M49.64.5c0-.07,0-.11-.01-.16h.52s-.01.09-.01.17v.1h.69c.2,0,.35,0,.45-.02v.49c-.13,0-.3-.02-.44-.02h-1.79v.14c0,1.1-.1,1.67-.37,2.14-.13-.18-.23-.28-.39-.4.22-.39.28-.8.28-1.86,0-.24,0-.38,0-.49.12,0,.26.02.42.02h.67v-.1ZM49.78,1.47c0-.18,0-.26-.01-.35h.49c0,.06,0,.11-.01.22h.61c.18,0,.28,0,.36-.02v.47c-.11,0-.23-.02-.34-.02h-.63v.23h.55c.14,0,.21,0,.29-.01-.01.12-.02.21-.02.35v.54c0,.21,0,.32.02.43h-.5v-.12h-.98v.12h-.5c.01-.09.02-.23.02-.4v-.64c0-.12,0-.21,0-.29.08,0,.15.01.29.01h.37v-.54ZM49.61,2.76h.98v-.31h-.98v.31Z"/><path class="cls-3" d="M3.08,32.2c.02.11.03.16.08.22.08.09.19.15.33.15.22,0,.36-.13.36-.34,0-.14-.06-.25-.15-.29-.07-.03-.15-.04-.27-.04s-.24,0-.35.02v-.58c.1.01.19.02.3.02.27,0,.41-.11.41-.33,0-.18-.11-.29-.3-.29-.2,0-.31.1-.35.31l-.62-.11c.05-.21.1-.31.19-.43.17-.22.44-.34.79-.34.31,0,.57.1.73.29.11.13.16.29.16.48,0,.36-.16.58-.49.68.17.03.27.08.37.18.12.13.19.31.19.5,0,.17-.04.33-.11.45-.06.1-.16.2-.27.25-.15.08-.38.13-.59.13-.26,0-.51-.07-.67-.19-.13-.1-.23-.25-.29-.44-.02-.05-.03-.09-.05-.18l.61-.13Z"/><path class="cls-3" d="M6.18,31c-.05-.2-.15-.28-.32-.28s-.31.1-.38.29c-.05.12-.07.22-.08.42.07-.08.11-.12.18-.15.11-.06.23-.09.38-.09.52,0,.84.37.84.95s-.39,1-.95,1c-.3,0-.55-.12-.72-.34-.19-.25-.29-.63-.29-1.09,0-.43.09-.83.24-1.07.19-.31.45-.46.81-.46.28,0,.51.11.67.3.08.11.13.2.19.38l-.56.14ZM5.44,32.16c0,.25.17.43.4.43s.41-.18.41-.44-.15-.42-.39-.42-.41.17-.41.43Z"/><path class="cls-3" d="M7.81,31.19s0,.05,0,.11c.13-.11.28-.16.46-.16.25,0,.46.1.61.28.14.17.21.39.21.68,0,.65-.36,1.04-.97,1.04-.36,0-.64-.15-.81-.42-.07-.11-.1-.2-.14-.38l.57-.11c.05.22.17.33.37.33.24,0,.4-.18.4-.45s-.15-.45-.39-.45c-.18,0-.3.08-.36.25l-.53-.06c.01-.1.02-.18.03-.28l.08-1.06c0-.07,0-.15.01-.28.12,0,.15,0,.29,0h.86c.25,0,.36,0,.47-.02v.59c-.15-.02-.28-.02-.47-.02h-.66l-.03.41Z"/><path class="cls-3" d="M12.46,30.21c.17,0,.29,0,.4-.02-.01.15-.02.27-.02.38v2.2c0,.19,0,.33.02.47h-.6v-.17h-1.49v.17h-.59c.01-.14.02-.3.02-.47v-2.2c0-.13,0-.25-.02-.39.12.01.25.02.41.02h1.86ZM12.26,31.37v-.66h-1.49v.66h1.49ZM10.77,31.85v.71h1.49v-.71h-1.49Z"/><path class="cls-3" d="M15.01,33.07c-.26,0-.32,0-.43.01.01-.17.03-.27.06-.4.07-.28.21-.54.41-.76.11-.12.22-.22.51-.45.25-.2.31-.29.31-.44s-.12-.27-.31-.27c-.14,0-.23.05-.3.17-.04.07-.06.14-.07.29l-.6-.07c.04-.3.09-.44.21-.6.16-.23.42-.35.76-.35.39,0,.68.15.82.43.06.12.09.25.09.4,0,.25-.09.46-.26.63-.09.1-.12.12-.41.36-.25.2-.35.32-.42.47h.67c.21,0,.35,0,.46-.02v.64c-.17-.02-.29-.02-.49-.02h-1Z"/><path class="cls-3" d="M16.83,31.88q.13-.17.27-.37l.62-.86c.14-.19.19-.27.27-.4h.59c-.02.2-.02.34-.02.56v1.1h.08c.09,0,.18-.01.28-.03v.62c-.09-.01-.19-.02-.28-.02h-.09v.17c0,.19,0,.29.02.42h-.59c.01-.12.02-.26.02-.42v-.17h-.81c-.19,0-.27,0-.37.01v-.61ZM18.02,31.52c0-.15,0-.34.02-.49-.06.1-.1.16-.18.28l-.42.6h.58v-.39Z"/><path class="cls-3" d="M22.18,30.24c-.02.14-.03.26-.03.5v1.82c0,.22,0,.34.03.5h-.77c.02-.14.03-.27.03-.5v-.66h-1.2v.66c0,.22,0,.35.03.5h-.77c.02-.14.03-.26.03-.5v-1.82c0-.23,0-.36-.03-.5h.77c-.02.16-.03.29-.03.5v.56h1.2v-.56c0-.23,0-.37-.03-.5h.77Z"/><path class="cls-3" d="M24.21,30.76c-.18.03-.25.04-.43.06-.05-.19-.09-.3-.16-.47.35-.03.62-.07.95-.15.23-.05.34-.09.43-.15l.31.45s-.02,0-.08.03c-.14.04-.32.09-.48.13v.35h.22c.14,0,.21,0,.29-.02v.5c-.09-.01-.18-.01-.3-.01h-.19c.19.25.3.36.54.52-.1.17-.17.3-.24.48-.15-.13-.23-.23-.33-.39,0,.08.01.17.01.28v.46c0,.22,0,.31.02.44h-.58c.01-.14.02-.24.02-.44v-.4q0-.17,0-.26c-.11.26-.22.43-.43.63-.1-.25-.14-.34-.26-.52.14-.11.23-.21.34-.38.11-.16.18-.29.22-.41h-.16c-.13,0-.22,0-.31.02v-.5c.1.01.18.02.33.02h.26v-.24ZM25.96,30.34c-.01.13-.02.22-.02.43v1.26c0,.21,0,.3.02.41h-.57c.01-.1.02-.17.02-.4v-1.27c0-.2,0-.31-.02-.43h.57ZM26.79,30.11c-.02.16-.02.29-.02.5v2.14c0,.22-.06.35-.19.41-.1.05-.3.07-.62.07-.06,0-.12,0-.25,0-.04-.21-.08-.33-.17-.53.23.02.34.03.49.03s.19-.02.19-.1v-2.02c0-.16,0-.32-.02-.5h.58Z"/><path class="cls-3" d="M29.26,32.74c0,.22,0,.32.02.43h-.57c.01-.11.02-.21.02-.43v-.48h-.68c-.05.43-.14.72-.34,1.03-.2-.2-.29-.28-.49-.39.27-.43.33-.82.33-2.27,0-.2,0-.34-.02-.47.13.01.22.01.43.01h2.08c.22,0,.33,0,.45-.01-.01.12-.02.21-.02.43v2.21c0,.32-.14.41-.57.41-.12,0-.25,0-.39-.01-.03-.18-.06-.29-.14-.49.16.01.3.02.4.02.13,0,.16-.01.16-.07v-.42h-.66v.48ZM28.09,31.46c0,.14,0,.18-.01.33h.65v-.33h-.64ZM28.73,30.67h-.63v.32h.63v-.32ZM29.93,30.99v-.32h-.66v.32h.66ZM29.26,31.79h.66v-.33h-.66v.33Z"/><path class="cls-3" d="M31.54,30.68c-.17,0-.32,0-.5.02v-.53c.16.01.3.02.49.02h2.28c.18,0,.34,0,.5-.02v.53c-.13-.01-.22-.01-.37-.02v2.08c0,.4-.12.48-.74.48-.11,0-.18,0-.34,0-.02-.22-.07-.38-.14-.52.2.02.37.03.51.03s.16-.02.16-.11v-1.96h-1.85ZM33.07,32.12c0,.11,0,.19.01.3-.09,0-.25-.01-.33-.01h-.84v.25h-.55c.01-.12.02-.23.02-.34v-1.07c0-.13,0-.22-.02-.33.09.01.19.01.33.01h1.05c.14,0,.25,0,.35-.01-.01.1-.01.15-.01.3v.91ZM31.91,31.94h.63v-.54h-.63v.54Z"/><path class="cls-3" d="M36.02,31.18h.08c-.04-.1-.05-.12-.07-.17-.26.04-.67.08-1.05.11-.08,0-.18.01-.24.02l-.05-.52c.06,0,.14,0,.19,0h.07c.13-.22.2-.4.25-.59l.58.07s-.04.06-.07.12c-.04.08-.11.21-.21.37.14-.01.2-.01.34-.03-.03-.05-.05-.09-.12-.21l.4-.18c.14.2.23.34.36.59v-.41c0-.13,0-.2-.01-.29h.56c-.01.07-.01.13-.01.26v.08c.21-.07.21-.07.34-.13.17-.08.22-.11.34-.2l.37.44c-.06.02-.09.03-.15.06-.33.14-.54.22-.89.31v.13c0,.07.02.08.2.08s.25-.01.29-.04c.02-.02.03-.1.03-.29.18.07.33.1.5.12-.03.37-.06.48-.16.56-.1.08-.28.1-.75.1-.25,0-.36-.01-.46-.04-.14-.04-.19-.11-.19-.25v-.3l-.36.2c.11,0,.15,0,.22-.01-.01.09-.01.17-.01.32v1.34c0,.14-.02.22-.07.28-.08.08-.21.13-.43.13-.05,0-.12,0-.2,0-.02-.19-.04-.3-.1-.47.07.01.14.02.2.02.06,0,.09-.01.09-.04v-.15h-.42v.28c0,.17,0,.27.02.4h-.56c.02-.14.02-.22.02-.4v-1.39c0-.12,0-.21-.01-.31.07,0,.12,0,.23,0h.94ZM35.38,31.72h.43v-.13h-.43v.13ZM35.38,32.23h.43v-.14h-.43v.14ZM37.01,31.98c.29-.08.5-.17.69-.31l.38.42c-.45.19-.68.26-1.07.36v.22c0,.07.05.09.24.09.17,0,.24-.01.27-.05.02-.03.03-.12.03-.34.18.07.32.11.51.14-.02.4-.06.51-.17.6-.11.09-.27.12-.74.12-.32,0-.46-.02-.55-.07-.09-.05-.12-.12-.12-.24v-.96c0-.14,0-.21-.01-.3h.56c-.01.07-.01.14-.01.27v.04Z"/><path class="cls-3" d="M39.94,30.16c-.02.06-.02.06-.07.27-.02.08-.03.11-.04.19.23-.02.38-.05.5-.08v.55q-.08,0-.25.03c-.1.01-.29.03-.38.03-.13.4-.22.64-.39.98-.08.16-.11.22-.25.48q-.05.08-.07.13l-.58-.3c.25-.32.5-.8.66-1.28h-.2q-.08,0-.16,0h-.14v-.54c.14.02.3.03.52.03.04,0,.06,0,.13,0t.03-.14c.03-.12.05-.28.05-.4l.64.06ZM41.48,33.02c-.13-.15-.27-.25-.46-.37-.01.16-.05.26-.15.35-.14.13-.39.21-.68.21s-.53-.08-.68-.22c-.12-.12-.18-.26-.18-.42,0-.39.35-.67.84-.67.07,0,.13,0,.25.02-.01-.13-.01-.19-.01-.27,0-.14,0-.25.02-.4l.59.02c-.03.12-.04.22-.04.38,0,.12,0,.22.03.39.22.09.39.18.55.3.01,0,.07.05.18.13l-.26.54ZM40.2,32.38c-.17,0-.28.07-.28.17,0,.1.1.16.25.16.18,0,.27-.07.27-.22,0-.02,0-.07,0-.07-.1-.03-.16-.04-.24-.04ZM41.52,31.43c-.34-.2-.69-.35-1.11-.49l.3-.47c.45.15.74.28,1.08.46l-.26.5Z"/><path class="cls-3" d="M43.35,30.47c.07-.15.12-.3.14-.42l.64.04q-.03.06-.11.27s-.03.06-.05.11h.81c.22,0,.32,0,.45-.01-.01.11-.02.2-.02.41v1.99c0,.18,0,.28.02.4h-.58v-.15h-1.63v.15h-.57c.01-.11.02-.22.02-.39v-2c0-.2,0-.29-.02-.41.13.01.23.01.45.01h.46ZM43.02,31.2h1.63v-.25h-1.63v.25ZM43.02,31.91h1.63v-.24h-1.63v.24ZM43.02,32.63h1.63v-.25h-1.63v.25Z"/><path class="cls-3" d="M49.1,31.25c0,.19-.02.27-.09.32-.07.06-.19.08-.47.08-.05,0-.16,0-.25,0-.01-.09-.01-.12-.03-.19-.14.06-.2.08-.35.13-.08.03-.09.03-.15.05t-.07.1h.74c.24,0,.28,0,.4-.01-.01.12-.02.17-.02.39v.7c0,.23,0,.33.02.43h-.55v-.13h-1.49v.13h-.55c.01-.11.02-.21.02-.43v-.69c0-.23,0-.29-.01-.4.11.01.17.01.39.01h.48s.04-.05.07-.1c-.06,0-.11.01-.21.01-.07,0-.14,0-.26,0-.01-.1-.01-.13-.03-.2-.14.05-.31.12-.45.16-.1.03-.11.04-.18.07l-.16-.47c.16-.02.3-.06.53-.13-.13-.12-.23-.19-.41-.3l.24-.2c-.17,0-.23,0-.31.02v-.48c.13.01.26.02.43.02h.75c.19,0,.27,0,.38-.02,0,.07-.01.15-.01.36v.76c0,.07,0,.13-.01.18l.17.03-.09-.25c.18-.03.29-.05.48-.11-.15-.13-.23-.19-.42-.31l.22-.2c-.13,0-.16,0-.26.01v-.48c.14.01.27.02.44.02h.77c.18,0,.27,0,.34-.01-.01.09-.01.19-.01.37v.75ZM46.53,31.05c.11-.03.17-.06.35-.13v.3c.09,0,.1-.01.1-.06v-.57h-.51c.13.07.2.12.33.22l-.28.24ZM46.79,32.25h1.5v-.13h-1.5v.13ZM46.79,32.74h1.5v-.14h-1.5v.14ZM48.12,31.06c.11-.04.17-.06.36-.14v.31c.09,0,.1-.01.1-.07v-.57h-.55c.14.08.21.13.34.23l-.26.24Z"/><path class="cls-3" d="M50.94,30.3c0-.1,0-.15-.01-.22h.6c-.01.05-.01.12-.01.22h.91c.21,0,.31,0,.44-.02-.01.08-.01.13-.01.29v.25c0,.12,0,.22.02.32h-.33v.21c-.1-.01-.13-.01-.32-.01.16.15.25.24.48.48l-.43.28c.16,0,.22,0,.33-.01v.48c-.11-.01-.2-.01-.36-.01h-.72v.17h.95c.24,0,.33,0,.44-.02v.5c-.12-.01-.29-.02-.52-.02h-2.28c-.22,0-.39,0-.51.02v-.5c.12.02.21.02.44.02h.91v-.17h-.66c-.17,0-.27,0-.38.01v-.48c.11.01.16.01.39.01h.66v-.17c-.23.01-.4.02-.5.02-.42.01-.46.01-.54.02l-.05-.47c.09.01.13.01.2.01h.35c.05-.06.09-.12.12-.18h-.13c-.25,0-.34,0-.44.01v-.21h-.32c.01-.16.02-.21.02-.35v-.23c0-.12,0-.19-.01-.28.15.01.25.02.45.02h.85ZM52.32,30.76h-2.13v.15h2.13v-.15ZM51.11,31.35c-.04.06-.06.1-.12.17q.33,0,.72-.02s-.04-.04-.09-.08l.16-.07h-.68ZM52.24,32.1c-.1-.13-.13-.16-.18-.22q-.24.01-.55.03v.19h.72Z"/><path class="cls-1" d="M50.35,22.13l-2.53-4.48h1.78l1.42,2.6.16.26h.05l.17-.28,1.37-2.58h1.61l-2.53,4.47v2.62h-1.5v-2.61Z"/></g></svg>